{"glyphs":{"0":{"ha":1527,"x_min":167,"x_max":1389,"o":"m 346 997 q 250 964 283 997 q 216 868 216 930 l 216 -74 q 346 -189 216 -189 l 1140 -189 q 1229 -163 1202 -189 q 1255 -74 1255 -136 l 1255 868 q 1140 997 1255 997 l 346 997 m 1389 -117 q 1352 -253 1389 -212 q 1223 -294 1315 -294 l 346 -294 q 209 -252 252 -294 q 167 -117 167 -210 l 167 868 q 214 1001 167 954 q 346 1047 261 1047 l 1182 1047 q 1334 1003 1279 1047 q 1389 868 1389 958 l 1389 -117 m 733 644 q 697 633 712 644 q 667 594 682 623 q 643 504 652 566 q 635 350 635 441 q 730 92 635 92 q 828 390 827 92 q 825 479 828 441 q 814 558 822 517 q 785 622 806 600 q 733 644 764 644 m 729 47 q 568 138 623 47 q 513 361 513 228 q 579 598 513 508 q 733 689 646 689 q 886 603 822 689 q 950 371 950 517 q 885 125 950 203 q 729 47 819 47 z "},"1":{"ha":1527,"x_min":167,"x_max":1389,"o":"m 346 997 q 250 964 283 997 q 216 868 216 930 l 216 -74 q 346 -189 216 -189 l 1140 -189 q 1229 -163 1202 -189 q 1255 -74 1255 -136 l 1255 868 q 1140 997 1255 997 l 346 997 m 1389 -117 q 1352 -253 1389 -212 q 1223 -294 1315 -294 l 346 -294 q 209 -252 252 -294 q 167 -117 167 -210 l 167 868 q 214 1001 167 954 q 346 1047 261 1047 l 1182 1047 q 1334 1003 1279 1047 q 1389 868 1389 958 l 1389 -117 m 817 253 q 829 57 817 138 l 827 54 q 754 57 792 57 l 684 54 l 684 57 q 694 253 694 123 l 694 505 q 675 574 694 573 q 562 567 619 574 l 561 611 q 821 689 635 628 q 828 685 827 689 q 817 515 817 574 l 817 253 z "},"2":{"ha":1527,"x_min":167,"x_max":1389,"o":"m 346 997 q 250 964 283 997 q 216 868 216 930 l 216 -74 q 346 -189 216 -189 l 1140 -189 q 1229 -163 1202 -189 q 1255 -74 1255 -136 l 1255 868 q 1140 997 1255 997 l 346 997 m 1389 -117 q 1352 -253 1389 -212 q 1223 -294 1315 -294 l 346 -294 q 209 -252 252 -294 q 167 -117 167 -210 l 167 868 q 214 1001 167 954 q 346 1047 261 1047 l 1182 1047 q 1334 1003 1279 1047 q 1389 868 1389 958 l 1389 -117 m 693 633 q 562 546 612 633 l 538 546 l 515 628 l 518 632 q 596 670 542 652 q 701 689 650 689 q 861 648 800 689 q 922 526 922 607 q 899 437 922 472 q 822 350 876 401 l 718 250 q 648 161 649 185 l 734 161 q 926 170 806 161 q 921 102 921 142 q 926 53 921 81 q 747 57 810 57 q 614 55 701 57 q 498 53 528 53 l 497 57 q 527 141 497 100 q 640 269 557 183 l 718 346 q 771 428 760 389 q 782 528 782 467 q 753 603 782 572 q 693 633 724 633 z "},"3":{"ha":1527,"x_min":167,"x_max":1389,"o":"m 346 997 q 250 964 283 997 q 216 868 216 930 l 216 -74 q 346 -189 216 -189 l 1140 -189 q 1229 -163 1202 -189 q 1255 -74 1255 -136 l 1255 868 q 1140 997 1255 997 l 346 997 m 1389 -117 q 1352 -253 1389 -212 q 1223 -294 1315 -294 l 346 -294 q 209 -252 252 -294 q 167 -117 167 -210 l 167 868 q 214 1001 167 954 q 346 1047 261 1047 l 1182 1047 q 1334 1003 1279 1047 q 1389 868 1389 958 l 1389 -117 m 679 100 q 712 105 696 100 q 749 124 729 111 q 780 168 768 138 q 791 240 791 197 q 677 361 791 361 q 637 359 650 361 l 637 407 q 747 443 713 411 q 781 541 781 475 q 758 608 781 581 q 705 636 736 636 q 629 616 654 636 q 575 545 604 596 l 550 546 l 529 628 l 532 632 q 608 670 555 652 q 715 689 661 689 q 849 657 796 689 q 903 557 903 625 q 779 399 903 431 l 779 395 q 887 351 843 389 q 932 243 932 313 q 858 95 932 143 q 677 46 783 46 q 510 104 579 46 l 505 109 l 529 191 l 554 192 q 586 138 578 152 q 618 112 595 125 q 679 100 642 100 z "},"4":{"ha":1527,"x_min":167,"x_max":1389,"o":"m 346 997 q 250 964 283 997 q 216 868 216 930 l 216 -74 q 346 -189 216 -189 l 1140 -189 q 1229 -163 1202 -189 q 1255 -74 1255 -136 l 1255 868 q 1140 997 1255 997 l 346 997 m 1389 -117 q 1352 -253 1389 -212 q 1223 -294 1315 -294 l 346 -294 q 209 -252 252 -294 q 167 -117 167 -210 l 167 868 q 214 1001 167 954 q 346 1047 261 1047 l 1182 1047 q 1334 1003 1279 1047 q 1389 868 1389 958 l 1389 -117 m 722 210 l 510 210 q 501 210 507 210 q 464 212 474 210 q 453 224 454 214 q 464 272 453 257 q 597 467 509 332 q 730 681 685 603 l 730 684 q 782 681 743 681 l 851 684 l 854 681 q 843 525 844 597 l 843 278 l 918 278 q 932 257 932 278 q 922 228 932 246 q 903 210 913 210 l 843 210 q 854 57 843 140 l 851 54 q 782 57 819 57 l 711 54 l 710 57 q 722 210 722 146 m 722 576 l 533 278 l 722 278 l 722 576 z "},"5":{"ha":1527,"x_min":167,"x_max":1389,"o":"m 346 997 q 250 964 283 997 q 216 868 216 930 l 216 -74 q 346 -189 216 -189 l 1140 -189 q 1229 -163 1202 -189 q 1255 -74 1255 -136 l 1255 868 q 1140 997 1255 997 l 346 997 m 1389 -117 q 1352 -253 1389 -212 q 1223 -294 1315 -294 l 346 -294 q 209 -252 252 -294 q 167 -117 167 -210 l 167 868 q 214 1001 167 954 q 346 1047 261 1047 l 1182 1047 q 1334 1003 1279 1047 q 1389 868 1389 958 l 1389 -117 m 675 46 q 507 104 576 46 l 504 109 l 525 191 l 550 192 q 606 119 578 142 q 676 97 633 97 q 746 134 716 97 q 775 241 775 171 q 749 350 775 311 q 675 390 722 390 q 562 366 622 390 l 541 372 l 574 685 q 690 677 664 678 q 882 689 762 677 l 889 686 l 872 583 q 743 578 815 578 q 623 586 692 578 l 607 435 q 703 452 652 452 q 844 395 787 452 q 901 260 901 338 q 837 104 901 161 q 675 46 772 46 z "},"6":{"ha":1527,"x_min":167,"x_max":1389,"o":"m 346 997 q 250 964 283 997 q 216 868 216 930 l 216 -74 q 346 -189 216 -189 l 1140 -189 q 1229 -163 1202 -189 q 1255 -74 1255 -136 l 1255 868 q 1140 997 1255 997 l 346 997 m 1389 -117 q 1352 -253 1389 -212 q 1223 -294 1315 -294 l 346 -294 q 209 -252 252 -294 q 167 -117 167 -210 l 167 868 q 214 1001 167 954 q 346 1047 261 1047 l 1182 1047 q 1334 1003 1279 1047 q 1389 868 1389 958 l 1389 -117 m 633 403 q 730 431 675 431 q 889 375 840 431 q 937 243 937 319 q 884 107 937 168 q 726 47 831 47 q 596 79 646 47 q 497 309 498 140 q 523 434 497 370 q 596 557 549 498 q 726 652 644 615 q 905 689 807 689 l 908 652 q 858 645 879 649 q 796 626 836 642 q 728 587 755 611 q 673 516 700 564 q 633 403 646 468 m 627 353 q 624 306 624 328 q 652 137 624 181 q 730 93 681 93 q 785 129 761 93 q 808 236 808 165 q 808 272 808 257 q 802 309 807 286 q 786 346 796 332 q 757 371 777 359 q 710 382 737 382 q 627 353 663 382 z "},"7":{"ha":1527,"x_min":167,"x_max":1389,"o":"m 346 997 q 250 964 283 997 q 216 868 216 930 l 216 -74 q 346 -189 216 -189 l 1140 -189 q 1229 -163 1202 -189 q 1255 -74 1255 -136 l 1255 868 q 1140 997 1255 997 l 346 997 m 1389 -117 q 1352 -253 1389 -212 q 1223 -294 1315 -294 l 346 -294 q 209 -252 252 -294 q 167 -117 167 -210 l 167 868 q 214 1001 167 954 q 346 1047 261 1047 l 1182 1047 q 1334 1003 1279 1047 q 1389 868 1389 958 l 1389 -117 m 812 586 q 526 576 713 586 q 529 600 526 578 q 532 632 532 623 q 529 661 532 640 q 526 685 526 682 q 838 677 581 678 q 904 686 873 677 l 918 665 q 684 47 778 326 l 593 43 l 590 52 q 812 586 663 215 z "},"8":{"ha":1527,"x_min":167,"x_max":1389,"o":"m 346 997 q 250 964 283 997 q 216 868 216 930 l 216 -74 q 346 -189 216 -189 l 1140 -189 q 1229 -163 1202 -189 q 1255 -74 1255 -136 l 1255 868 q 1140 997 1255 997 l 346 997 m 1389 -117 q 1352 -253 1389 -212 q 1223 -294 1315 -294 l 346 -294 q 209 -252 252 -294 q 167 -117 167 -210 l 167 868 q 214 1001 167 954 q 346 1047 261 1047 l 1182 1047 q 1334 1003 1279 1047 q 1389 868 1389 958 l 1389 -117 m 736 648 q 660 562 659 648 q 724 464 660 504 l 755 444 q 814 550 814 489 q 736 648 814 648 m 924 558 q 892 477 924 509 q 793 419 860 446 l 859 378 q 928 308 900 350 q 956 224 956 267 q 872 79 956 131 q 728 47 818 47 q 576 90 637 47 q 515 208 515 132 q 553 305 515 264 q 667 385 591 346 l 648 395 q 549 542 549 456 q 597 649 549 610 q 743 689 646 689 q 877 653 829 689 q 924 558 924 618 m 729 87 q 808 111 779 87 q 836 203 836 135 q 819 274 836 248 q 753 330 802 301 l 704 359 q 646 292 659 328 q 632 208 632 256 q 662 121 632 154 q 729 87 692 87 z "},"9":{"ha":1527,"x_min":167,"x_max":1389,"o":"m 346 997 q 250 964 283 997 q 216 868 216 930 l 216 -74 q 346 -189 216 -189 l 1140 -189 q 1229 -163 1202 -189 q 1255 -74 1255 -136 l 1255 868 q 1140 997 1255 997 l 346 997 m 1389 -117 q 1352 -253 1389 -212 q 1223 -294 1315 -294 l 346 -294 q 209 -252 252 -294 q 167 -117 167 -210 l 167 868 q 214 1001 167 954 q 346 1047 261 1047 l 1182 1047 q 1334 1003 1279 1047 q 1389 868 1389 958 l 1389 -117 m 814 332 q 717 304 773 304 q 617 321 659 304 q 553 367 575 338 q 520 427 530 395 q 510 492 510 458 q 522 559 510 526 q 558 622 534 592 q 625 669 583 651 q 721 688 667 688 q 852 656 802 688 q 950 427 950 594 q 935 327 950 378 q 886 225 919 275 q 806 135 852 174 q 690 71 759 95 q 542 46 622 46 l 539 83 q 573 87 559 85 q 614 96 587 89 q 662 112 642 102 q 708 140 682 121 q 753 184 734 159 q 789 247 772 209 q 814 332 806 286 m 821 382 q 824 429 824 408 q 815 539 824 495 q 791 605 807 584 q 758 634 774 626 q 717 642 741 642 q 663 606 686 642 q 639 499 639 569 q 640 463 639 477 q 646 426 641 449 q 661 389 651 403 q 690 364 671 375 q 738 353 710 353 q 821 382 785 353 z "}," ":{"ha":347,"x_min":0,"x_max":0,"o":""},"!":{"ha":1527,"x_min":167,"x_max":1389,"o":"m 753 742 q 797 722 778 742 q 817 667 817 703 q 804 562 817 628 q 787 465 791 496 q 770 275 785 448 q 753 254 767 254 q 737 268 737 254 q 731 345 737 273 q 720 465 725 416 q 703 562 715 498 q 690 667 690 625 q 710 723 690 704 q 753 742 729 742 m 685 111 l 685 115 q 749 178 703 160 l 751 178 q 815 115 799 159 l 815 111 q 751 49 795 60 l 749 49 q 707 68 721 54 q 685 111 693 82 m 346 997 q 250 964 283 997 q 216 868 216 930 l 216 -74 q 346 -189 216 -189 l 1140 -189 q 1229 -163 1202 -189 q 1255 -74 1255 -136 l 1255 868 q 1140 997 1255 997 l 346 997 m 1389 -117 q 1352 -253 1389 -212 q 1223 -294 1315 -294 l 346 -294 q 209 -252 252 -294 q 167 -117 167 -210 l 167 868 q 214 1001 167 954 q 346 1047 261 1047 l 1182 1047 q 1334 1003 1279 1047 q 1389 868 1389 958 l 1389 -117 z "},"\"":{"ha":1527,"x_min":167,"x_max":1389,"o":"m 808 555 l 793 559 q 760 732 760 726 q 778 771 760 753 q 828 789 796 789 q 859 783 849 789 q 871 769 869 777 q 873 750 873 762 l 836 562 l 808 555 m 650 554 l 635 558 q 602 730 602 725 q 620 769 602 751 q 669 787 637 787 q 701 781 690 787 q 713 768 711 775 q 715 749 715 761 l 677 561 l 650 554 m 346 997 q 250 964 283 997 q 216 868 216 930 l 216 -74 q 346 -189 216 -189 l 1140 -189 q 1229 -163 1202 -189 q 1255 -74 1255 -136 l 1255 868 q 1140 997 1255 997 l 346 997 m 1389 -117 q 1352 -253 1389 -212 q 1223 -294 1315 -294 l 346 -294 q 209 -252 252 -294 q 167 -117 167 -210 l 167 868 q 214 1001 167 954 q 346 1047 261 1047 l 1182 1047 q 1334 1003 1279 1047 q 1389 868 1389 958 l 1389 -117 z "},"#":{"ha":1527,"x_min":167,"x_max":1389,"o":"m 778 319 l 794 422 l 721 422 q 703 319 714 378 l 778 319 m 865 422 l 848 319 l 950 319 l 942 261 l 840 261 q 831 205 838 241 q 820 140 825 170 q 811 86 815 111 l 742 86 l 770 261 l 694 261 q 681 176 690 236 q 667 86 672 117 l 593 86 l 619 261 l 528 261 l 536 319 l 629 319 q 646 422 642 382 l 553 422 l 562 482 l 656 482 q 684 656 669 566 l 758 656 l 728 482 l 803 482 q 816 568 807 509 q 831 656 825 627 l 901 656 l 875 482 l 975 482 l 966 422 l 865 422 m 346 997 q 250 964 283 997 q 216 868 216 930 l 216 -74 q 346 -189 216 -189 l 1140 -189 q 1229 -163 1202 -189 q 1255 -74 1255 -136 l 1255 868 q 1140 997 1255 997 l 346 997 m 1389 -117 q 1352 -253 1389 -212 q 1223 -294 1315 -294 l 346 -294 q 209 -252 252 -294 q 167 -117 167 -210 l 167 868 q 214 1001 167 954 q 346 1047 261 1047 l 1182 1047 q 1334 1003 1279 1047 q 1389 868 1389 958 l 1389 -117 z "},"$":{"ha":1527,"x_min":167,"x_max":1389,"o":"m 346 997 q 250 964 283 997 q 216 868 216 930 l 216 -74 q 346 -189 216 -189 l 1140 -189 q 1229 -163 1202 -189 q 1255 -74 1255 -136 l 1255 868 q 1140 997 1255 997 l 346 997 m 1389 -117 q 1352 -253 1389 -212 q 1223 -294 1315 -294 l 346 -294 q 209 -252 252 -294 q 167 -117 167 -210 l 167 868 q 214 1001 167 954 q 346 1047 261 1047 l 1182 1047 q 1334 1003 1279 1047 q 1389 868 1389 958 l 1389 -117 m 736 115 l 736 342 q 672 370 699 357 q 615 405 646 383 q 568 455 584 427 q 551 517 551 483 q 607 623 551 583 q 736 671 662 663 l 736 729 l 781 729 l 781 672 q 864 661 825 671 q 918 641 902 650 l 933 632 l 936 629 q 918 521 924 588 l 908 521 q 856 588 891 559 q 781 625 821 617 l 781 420 q 844 394 819 406 q 903 361 869 382 q 954 311 936 340 q 971 245 971 281 q 916 130 971 178 q 781 71 861 83 l 781 -7 l 736 -7 l 736 66 l 733 66 q 641 77 687 66 q 571 98 595 87 l 547 109 l 546 111 q 564 221 558 161 l 572 221 q 641 149 591 181 q 736 115 690 117 m 736 437 l 736 625 q 660 541 659 614 q 736 437 659 473 m 781 323 l 781 119 q 854 212 854 136 q 836 283 854 260 q 781 323 818 307 z "},"%":{"ha":1527,"x_min":167,"x_max":1389,"o":"m 884 147 q 894 100 884 118 q 920 82 904 82 q 983 132 957 82 q 1008 231 1008 182 q 966 290 1008 290 q 909 242 935 290 q 884 147 884 195 m 812 163 q 851 278 812 229 q 956 328 889 328 q 1051 233 1051 328 q 1013 101 1051 154 q 913 47 974 47 q 839 79 865 47 q 812 163 812 111 m 802 608 q 958 661 910 608 l 1007 639 l 579 52 l 522 64 l 904 586 q 791 561 842 561 q 714 583 753 561 q 717 561 717 575 q 676 434 717 490 q 572 378 636 378 q 478 490 478 378 q 518 607 478 558 q 621 656 558 656 q 690 635 672 656 q 802 608 746 608 m 550 476 q 560 429 550 447 q 583 411 570 411 q 645 461 618 411 q 672 561 672 511 q 632 619 672 619 q 573 573 596 619 q 550 476 550 526 m 346 997 q 250 964 283 997 q 216 868 216 930 l 216 -74 q 346 -189 216 -189 l 1140 -189 q 1229 -163 1202 -189 q 1255 -74 1255 -136 l 1255 868 q 1140 997 1255 997 l 346 997 m 1389 -117 q 1352 -253 1389 -212 q 1223 -294 1315 -294 l 346 -294 q 209 -252 252 -294 q 167 -117 167 -210 l 167 868 q 214 1001 167 954 q 346 1047 261 1047 l 1182 1047 q 1334 1003 1279 1047 q 1389 868 1389 958 l 1389 -117 z "},"&":{"ha":1527,"x_min":167,"x_max":1389,"o":"m 686 603 q 729 496 686 555 q 773 532 758 519 q 803 566 789 545 q 818 607 818 587 q 755 696 818 696 q 706 672 726 696 q 686 603 686 649 m 817 184 q 668 393 694 351 q 590 321 611 357 q 568 235 568 285 q 599 130 568 170 q 671 90 629 90 q 747 112 713 90 q 817 184 781 133 m 875 275 q 964 507 951 395 q 1021 504 975 505 q 1079 507 1069 504 q 996 361 1063 482 q 917 221 929 240 q 929 200 921 214 q 942 178 937 186 q 955 158 947 170 q 969 139 962 146 q 982 125 975 132 q 996 115 989 118 q 1010 111 1003 111 q 1049 123 1034 111 q 1083 171 1065 135 l 1117 147 q 1054 67 1084 86 q 983 47 1023 47 q 918 66 945 47 q 854 139 890 85 q 663 47 770 47 q 504 87 563 47 q 446 214 446 127 q 488 322 446 273 q 646 437 530 371 q 582 600 582 536 q 633 695 582 652 q 766 739 684 739 q 877 708 838 739 q 916 616 916 676 q 872 531 916 578 q 761 446 829 485 q 875 275 789 395 m 346 997 q 250 964 283 997 q 216 868 216 930 l 216 -74 q 346 -189 216 -189 l 1140 -189 q 1229 -163 1202 -189 q 1255 -74 1255 -136 l 1255 868 q 1140 997 1255 997 l 346 997 m 1389 -117 q 1352 -253 1389 -212 q 1223 -294 1315 -294 l 346 -294 q 209 -252 252 -294 q 167 -117 167 -210 l 167 868 q 214 1001 167 954 q 346 1047 261 1047 l 1182 1047 q 1334 1003 1279 1047 q 1389 868 1389 958 l 1389 -117 z "},"'":{"ha":1527,"x_min":167,"x_max":1389,"o":"m 722 554 l 707 558 q 673 730 673 725 q 692 769 673 751 q 742 787 710 787 q 773 781 763 787 q 785 768 783 775 q 787 749 787 761 l 750 561 l 722 554 m 346 997 q 250 964 283 997 q 216 868 216 930 l 216 -74 q 346 -189 216 -189 l 1140 -189 q 1229 -163 1202 -189 q 1255 -74 1255 -136 l 1255 868 q 1140 997 1255 997 l 346 997 m 1389 -117 q 1352 -253 1389 -212 q 1223 -294 1315 -294 l 346 -294 q 209 -252 252 -294 q 167 -117 167 -210 l 167 868 q 214 1001 167 954 q 346 1047 261 1047 l 1182 1047 q 1334 1003 1279 1047 q 1389 868 1389 958 l 1389 -117 z "},"(":{"ha":1527,"x_min":167,"x_max":1389,"o":"m 607 350 q 678 608 607 476 q 847 823 749 739 l 880 794 q 733 350 733 629 q 880 -97 733 73 l 847 -125 q 698 54 755 -45 q 624 223 640 154 q 607 350 607 293 m 346 997 q 250 964 283 997 q 216 868 216 930 l 216 -74 q 346 -189 216 -189 l 1140 -189 q 1229 -163 1202 -189 q 1255 -74 1255 -136 l 1255 868 q 1140 997 1255 997 l 346 997 m 1389 -117 q 1352 -253 1389 -212 q 1223 -294 1315 -294 l 346 -294 q 209 -252 252 -294 q 167 -117 167 -210 l 167 868 q 214 1001 167 954 q 346 1047 261 1047 l 1182 1047 q 1334 1003 1279 1047 q 1389 868 1389 958 l 1389 -117 z "},")":{"ha":1527,"x_min":167,"x_max":1389,"o":"m 921 350 q 904 223 921 293 q 830 54 888 154 q 681 -125 772 -46 l 647 -97 q 794 350 794 74 q 647 794 794 629 l 681 823 q 850 607 779 739 q 921 350 921 476 m 346 997 q 250 964 283 997 q 216 868 216 930 l 216 -74 q 346 -189 216 -189 l 1140 -189 q 1229 -163 1202 -189 q 1255 -74 1255 -136 l 1255 868 q 1140 997 1255 997 l 346 997 m 1389 -117 q 1352 -253 1389 -212 q 1223 -294 1315 -294 l 346 -294 q 209 -252 252 -294 q 167 -117 167 -210 l 167 868 q 214 1001 167 954 q 346 1047 261 1047 l 1182 1047 q 1334 1003 1279 1047 q 1389 868 1389 958 l 1389 -117 z "},"*":{"ha":1527,"x_min":167,"x_max":1389,"o":"m 724 612 q 682 616 684 616 q 623 615 648 607 q 597 656 597 624 q 606 679 597 668 q 632 689 615 689 q 682 666 652 689 q 730 635 711 643 q 713 687 728 657 q 699 729 699 717 q 711 759 699 746 q 739 771 724 771 q 767 761 754 771 q 781 733 781 750 q 768 685 781 720 q 754 635 755 650 q 803 667 777 643 q 847 692 829 692 q 878 680 868 692 q 888 656 888 668 q 815 614 888 614 q 760 611 778 614 q 796 585 772 597 q 834 559 821 572 q 848 522 848 546 q 838 501 848 510 q 815 492 827 492 q 780 508 791 492 q 759 553 768 524 q 741 597 749 583 q 725 551 732 582 q 707 506 718 521 q 668 492 696 492 q 647 500 656 492 q 637 521 637 509 q 651 559 637 546 q 688 585 664 572 q 724 612 711 597 m 346 997 q 250 964 283 997 q 216 868 216 930 l 216 -74 q 346 -189 216 -189 l 1140 -189 q 1229 -163 1202 -189 q 1255 -74 1255 -136 l 1255 868 q 1140 997 1255 997 l 346 997 m 1389 -117 q 1352 -253 1389 -212 q 1223 -294 1315 -294 l 346 -294 q 209 -252 252 -294 q 167 -117 167 -210 l 167 868 q 214 1001 167 954 q 346 1047 261 1047 l 1182 1047 q 1334 1003 1279 1047 q 1389 868 1389 958 l 1389 -117 z "},"+":{"ha":1527,"x_min":167,"x_max":1389,"o":"m 790 361 l 968 361 l 968 283 l 790 283 l 790 114 l 713 114 l 713 283 l 534 283 l 534 361 l 713 361 l 713 532 l 790 532 l 790 361 m 346 997 q 250 964 283 997 q 216 868 216 930 l 216 -74 q 346 -189 216 -189 l 1140 -189 q 1229 -163 1202 -189 q 1255 -74 1255 -136 l 1255 868 q 1140 997 1255 997 l 346 997 m 1389 -117 q 1352 -253 1389 -212 q 1223 -294 1315 -294 l 346 -294 q 209 -252 252 -294 q 167 -117 167 -210 l 167 868 q 214 1001 167 954 q 346 1047 261 1047 l 1182 1047 q 1334 1003 1279 1047 q 1389 868 1389 958 l 1389 -117 z "},",":{"ha":1527,"x_min":167,"x_max":1389,"o":"m 679 45 l 679 50 q 741 111 696 93 l 746 111 q 819 -8 820 83 q 778 -107 819 -65 q 682 -158 737 -149 q 676 -131 670 -149 q 746 -90 718 -120 q 774 -39 774 -60 q 741 -8 774 -8 q 699 8 713 -3 q 679 45 686 18 m 346 997 q 250 964 283 997 q 216 868 216 930 l 216 -74 q 346 -189 216 -189 l 1140 -189 q 1229 -163 1202 -189 q 1255 -74 1255 -136 l 1255 868 q 1140 997 1255 997 l 346 997 m 1389 -117 q 1352 -253 1389 -212 q 1223 -294 1315 -294 l 346 -294 q 209 -252 252 -294 q 167 -117 167 -210 l 167 868 q 214 1001 167 954 q 346 1047 261 1047 l 1182 1047 q 1334 1003 1279 1047 q 1389 868 1389 958 l 1389 -117 z "},"-":{"ha":1527,"x_min":167,"x_max":1389,"o":"m 871 322 l 595 322 q 578 340 578 322 q 587 376 578 354 q 604 397 596 397 l 885 397 q 900 375 901 397 q 890 343 900 364 q 871 322 880 322 m 346 997 q 250 964 283 997 q 216 868 216 930 l 216 -74 q 346 -189 216 -189 l 1140 -189 q 1229 -163 1202 -189 q 1255 -74 1255 -136 l 1255 868 q 1140 997 1255 997 l 346 997 m 1389 -117 q 1352 -253 1389 -212 q 1223 -294 1315 -294 l 346 -294 q 209 -252 252 -294 q 167 -117 167 -210 l 167 868 q 214 1001 167 954 q 346 1047 261 1047 l 1182 1047 q 1334 1003 1279 1047 q 1389 868 1389 958 l 1389 -117 z "},".":{"ha":1527,"x_min":167,"x_max":1389,"o":"m 639 110 l 639 114 q 703 176 657 159 l 705 176 q 770 114 753 158 l 770 110 q 705 47 750 58 l 703 47 q 661 67 675 53 q 639 110 647 81 m 346 997 q 250 964 283 997 q 216 868 216 930 l 216 -74 q 346 -189 216 -189 l 1140 -189 q 1229 -163 1202 -189 q 1255 -74 1255 -136 l 1255 868 q 1140 997 1255 997 l 346 997 m 1389 -117 q 1352 -253 1389 -212 q 1223 -294 1315 -294 l 346 -294 q 209 -252 252 -294 q 167 -117 167 -210 l 167 868 q 214 1001 167 954 q 346 1047 261 1047 l 1182 1047 q 1334 1003 1279 1047 q 1389 868 1389 958 l 1389 -117 z "},"/":{"ha":1527,"x_min":167,"x_max":1389,"o":"m 896 775 l 648 40 l 586 40 l 833 775 l 896 775 m 346 997 q 250 964 283 997 q 216 868 216 930 l 216 -74 q 346 -189 216 -189 l 1140 -189 q 1229 -163 1202 -189 q 1255 -74 1255 -136 l 1255 868 q 1140 997 1255 997 l 346 997 m 1389 -117 q 1352 -253 1389 -212 q 1223 -294 1315 -294 l 346 -294 q 209 -252 252 -294 q 167 -117 167 -210 l 167 868 q 214 1001 167 954 q 346 1047 261 1047 l 1182 1047 q 1334 1003 1279 1047 q 1389 868 1389 958 l 1389 -117 z "},":":{"ha":1527,"x_min":167,"x_max":1389,"o":"m 676 407 l 676 411 q 743 476 694 458 l 746 476 q 812 411 796 458 l 812 407 q 746 342 793 353 l 743 342 q 699 362 714 347 q 676 407 684 378 m 676 113 l 676 117 q 743 182 694 164 l 746 182 q 812 117 796 163 l 812 113 q 746 47 793 58 l 743 47 q 699 68 714 53 q 676 113 684 83 m 346 997 q 250 964 283 997 q 216 868 216 930 l 216 -74 q 346 -189 216 -189 l 1140 -189 q 1229 -163 1202 -189 q 1255 -74 1255 -136 l 1255 868 q 1140 997 1255 997 l 346 997 m 1389 -117 q 1352 -253 1389 -212 q 1223 -294 1315 -294 l 346 -294 q 209 -252 252 -294 q 167 -117 167 -210 l 167 868 q 214 1001 167 954 q 346 1047 261 1047 l 1182 1047 q 1334 1003 1279 1047 q 1389 868 1389 958 l 1389 -117 z "},";":{"ha":1527,"x_min":167,"x_max":1389,"o":"m 653 407 l 653 411 q 720 476 671 458 l 722 476 q 789 411 772 458 l 789 407 q 722 340 769 351 l 720 340 q 653 407 669 351 m 648 110 l 648 115 q 713 180 665 161 l 718 180 q 796 54 796 150 q 752 -49 796 -5 q 652 -103 708 -93 q 644 -74 638 -92 q 717 -31 687 -62 q 747 22 747 0 q 713 54 747 54 q 669 71 684 60 q 648 110 655 82 m 346 997 q 250 964 283 997 q 216 868 216 930 l 216 -74 q 346 -189 216 -189 l 1140 -189 q 1229 -163 1202 -189 q 1255 -74 1255 -136 l 1255 868 q 1140 997 1255 997 l 346 997 m 1389 -117 q 1352 -253 1389 -212 q 1223 -294 1315 -294 l 346 -294 q 209 -252 252 -294 q 167 -117 167 -210 l 167 868 q 214 1001 167 954 q 346 1047 261 1047 l 1182 1047 q 1334 1003 1279 1047 q 1389 868 1389 958 l 1389 -117 z "},"<":{"ha":1527,"x_min":167,"x_max":1389,"o":"m 610 334 l 940 212 l 940 147 l 494 311 l 494 355 l 940 519 l 940 454 l 610 334 m 346 997 q 250 964 283 997 q 216 868 216 930 l 216 -74 q 346 -189 216 -189 l 1140 -189 q 1229 -163 1202 -189 q 1255 -74 1255 -136 l 1255 868 q 1140 997 1255 997 l 346 997 m 1389 -117 q 1352 -253 1389 -212 q 1223 -294 1315 -294 l 346 -294 q 209 -252 252 -294 q 167 -117 167 -210 l 167 868 q 214 1001 167 954 q 346 1047 261 1047 l 1182 1047 q 1334 1003 1279 1047 q 1389 868 1389 958 l 1389 -117 z "},"=":{"ha":1527,"x_min":167,"x_max":1389,"o":"m 974 288 l 974 229 l 521 229 l 521 288 l 974 288 m 974 416 l 974 358 l 521 358 l 521 416 l 974 416 m 346 997 q 250 964 283 997 q 216 868 216 930 l 216 -74 q 346 -189 216 -189 l 1140 -189 q 1229 -163 1202 -189 q 1255 -74 1255 -136 l 1255 868 q 1140 997 1255 997 l 346 997 m 1389 -117 q 1352 -253 1389 -212 q 1223 -294 1315 -294 l 346 -294 q 209 -252 252 -294 q 167 -117 167 -210 l 167 868 q 214 1001 167 954 q 346 1047 261 1047 l 1182 1047 q 1334 1003 1279 1047 q 1389 868 1389 958 l 1389 -117 z "},">":{"ha":1527,"x_min":167,"x_max":1389,"o":"m 879 330 l 550 452 l 550 517 l 996 353 l 996 307 l 550 144 l 550 210 l 879 330 m 346 997 q 250 964 283 997 q 216 868 216 930 l 216 -74 q 346 -189 216 -189 l 1140 -189 q 1229 -163 1202 -189 q 1255 -74 1255 -136 l 1255 868 q 1140 997 1255 997 l 346 997 m 1389 -117 q 1352 -253 1389 -212 q 1223 -294 1315 -294 l 346 -294 q 209 -252 252 -294 q 167 -117 167 -210 l 167 868 q 214 1001 167 954 q 346 1047 261 1047 l 1182 1047 q 1334 1003 1279 1047 q 1389 868 1389 958 l 1389 -117 z "},"?":{"ha":1527,"x_min":167,"x_max":1389,"o":"m 736 694 q 608 597 662 694 l 595 599 l 578 677 l 581 682 q 746 746 661 746 q 882 702 827 746 q 937 589 937 659 q 930 550 937 569 q 915 518 924 532 q 889 489 907 505 q 863 466 872 473 q 833 444 854 458 q 807 425 811 429 q 745 297 745 379 l 745 257 q 736 246 745 252 q 721 240 728 240 q 706 246 714 240 q 697 257 697 252 l 697 298 q 777 467 697 394 q 812 517 806 493 q 819 585 819 542 q 736 694 819 694 m 663 113 l 663 117 q 726 179 681 161 l 729 179 q 793 117 777 161 l 793 113 q 729 50 773 61 l 726 50 q 685 70 699 56 q 663 113 671 83 m 346 997 q 250 964 283 997 q 216 868 216 930 l 216 -74 q 346 -189 216 -189 l 1140 -189 q 1229 -163 1202 -189 q 1255 -74 1255 -136 l 1255 868 q 1140 997 1255 997 l 346 997 m 1389 -117 q 1352 -253 1389 -212 q 1223 -294 1315 -294 l 346 -294 q 209 -252 252 -294 q 167 -117 167 -210 l 167 868 q 214 1001 167 954 q 346 1047 261 1047 l 1182 1047 q 1334 1003 1279 1047 q 1389 868 1389 958 l 1389 -117 z "},"@":{"ha":1527,"x_min":167,"x_max":1389,"o":"m 864 428 q 849 473 864 454 q 812 492 833 492 q 729 452 766 492 q 664 265 664 382 q 722 170 664 170 q 783 201 750 170 q 835 294 815 233 q 864 428 864 399 m 900 172 q 918 157 900 157 q 1015 218 960 157 q 1071 378 1071 279 q 1040 525 1071 460 q 960 627 1008 590 q 859 683 911 664 q 758 703 807 703 q 526 603 626 703 q 427 332 427 503 q 446 210 427 271 q 505 93 465 149 q 615 3 545 37 q 777 -32 685 -32 q 994 46 899 -32 q 1017 16 1011 41 q 901 -51 958 -29 q 755 -72 844 -72 q 449 38 570 -72 q 329 323 329 147 q 453 616 329 492 q 768 741 576 741 q 1051 642 942 741 q 1160 393 1160 543 q 1081 199 1160 283 q 897 114 1002 114 q 827 133 848 114 q 806 174 806 151 q 696 125 754 125 q 625 139 653 125 q 584 176 596 153 q 567 219 571 200 q 562 258 562 237 q 640 447 562 368 q 810 526 717 526 q 908 486 875 526 l 946 521 l 975 510 l 913 240 q 900 172 900 180 m 346 997 q 250 964 283 997 q 216 868 216 930 l 216 -74 q 346 -189 216 -189 l 1140 -189 q 1229 -163 1202 -189 q 1255 -74 1255 -136 l 1255 868 q 1140 997 1255 997 l 346 997 m 1389 -117 q 1352 -253 1389 -212 q 1223 -294 1315 -294 l 346 -294 q 209 -252 252 -294 q 167 -117 167 -210 l 167 868 q 214 1001 167 954 q 346 1047 261 1047 l 1182 1047 q 1334 1003 1279 1047 q 1389 868 1389 958 l 1389 -117 z "},"A":{"ha":1527,"x_min":167,"x_max":1389,"o":"m 346 997 q 250 964 283 997 q 216 868 216 930 l 216 -74 q 346 -189 216 -189 l 1140 -189 q 1229 -163 1202 -189 q 1255 -74 1255 -136 l 1255 868 q 1140 997 1255 997 l 346 997 m 1389 -117 q 1352 -253 1389 -212 q 1223 -294 1315 -294 l 346 -294 q 209 -252 252 -294 q 167 -117 167 -210 l 167 868 q 214 1001 167 954 q 346 1047 261 1047 l 1182 1047 q 1334 1003 1279 1047 q 1389 868 1389 958 l 1389 -117 m 712 576 q 612 345 637 402 q 666 343 627 345 q 721 342 705 342 q 808 343 753 342 q 712 576 766 453 m 588 285 q 505 54 527 134 q 458 57 493 57 q 400 54 412 57 q 707 742 550 379 l 781 742 q 881 496 817 656 q 995 218 946 336 q 1065 54 1043 100 q 981 57 1047 57 q 907 54 925 57 q 829 286 883 141 q 726 288 761 288 q 588 285 665 288 z "},"B":{"ha":1527,"x_min":167,"x_max":1389,"o":"m 625 629 l 625 447 l 700 447 q 792 470 766 447 q 818 557 818 493 q 791 653 818 631 q 714 676 765 676 q 640 667 654 676 q 625 629 625 659 m 625 392 l 625 157 q 642 119 625 130 q 710 109 659 109 q 837 136 807 109 q 867 228 867 164 q 834 350 867 307 q 717 392 802 392 l 625 392 m 558 728 q 641 730 590 728 q 707 732 692 732 q 895 683 838 732 q 953 570 953 635 q 925 490 953 528 q 856 432 897 452 q 1014 249 1014 386 q 943 112 1014 171 q 729 53 872 53 q 634 55 680 53 q 558 57 589 57 l 484 53 l 482 57 q 492 265 492 122 l 492 519 q 482 728 492 660 l 484 732 q 558 728 524 728 m 346 997 q 250 964 283 997 q 216 868 216 930 l 216 -74 q 346 -189 216 -189 l 1140 -189 q 1229 -163 1202 -189 q 1255 -74 1255 -136 l 1255 868 q 1140 997 1255 997 l 346 997 m 1389 -117 q 1352 -253 1389 -212 q 1223 -294 1315 -294 l 346 -294 q 209 -252 252 -294 q 167 -117 167 -210 l 167 868 q 214 1001 167 954 q 346 1047 261 1047 l 1182 1047 q 1334 1003 1279 1047 q 1389 868 1389 958 l 1389 -117 z "},"C":{"ha":1527,"x_min":167,"x_max":1389,"o":"m 765 742 q 880 731 821 742 q 972 707 940 720 l 1003 696 l 1006 692 q 985 557 987 623 l 960 555 q 750 681 897 680 q 615 615 673 681 q 557 406 557 550 q 608 202 557 282 q 764 122 660 122 q 897 145 840 122 q 1006 227 953 168 l 1029 187 q 900 84 978 121 q 745 47 822 47 q 494 145 582 47 q 406 397 406 243 q 509 647 406 553 q 765 742 612 742 m 346 997 q 250 964 283 997 q 216 868 216 930 l 216 -74 q 346 -189 216 -189 l 1140 -189 q 1229 -163 1202 -189 q 1255 -74 1255 -136 l 1255 868 q 1140 997 1255 997 l 346 997 m 1389 -117 q 1352 -253 1389 -212 q 1223 -294 1315 -294 l 346 -294 q 209 -252 252 -294 q 167 -117 167 -210 l 167 868 q 214 1001 167 954 q 346 1047 261 1047 l 1182 1047 q 1334 1003 1279 1047 q 1389 868 1389 958 l 1389 -117 z "},"D":{"ha":1527,"x_min":167,"x_max":1389,"o":"m 574 151 q 593 117 574 125 q 688 110 612 110 q 871 158 811 110 q 932 353 932 205 q 661 676 932 676 q 595 668 616 676 q 574 635 574 660 l 574 151 m 507 728 q 604 730 546 728 q 700 732 663 732 q 967 626 851 732 q 1083 378 1083 521 q 1048 219 1083 286 q 956 119 1013 153 q 840 70 899 85 q 720 54 781 54 q 604 56 663 54 q 507 57 546 57 l 431 53 l 429 57 q 440 265 440 131 l 440 519 q 429 728 440 650 l 432 732 q 507 728 471 728 m 346 997 q 250 964 283 997 q 216 868 216 930 l 216 -74 q 346 -189 216 -189 l 1140 -189 q 1229 -163 1202 -189 q 1255 -74 1255 -136 l 1255 868 q 1140 997 1255 997 l 346 997 m 1389 -117 q 1352 -253 1389 -212 q 1223 -294 1315 -294 l 346 -294 q 209 -252 252 -294 q 167 -117 167 -210 l 167 868 q 214 1001 167 954 q 346 1047 261 1047 l 1182 1047 q 1334 1003 1279 1047 q 1389 868 1389 958 l 1389 -117 z "},"E":{"ha":1527,"x_min":167,"x_max":1389,"o":"m 629 265 q 637 122 629 153 q 773 125 700 122 q 890 132 847 127 l 932 135 l 933 131 q 932 113 933 127 q 932 94 932 100 q 932 76 932 89 q 933 57 933 64 l 932 53 q 869 57 907 57 l 562 57 l 486 53 l 486 57 q 496 265 496 122 l 496 519 q 486 728 496 660 l 488 732 q 562 728 528 728 l 859 728 q 921 732 896 728 l 924 728 q 921 692 921 700 q 924 660 921 676 l 921 656 q 637 668 778 668 q 629 519 629 637 l 629 439 q 861 449 718 439 l 865 446 q 861 412 861 432 q 865 378 861 391 l 861 375 q 629 386 747 386 l 629 265 m 346 997 q 250 964 283 997 q 216 868 216 930 l 216 -74 q 346 -189 216 -189 l 1140 -189 q 1229 -163 1202 -189 q 1255 -74 1255 -136 l 1255 868 q 1140 997 1255 997 l 346 997 m 1389 -117 q 1352 -253 1389 -212 q 1223 -294 1315 -294 l 346 -294 q 209 -252 252 -294 q 167 -117 167 -210 l 167 868 q 214 1001 167 954 q 346 1047 261 1047 l 1182 1047 q 1334 1003 1279 1047 q 1389 868 1389 958 l 1389 -117 z "},"F":{"ha":1527,"x_min":167,"x_max":1389,"o":"m 871 728 q 936 732 911 728 l 939 728 q 936 692 936 700 q 939 660 936 676 l 936 656 q 653 668 791 668 q 644 519 645 637 l 644 439 q 876 449 733 439 l 880 446 q 876 412 876 432 q 880 378 876 391 l 876 375 q 644 386 762 386 l 644 265 q 656 57 644 134 l 653 53 q 578 57 614 57 q 501 53 578 57 l 500 57 q 511 265 511 131 l 511 519 q 500 728 511 650 l 503 732 q 578 728 541 728 l 871 728 m 346 997 q 250 964 283 997 q 216 868 216 930 l 216 -74 q 346 -189 216 -189 l 1140 -189 q 1229 -163 1202 -189 q 1255 -74 1255 -136 l 1255 868 q 1140 997 1255 997 l 346 997 m 1389 -117 q 1352 -253 1389 -212 q 1223 -294 1315 -294 l 346 -294 q 209 -252 252 -294 q 167 -117 167 -210 l 167 868 q 214 1001 167 954 q 346 1047 261 1047 l 1182 1047 q 1334 1003 1279 1047 q 1389 868 1389 958 l 1389 -117 z "},"G":{"ha":1527,"x_min":167,"x_max":1389,"o":"m 922 179 q 913 376 922 307 l 914 380 q 989 376 954 376 q 1065 380 989 376 l 1065 376 q 1055 200 1056 314 q 1065 143 1055 159 l 1065 140 q 760 47 954 47 q 498 146 589 47 q 408 390 408 245 q 509 650 408 558 q 779 742 610 742 q 897 731 835 742 q 994 707 960 720 l 1028 696 l 1031 692 q 1010 557 1013 623 l 983 555 q 894 652 951 619 q 764 685 836 685 q 613 609 668 685 q 558 397 558 533 q 783 104 558 104 q 922 143 882 104 l 922 179 m 346 997 q 250 964 283 997 q 216 868 216 930 l 216 -74 q 346 -189 216 -189 l 1140 -189 q 1229 -163 1202 -189 q 1255 -74 1255 -136 l 1255 868 q 1140 997 1255 997 l 346 997 m 1389 -117 q 1352 -253 1389 -212 q 1223 -294 1315 -294 l 346 -294 q 209 -252 252 -294 q 167 -117 167 -210 l 167 868 q 214 1001 167 954 q 346 1047 261 1047 l 1182 1047 q 1334 1003 1279 1047 q 1389 868 1389 958 l 1389 -117 z "},"H":{"ha":1527,"x_min":167,"x_max":1389,"o":"m 880 519 q 869 728 880 650 l 872 732 q 947 728 911 728 q 1023 732 947 728 l 1025 728 q 1014 519 1014 656 l 1014 265 q 1025 57 1014 134 l 1022 53 q 947 57 983 57 q 871 53 947 57 l 869 57 q 880 265 880 131 l 880 380 l 589 380 l 589 265 q 600 57 589 134 l 597 53 q 522 57 559 57 q 446 53 522 57 l 444 57 q 456 265 455 131 l 456 519 q 444 728 456 650 l 447 732 q 522 728 486 728 q 599 732 522 728 l 600 728 q 589 519 589 656 l 589 435 l 880 435 l 880 519 m 346 997 q 250 964 283 997 q 216 868 216 930 l 216 -74 q 346 -189 216 -189 l 1140 -189 q 1229 -163 1202 -189 q 1255 -74 1255 -136 l 1255 868 q 1140 997 1255 997 l 346 997 m 1389 -117 q 1352 -253 1389 -212 q 1223 -294 1315 -294 l 346 -294 q 209 -252 252 -294 q 167 -117 167 -210 l 167 868 q 214 1001 167 954 q 346 1047 261 1047 l 1182 1047 q 1334 1003 1279 1047 q 1389 868 1389 958 l 1389 -117 z "},"I":{"ha":1527,"x_min":167,"x_max":1389,"o":"m 669 519 q 659 728 669 650 l 661 732 q 736 728 700 728 q 812 732 736 728 l 814 728 q 803 519 803 656 l 803 265 q 814 57 803 134 l 811 53 q 736 57 772 57 q 660 53 736 57 l 659 57 q 669 265 669 131 l 669 519 m 346 997 q 250 964 283 997 q 216 868 216 930 l 216 -74 q 346 -189 216 -189 l 1140 -189 q 1229 -163 1202 -189 q 1255 -74 1255 -136 l 1255 868 q 1140 997 1255 997 l 346 997 m 1389 -117 q 1352 -253 1389 -212 q 1223 -294 1315 -294 l 346 -294 q 209 -252 252 -294 q 167 -117 167 -210 l 167 868 q 214 1001 167 954 q 346 1047 261 1047 l 1182 1047 q 1334 1003 1279 1047 q 1389 868 1389 958 l 1389 -117 z "},"J":{"ha":1527,"x_min":167,"x_max":1389,"o":"m 713 307 l 713 519 q 703 728 713 659 l 704 730 q 779 728 744 728 q 856 730 779 728 l 857 728 q 846 519 846 654 l 846 329 q 836 186 846 227 q 781 98 827 144 q 616 47 730 47 q 515 64 549 47 l 514 68 q 534 164 522 83 l 566 165 q 625 118 591 118 q 674 133 654 118 q 701 180 693 149 q 710 238 708 211 q 713 307 713 264 m 346 997 q 250 964 283 997 q 216 868 216 930 l 216 -74 q 346 -189 216 -189 l 1140 -189 q 1229 -163 1202 -189 q 1255 -74 1255 -136 l 1255 868 q 1140 997 1255 997 l 346 997 m 1389 -117 q 1352 -253 1389 -212 q 1223 -294 1315 -294 l 346 -294 q 209 -252 252 -294 q 167 -117 167 -210 l 167 868 q 214 1001 167 954 q 346 1047 261 1047 l 1182 1047 q 1334 1003 1279 1047 q 1389 868 1389 958 l 1389 -117 z "},"K":{"ha":1527,"x_min":167,"x_max":1389,"o":"m 475 521 q 464 729 475 652 l 467 733 q 542 729 505 729 q 618 733 542 729 l 619 729 q 608 521 608 657 l 608 423 q 623 431 616 426 q 693 499 654 458 q 758 570 732 541 q 831 654 783 599 q 899 733 879 710 q 981 729 911 729 q 1054 733 1038 729 q 737 427 840 546 l 737 425 l 1065 54 q 979 58 1044 58 q 884 54 901 58 q 788 177 850 96 q 681 314 725 258 q 619 387 637 370 q 608 393 615 390 l 608 267 q 619 58 608 136 l 616 54 q 542 58 578 58 l 465 54 l 464 58 q 475 267 475 132 l 475 521 m 346 997 q 250 964 283 997 q 216 868 216 930 l 216 -74 q 346 -189 216 -189 l 1140 -189 q 1229 -163 1202 -189 q 1255 -74 1255 -136 l 1255 868 q 1140 997 1255 997 l 346 997 m 1389 -117 q 1352 -253 1389 -212 q 1223 -294 1315 -294 l 346 -294 q 209 -252 252 -294 q 167 -117 167 -210 l 167 868 q 214 1001 167 954 q 346 1047 261 1047 l 1182 1047 q 1334 1003 1279 1047 q 1389 868 1389 958 l 1389 -117 z "},"L":{"ha":1527,"x_min":167,"x_max":1389,"o":"m 681 265 q 689 122 681 153 q 825 125 751 122 q 941 132 899 127 l 983 135 l 985 131 q 983 96 983 123 q 985 57 983 71 l 983 53 q 921 57 958 57 l 614 57 l 538 53 l 538 57 q 547 265 547 122 l 547 519 q 536 728 547 650 l 538 732 q 614 728 579 728 l 690 732 l 692 728 q 681 519 681 656 l 681 265 m 346 997 q 250 964 283 997 q 216 868 216 930 l 216 -74 q 346 -189 216 -189 l 1140 -189 q 1229 -163 1202 -189 q 1255 -74 1255 -136 l 1255 868 q 1140 997 1255 997 l 346 997 m 1389 -117 q 1352 -253 1389 -212 q 1223 -294 1315 -294 l 346 -294 q 209 -252 252 -294 q 167 -117 167 -210 l 167 868 q 214 1001 167 954 q 346 1047 261 1047 l 1182 1047 q 1334 1003 1279 1047 q 1389 868 1389 958 l 1389 -117 z "},"M":{"ha":1527,"x_min":167,"x_max":1389,"o":"m 429 747 l 501 747 q 755 251 611 519 l 1023 747 l 1090 747 q 1115 519 1100 664 q 1144 265 1131 375 q 1171 54 1157 155 q 1108 57 1155 57 q 1046 54 1062 57 q 999 550 1018 395 q 747 57 817 215 l 705 57 q 477 514 661 154 q 435 54 437 174 q 385 57 424 57 q 335 54 346 57 q 429 747 408 542 m 346 997 q 250 964 283 997 q 216 868 216 930 l 216 -74 q 346 -189 216 -189 l 1140 -189 q 1229 -163 1202 -189 q 1255 -74 1255 -136 l 1255 868 q 1140 997 1255 997 l 346 997 m 1389 -117 q 1352 -253 1389 -212 q 1223 -294 1315 -294 l 346 -294 q 209 -252 252 -294 q 167 -117 167 -210 l 167 868 q 214 1001 167 954 q 346 1047 261 1047 l 1182 1047 q 1334 1003 1279 1047 q 1389 868 1389 958 l 1389 -117 z "},"N":{"ha":1527,"x_min":167,"x_max":1389,"o":"m 447 521 q 436 729 447 650 l 439 732 q 513 729 477 729 q 547 730 513 729 l 905 268 q 951 210 948 212 q 958 216 956 207 q 960 241 960 224 l 960 521 q 949 729 960 650 l 930 732 q 997 729 972 729 l 1025 732 l 1047 729 q 1036 521 1036 655 l 1036 79 q 1022 56 1036 66 q 994 46 1007 46 q 929 59 954 46 q 868 118 904 72 l 542 530 q 520 562 530 546 l 518 562 q 522 514 522 539 l 522 265 q 533 57 522 134 l 530 54 q 485 57 509 57 l 437 54 l 436 57 q 447 265 447 131 l 447 521 m 346 997 q 250 964 283 997 q 216 868 216 930 l 216 -74 q 346 -189 216 -189 l 1140 -189 q 1229 -163 1202 -189 q 1255 -74 1255 -136 l 1255 868 q 1140 997 1255 997 l 346 997 m 1389 -117 q 1352 -253 1389 -212 q 1223 -294 1315 -294 l 346 -294 q 209 -252 252 -294 q 167 -117 167 -210 l 167 868 q 214 1001 167 954 q 346 1047 261 1047 l 1182 1047 q 1334 1003 1279 1047 q 1389 868 1389 958 l 1389 -117 z "},"O":{"ha":1527,"x_min":167,"x_max":1389,"o":"m 733 686 q 597 618 650 686 q 545 397 545 550 q 607 178 545 253 q 768 103 669 103 q 954 380 954 103 q 900 613 954 541 q 733 686 846 686 m 1105 400 q 1009 145 1105 242 q 747 47 913 47 q 493 140 592 47 q 393 380 393 233 q 492 638 393 534 q 747 742 590 742 q 1009 649 913 742 q 1105 400 1105 555 m 346 997 q 250 964 283 997 q 216 868 216 930 l 216 -74 q 346 -189 216 -189 l 1140 -189 q 1229 -163 1202 -189 q 1255 -74 1255 -136 l 1255 868 q 1140 997 1255 997 l 346 997 m 1389 -117 q 1352 -253 1389 -212 q 1223 -294 1315 -294 l 346 -294 q 209 -252 252 -294 q 167 -117 167 -210 l 167 868 q 214 1001 167 954 q 346 1047 261 1047 l 1182 1047 q 1334 1003 1279 1047 q 1389 868 1389 958 l 1389 -117 z "},"P":{"ha":1527,"x_min":167,"x_max":1389,"o":"m 643 646 l 643 406 q 715 396 663 396 q 816 427 791 396 q 842 545 842 458 q 814 664 842 636 q 726 692 787 692 q 658 681 673 692 q 643 646 643 671 m 513 521 q 501 729 513 650 l 504 732 q 576 729 541 729 q 657 732 593 729 q 733 736 721 736 q 925 680 862 736 q 987 564 987 624 q 919 418 987 484 q 721 351 850 351 q 643 361 676 351 l 643 265 q 654 57 643 136 l 652 54 q 576 57 613 57 l 503 54 l 501 57 q 513 265 512 134 l 513 521 m 346 997 q 250 964 283 997 q 216 868 216 930 l 216 -74 q 346 -189 216 -189 l 1140 -189 q 1229 -163 1202 -189 q 1255 -74 1255 -136 l 1255 868 q 1140 997 1255 997 l 346 997 m 1389 -117 q 1352 -253 1389 -212 q 1223 -294 1315 -294 l 346 -294 q 209 -252 252 -294 q 167 -117 167 -210 l 167 868 q 214 1001 167 954 q 346 1047 261 1047 l 1182 1047 q 1334 1003 1279 1047 q 1389 868 1389 958 l 1389 -117 z "},"Q":{"ha":1527,"x_min":167,"x_max":1389,"o":"m 705 688 q 569 619 622 688 q 517 397 517 550 q 579 177 517 253 q 741 102 642 102 q 926 380 926 102 q 872 614 926 541 q 705 688 818 688 m 346 997 q 250 964 283 997 q 216 868 216 930 l 216 -74 q 346 -189 216 -189 l 1140 -189 q 1229 -163 1202 -189 q 1255 -74 1255 -136 l 1255 868 q 1140 997 1255 997 l 346 997 m 1389 -117 q 1352 -253 1389 -212 q 1223 -294 1315 -294 l 346 -294 q 209 -252 252 -294 q 167 -117 167 -210 l 167 868 q 214 1001 167 954 q 346 1047 261 1047 l 1182 1047 q 1334 1003 1279 1047 q 1389 868 1389 958 l 1389 -117 m 950 119 q 976 104 951 118 q 1006 86 1000 90 q 1036 69 1013 82 q 1072 50 1058 56 q 1106 33 1085 43 q 1148 15 1128 23 q 1189 0 1168 7 l 1189 -7 q 1090 -75 1169 -16 q 983 -4 1039 -46 q 864 71 927 37 q 720 47 799 47 q 468 140 566 47 q 370 380 370 233 q 466 639 370 536 q 720 742 562 742 q 979 649 884 742 q 1074 400 1074 555 q 950 119 1074 215 z "},"R":{"ha":1527,"x_min":167,"x_max":1389,"o":"m 717 686 q 647 676 664 686 q 631 640 631 665 l 631 410 l 681 410 q 797 437 764 410 q 829 555 829 464 q 822 627 829 600 q 797 667 814 654 q 762 683 779 679 q 717 686 745 686 m 631 355 l 631 265 q 640 57 631 126 l 639 54 q 564 57 599 57 l 488 54 l 486 57 q 497 265 497 134 l 497 521 q 486 729 497 650 l 489 732 q 564 729 528 729 q 642 732 581 729 q 715 736 703 736 q 974 555 974 736 q 817 374 974 414 q 929 217 840 343 q 1048 57 1019 91 l 1046 54 q 970 57 1025 57 q 899 54 920 57 q 787 240 882 106 q 698 357 734 316 q 631 355 669 355 m 346 997 q 250 964 283 997 q 216 868 216 930 l 216 -74 q 346 -189 216 -189 l 1140 -189 q 1229 -163 1202 -189 q 1255 -74 1255 -136 l 1255 868 q 1140 997 1255 997 l 346 997 m 1389 -117 q 1352 -253 1389 -212 q 1223 -294 1315 -294 l 346 -294 q 209 -252 252 -294 q 167 -117 167 -210 l 167 868 q 214 1001 167 954 q 346 1047 261 1047 l 1182 1047 q 1334 1003 1279 1047 q 1389 868 1389 958 l 1389 -117 z "},"S":{"ha":1527,"x_min":167,"x_max":1389,"o":"m 710 100 q 829 214 829 100 q 807 305 829 275 q 730 354 785 335 q 664 379 692 368 q 600 410 636 390 q 541 449 564 429 q 502 499 518 469 q 486 562 486 529 q 556 692 486 643 q 728 742 627 742 q 840 731 789 742 q 913 707 892 720 l 933 696 l 935 692 q 911 572 919 652 l 901 572 q 826 658 876 624 q 718 692 777 692 q 644 665 671 692 q 618 590 618 637 q 747 457 618 498 q 825 427 793 441 q 896 388 857 412 q 956 329 935 364 q 977 250 977 293 q 904 106 977 165 q 701 47 832 47 q 581 58 639 47 q 496 81 524 69 l 469 93 l 465 97 q 490 218 479 138 l 501 220 q 587 135 525 171 q 710 100 649 100 m 346 997 q 250 964 283 997 q 216 868 216 930 l 216 -74 q 346 -189 216 -189 l 1140 -189 q 1229 -163 1202 -189 q 1255 -74 1255 -136 l 1255 868 q 1140 997 1255 997 l 346 997 m 1389 -117 q 1352 -253 1389 -212 q 1223 -294 1315 -294 l 346 -294 q 209 -252 252 -294 q 167 -117 167 -210 l 167 868 q 214 1001 167 954 q 346 1047 261 1047 l 1182 1047 q 1334 1003 1279 1047 q 1389 868 1389 958 l 1389 -117 z "},"T":{"ha":1527,"x_min":167,"x_max":1389,"o":"m 657 511 q 648 657 657 627 q 534 653 586 657 q 460 647 482 650 l 439 644 l 436 648 q 436 728 440 677 l 439 732 q 500 728 464 728 l 947 728 q 1008 732 983 728 l 1011 728 q 1011 648 1007 677 l 1008 644 q 799 657 939 656 q 790 511 791 627 l 790 265 q 800 57 790 125 l 799 53 q 724 57 759 57 l 647 53 l 647 57 q 657 265 656 122 l 657 511 m 346 997 q 250 964 283 997 q 216 868 216 930 l 216 -74 q 346 -189 216 -189 l 1140 -189 q 1229 -163 1202 -189 q 1255 -74 1255 -136 l 1255 868 q 1140 997 1255 997 l 346 997 m 1389 -117 q 1352 -253 1389 -212 q 1223 -294 1315 -294 l 346 -294 q 209 -252 252 -294 q 167 -117 167 -210 l 167 868 q 214 1001 167 954 q 346 1047 261 1047 l 1182 1047 q 1334 1003 1279 1047 q 1389 868 1389 958 l 1389 -117 z "},"U":{"ha":1527,"x_min":167,"x_max":1389,"o":"m 925 522 q 914 730 925 651 l 917 733 q 970 730 945 730 q 1022 733 970 730 l 1023 730 q 1014 522 1014 665 l 1014 366 q 728 47 1014 47 q 640 58 682 47 q 555 95 597 69 q 487 175 513 121 q 461 304 461 229 l 461 522 q 452 730 461 661 l 453 733 q 528 730 493 730 l 604 733 l 606 730 q 595 522 595 656 l 595 339 q 596 284 595 307 q 606 225 597 261 q 629 167 614 189 q 675 127 644 144 q 750 110 707 110 q 829 124 796 110 q 881 159 863 138 q 909 214 899 180 q 922 277 920 248 q 925 347 925 307 l 925 522 m 346 997 q 250 964 283 997 q 216 868 216 930 l 216 -74 q 346 -189 216 -189 l 1140 -189 q 1229 -163 1202 -189 q 1255 -74 1255 -136 l 1255 868 q 1140 997 1255 997 l 346 997 m 1389 -117 q 1352 -253 1389 -212 q 1223 -294 1315 -294 l 346 -294 q 209 -252 252 -294 q 167 -117 167 -210 l 167 868 q 214 1001 167 954 q 346 1047 261 1047 l 1182 1047 q 1334 1003 1279 1047 q 1389 868 1389 958 l 1389 -117 z "},"V":{"ha":1527,"x_min":167,"x_max":1389,"o":"m 346 997 q 250 964 283 997 q 216 868 216 930 l 216 -74 q 346 -189 216 -189 l 1140 -189 q 1229 -163 1202 -189 q 1255 -74 1255 -136 l 1255 868 q 1140 997 1255 997 l 346 997 m 1389 -117 q 1352 -253 1389 -212 q 1223 -294 1315 -294 l 346 -294 q 209 -252 252 -294 q 167 -117 167 -210 l 167 868 q 214 1001 167 954 q 346 1047 261 1047 l 1182 1047 q 1334 1003 1279 1047 q 1389 868 1389 958 l 1389 -117 m 763 251 q 954 741 920 612 q 1028 737 966 738 q 1065 741 1053 737 q 758 54 873 324 l 707 54 q 606 299 672 136 q 492 577 541 461 q 421 741 444 693 q 505 737 439 738 q 585 741 566 737 q 763 251 634 557 z "},"W":{"ha":1527,"x_min":167,"x_max":1389,"o":"m 346 997 q 250 964 283 997 q 216 868 216 930 l 216 -74 q 346 -189 216 -189 l 1140 -189 q 1229 -163 1202 -189 q 1255 -74 1255 -136 l 1255 868 q 1140 997 1255 997 l 346 997 m 1389 -117 q 1352 -253 1389 -212 q 1223 -294 1315 -294 l 346 -294 q 209 -252 252 -294 q 167 -117 167 -210 l 167 868 q 214 1001 167 954 q 346 1047 261 1047 l 1182 1047 q 1334 1003 1279 1047 q 1389 868 1389 958 l 1389 -117 m 951 248 q 1092 741 1040 505 q 1145 737 1104 738 q 1202 741 1190 737 q 950 54 1090 453 l 905 54 q 763 404 875 126 l 600 54 l 550 54 q 449 300 514 140 q 336 577 385 460 q 265 741 288 694 q 343 737 283 738 q 416 741 399 737 q 612 217 468 549 q 728 488 693 404 q 621 741 648 684 q 697 737 637 738 q 777 741 760 737 q 951 248 853 491 z "},"X":{"ha":1527,"x_min":167,"x_max":1389,"o":"m 1389 -117 q 1352 -253 1389 -212 q 1223 -294 1315 -294 l 346 -294 q 209 -252 252 -294 q 167 -117 167 -210 l 167 868 q 214 1001 167 954 q 346 1047 261 1047 l 1182 1047 q 1334 1003 1279 1047 q 1389 868 1389 958 l 1389 -117 m 346 997 q 250 964 283 997 q 216 868 216 930 l 216 -74 q 346 -189 216 -189 l 1140 -189 q 1229 -163 1202 -189 q 1255 -74 1255 -136 l 1255 868 q 1140 997 1255 997 l 346 997 m 1076 53 q 990 57 1055 57 q 900 53 921 57 q 845 137 876 94 q 773 233 814 180 q 713 315 733 286 q 653 235 693 288 q 582 138 614 183 q 525 53 550 93 q 478 57 513 57 q 404 53 418 57 l 665 380 l 392 732 q 479 728 410 728 q 564 732 543 728 q 746 493 594 683 q 930 732 850 610 q 1002 728 943 728 q 1048 732 1036 728 l 791 431 l 1076 53 z "},"Y":{"ha":1527,"x_min":167,"x_max":1389,"o":"m 346 997 q 250 964 283 997 q 216 868 216 930 l 216 -74 q 346 -189 216 -189 l 1140 -189 q 1229 -163 1202 -189 q 1255 -74 1255 -136 l 1255 868 q 1140 997 1255 997 l 346 997 m 1389 -117 q 1352 -253 1389 -212 q 1223 -294 1315 -294 l 346 -294 q 209 -252 252 -294 q 167 -117 167 -210 l 167 868 q 214 1001 167 954 q 346 1047 261 1047 l 1182 1047 q 1334 1003 1279 1047 q 1389 868 1389 958 l 1389 -117 m 806 353 q 814 53 808 120 q 737 57 797 57 q 663 53 679 57 q 669 343 669 119 q 431 732 549 554 q 511 728 448 728 q 593 732 575 728 q 765 430 630 658 q 936 732 869 593 q 1002 728 947 728 q 1044 732 1031 728 q 962 606 1011 681 q 892 498 913 532 q 845 424 870 465 q 806 353 821 383 z "},"Z":{"ha":1527,"x_min":167,"x_max":1389,"o":"m 846 662 q 652 657 781 661 q 472 652 523 652 l 469 656 q 472 689 472 673 q 469 729 472 699 l 472 732 q 536 729 505 729 l 895 729 q 1026 734 960 729 q 1034 729 1033 734 q 1002 672 1034 717 l 611 132 q 606 122 606 128 l 1022 134 l 1025 131 q 1022 97 1022 114 q 1025 57 1022 87 l 1022 54 q 949 57 989 57 l 550 57 q 415 54 550 57 l 411 58 q 439 97 418 66 l 846 662 m 346 997 q 250 964 283 997 q 216 868 216 930 l 216 -74 q 346 -189 216 -189 l 1140 -189 q 1229 -163 1202 -189 q 1255 -74 1255 -136 l 1255 868 q 1140 997 1255 997 l 346 997 m 1389 -117 q 1352 -253 1389 -212 q 1223 -294 1315 -294 l 346 -294 q 209 -252 252 -294 q 167 -117 167 -210 l 167 868 q 214 1001 167 954 q 346 1047 261 1047 l 1182 1047 q 1334 1003 1279 1047 q 1389 868 1389 958 l 1389 -117 z "},"[":{"ha":1527,"x_min":167,"x_max":1389,"o":"m 614 -111 l 614 821 l 876 821 l 876 781 q 748 753 772 772 q 724 664 724 733 l 724 46 q 748 -43 724 -23 q 876 -72 772 -62 l 876 -111 l 614 -111 m 346 997 q 250 964 283 997 q 216 868 216 930 l 216 -74 q 346 -189 216 -189 l 1140 -189 q 1229 -163 1202 -189 q 1255 -74 1255 -136 l 1255 868 q 1140 997 1255 997 l 346 997 m 1389 -117 q 1352 -253 1389 -212 q 1223 -294 1315 -294 l 346 -294 q 209 -252 252 -294 q 167 -117 167 -210 l 167 868 q 214 1001 167 954 q 346 1047 261 1047 l 1182 1047 q 1334 1003 1279 1047 q 1389 868 1389 958 l 1389 -117 z "},"\\":{"ha":1527,"x_min":167,"x_max":1389,"o":"m 682 785 l 922 7 l 848 7 l 608 785 l 682 785 m 346 997 q 250 964 283 997 q 216 868 216 930 l 216 -74 q 346 -189 216 -189 l 1140 -189 q 1229 -163 1202 -189 q 1255 -74 1255 -136 l 1255 868 q 1140 997 1255 997 l 346 997 m 1389 -117 q 1352 -253 1389 -212 q 1223 -294 1315 -294 l 346 -294 q 209 -252 252 -294 q 167 -117 167 -210 l 167 868 q 214 1001 167 954 q 346 1047 261 1047 l 1182 1047 q 1334 1003 1279 1047 q 1389 868 1389 958 l 1389 -117 z "},"]":{"ha":1527,"x_min":167,"x_max":1389,"o":"m 914 -111 l 652 -111 l 652 -72 q 780 -43 756 -62 q 804 46 804 -24 l 804 664 q 780 753 804 733 q 652 781 755 772 l 652 821 l 914 821 l 914 -111 m 346 997 q 250 964 283 997 q 216 868 216 930 l 216 -74 q 346 -189 216 -189 l 1140 -189 q 1229 -163 1202 -189 q 1255 -74 1255 -136 l 1255 868 q 1140 997 1255 997 l 346 997 m 1389 -117 q 1352 -253 1389 -212 q 1223 -294 1315 -294 l 346 -294 q 209 -252 252 -294 q 167 -117 167 -210 l 167 868 q 214 1001 167 954 q 346 1047 261 1047 l 1182 1047 q 1334 1003 1279 1047 q 1389 868 1389 958 l 1389 -117 z "},"^":{"ha":1527,"x_min":167,"x_max":1389,"o":"m 749 642 l 656 410 l 596 410 l 728 726 l 772 726 l 903 410 l 843 410 l 749 642 m 346 997 q 250 964 283 997 q 216 868 216 930 l 216 -74 q 346 -189 216 -189 l 1140 -189 q 1229 -163 1202 -189 q 1255 -74 1255 -136 l 1255 868 q 1140 997 1255 997 l 346 997 m 1389 -117 q 1352 -253 1389 -212 q 1223 -294 1315 -294 l 346 -294 q 209 -252 252 -294 q 167 -117 167 -210 l 167 868 q 214 1001 167 954 q 346 1047 261 1047 l 1182 1047 q 1334 1003 1279 1047 q 1389 868 1389 958 l 1389 -117 z "},"_":{"ha":1527,"x_min":167,"x_max":1389,"o":"m 1017 29 l 1017 -25 l 521 -25 l 521 29 l 1017 29 m 346 997 q 250 964 283 997 q 216 868 216 930 l 216 -74 q 346 -189 216 -189 l 1140 -189 q 1229 -163 1202 -189 q 1255 -74 1255 -136 l 1255 868 q 1140 997 1255 997 l 346 997 m 1389 -117 q 1352 -253 1389 -212 q 1223 -294 1315 -294 l 346 -294 q 209 -252 252 -294 q 167 -117 167 -210 l 167 868 q 214 1001 167 954 q 346 1047 261 1047 l 1182 1047 q 1334 1003 1279 1047 q 1389 868 1389 958 l 1389 -117 z "},"`":{"ha":1527,"x_min":167,"x_max":1389,"o":"m 739 713 l 811 585 q 819 557 819 568 q 803 541 819 540 q 765 561 791 541 l 640 671 l 642 682 q 718 715 671 715 q 739 713 731 715 m 346 997 q 250 964 283 997 q 216 868 216 930 l 216 -74 q 346 -189 216 -189 l 1140 -189 q 1229 -163 1202 -189 q 1255 -74 1255 -136 l 1255 868 q 1140 997 1255 997 l 346 997 m 1389 -117 q 1352 -253 1389 -212 q 1223 -294 1315 -294 l 346 -294 q 209 -252 252 -294 q 167 -117 167 -210 l 167 868 q 214 1001 167 954 q 346 1047 261 1047 l 1182 1047 q 1334 1003 1279 1047 q 1389 868 1389 958 l 1389 -117 z "},"a":{"ha":1527,"x_min":167,"x_max":1389,"o":"m 800 289 l 717 267 q 644 172 645 247 q 657 131 644 149 q 693 113 671 113 q 782 157 725 113 q 800 184 800 172 l 800 289 m 911 149 q 936 117 911 117 q 974 139 943 117 l 977 136 q 999 109 987 131 q 882 50 951 50 q 827 67 848 50 q 799 111 806 85 l 798 111 q 653 50 730 50 q 557 79 595 50 q 519 163 519 109 q 572 257 519 214 q 703 318 625 300 l 794 340 q 800 353 800 340 q 781 436 800 411 q 718 461 761 461 q 600 379 649 461 l 576 380 l 549 449 l 553 453 q 628 497 578 475 q 728 518 677 518 q 916 349 915 518 q 913 256 916 346 q 911 149 911 167 m 346 997 q 250 964 283 997 q 216 868 216 930 l 216 -74 q 346 -189 216 -189 l 1140 -189 q 1229 -163 1202 -189 q 1255 -74 1255 -136 l 1255 868 q 1140 997 1255 997 l 346 997 m 1389 -117 q 1352 -253 1389 -212 q 1223 -294 1315 -294 l 346 -294 q 209 -252 252 -294 q 167 -117 167 -210 l 167 868 q 214 1001 167 954 q 346 1047 261 1047 l 1182 1047 q 1334 1003 1279 1047 q 1389 868 1389 958 l 1389 -117 z "},"b":{"ha":1527,"x_min":167,"x_max":1389,"o":"m 650 157 q 728 109 686 108 q 828 156 798 109 q 859 297 859 203 q 832 413 859 372 q 758 454 806 454 q 650 411 692 454 l 650 157 m 650 585 l 650 464 q 779 519 700 519 q 920 463 854 519 q 986 315 986 406 q 905 126 986 200 q 733 53 823 53 q 628 92 672 53 q 603 74 623 87 q 578 52 583 60 q 521 56 530 52 q 526 138 526 87 l 526 566 q 517 761 526 699 l 518 764 q 650 790 602 772 q 660 781 659 790 q 650 585 650 705 m 346 997 q 250 964 283 997 q 216 868 216 930 l 216 -74 q 346 -189 216 -189 l 1140 -189 q 1229 -163 1202 -189 q 1255 -74 1255 -136 l 1255 868 q 1140 997 1255 997 l 346 997 m 1389 -117 q 1352 -253 1389 -212 q 1223 -294 1315 -294 l 346 -294 q 209 -252 252 -294 q 167 -117 167 -210 l 167 868 q 214 1001 167 954 q 346 1047 261 1047 l 1182 1047 q 1334 1003 1279 1047 q 1389 868 1389 958 l 1389 -117 z "},"c":{"ha":1527,"x_min":167,"x_max":1389,"o":"m 747 461 q 657 421 692 461 q 623 304 623 380 q 662 170 623 222 q 761 118 701 118 q 884 182 831 118 l 886 182 q 908 155 907 170 q 840 80 887 111 q 736 50 793 50 q 559 113 623 50 q 494 278 494 175 q 567 452 494 387 q 749 518 640 518 q 899 485 835 518 l 900 482 l 876 376 l 859 375 q 806 437 836 412 q 747 461 777 461 m 346 997 q 250 964 283 997 q 216 868 216 930 l 216 -74 q 346 -189 216 -189 l 1140 -189 q 1229 -163 1202 -189 q 1255 -74 1255 -136 l 1255 868 q 1140 997 1255 997 l 346 997 m 1389 -117 q 1352 -253 1389 -212 q 1223 -294 1315 -294 l 346 -294 q 209 -252 252 -294 q 167 -117 167 -210 l 167 868 q 214 1001 167 954 q 346 1047 261 1047 l 1182 1047 q 1334 1003 1279 1047 q 1389 868 1389 958 l 1389 -117 z "},"d":{"ha":1527,"x_min":167,"x_max":1389,"o":"m 786 179 l 786 399 q 762 433 770 422 q 737 453 753 444 q 697 461 721 461 q 570 290 570 461 q 599 157 570 199 q 673 115 628 115 q 786 179 733 115 m 786 123 q 647 46 726 45 q 502 111 562 46 q 441 271 441 176 q 522 446 441 375 q 708 517 603 517 q 786 494 741 517 l 786 562 q 775 757 786 697 l 778 761 q 909 787 860 766 q 920 777 919 787 q 908 581 909 692 l 908 260 q 926 57 908 153 l 924 54 q 859 57 899 57 q 803 54 831 57 q 793 57 793 54 l 787 123 l 786 123 m 346 997 q 250 964 283 997 q 216 868 216 930 l 216 -74 q 346 -189 216 -189 l 1140 -189 q 1229 -163 1202 -189 q 1255 -74 1255 -136 l 1255 868 q 1140 997 1255 997 l 346 997 m 1389 -117 q 1352 -253 1389 -212 q 1223 -294 1315 -294 l 346 -294 q 209 -252 252 -294 q 167 -117 167 -210 l 167 868 q 214 1001 167 954 q 346 1047 261 1047 l 1182 1047 q 1334 1003 1279 1047 q 1389 868 1389 958 l 1389 -117 z "},"e":{"ha":1527,"x_min":167,"x_max":1389,"o":"m 643 359 l 791 359 q 807 374 807 359 q 790 447 807 427 q 742 467 774 467 q 708 460 725 467 q 671 428 692 454 q 643 359 650 402 m 925 179 q 947 143 947 167 q 863 76 917 102 q 754 50 810 50 q 575 113 642 50 q 509 268 509 175 q 584 448 509 378 q 742 518 659 518 q 889 462 839 518 q 939 332 939 406 q 921 314 939 313 l 640 314 q 681 168 640 214 q 775 121 721 121 q 925 179 871 121 m 346 997 q 250 964 283 997 q 216 868 216 930 l 216 -74 q 346 -189 216 -189 l 1140 -189 q 1229 -163 1202 -189 q 1255 -74 1255 -136 l 1255 868 q 1140 997 1255 997 l 346 997 m 1389 -117 q 1352 -253 1389 -212 q 1223 -294 1315 -294 l 346 -294 q 209 -252 252 -294 q 167 -117 167 -210 l 167 868 q 214 1001 167 954 q 346 1047 261 1047 l 1182 1047 q 1334 1003 1279 1047 q 1389 868 1389 958 l 1389 -117 z "},"f":{"ha":1527,"x_min":167,"x_max":1389,"o":"m 669 710 q 755 767 703 745 q 856 789 807 789 q 903 781 886 789 l 903 777 q 892 749 897 768 q 882 705 888 730 q 875 672 876 679 l 863 671 q 803 718 838 718 q 739 691 762 718 q 717 619 717 664 q 719 571 717 608 q 721 519 721 533 l 721 510 l 833 510 q 842 503 842 510 l 842 468 q 818 454 842 454 l 721 454 l 721 265 q 732 57 721 125 l 729 54 q 660 57 696 57 l 589 54 l 587 57 q 599 265 598 121 l 599 454 l 529 454 q 525 460 525 454 l 525 489 q 549 510 525 510 l 599 510 l 599 541 q 615 634 599 597 q 669 710 632 671 m 346 997 q 250 964 283 997 q 216 868 216 930 l 216 -74 q 346 -189 216 -189 l 1140 -189 q 1229 -163 1202 -189 q 1255 -74 1255 -136 l 1255 868 q 1140 997 1255 997 l 346 997 m 1389 -117 q 1352 -253 1389 -212 q 1223 -294 1315 -294 l 346 -294 q 209 -252 252 -294 q 167 -117 167 -210 l 167 868 q 214 1001 167 954 q 346 1047 261 1047 l 1182 1047 q 1334 1003 1279 1047 q 1389 868 1389 958 l 1389 -117 z "},"g":{"ha":1527,"x_min":167,"x_max":1389,"o":"m 907 397 q 857 287 907 331 q 720 243 807 243 q 639 258 664 243 l 631 262 q 614 200 614 235 q 624 168 614 179 q 645 155 635 157 q 673 154 654 154 l 704 157 q 770 163 751 162 q 868 152 824 163 q 947 108 913 140 q 982 25 982 75 q 887 -103 982 -54 q 681 -151 791 -151 q 556 -123 612 -151 q 500 -33 500 -94 q 591 93 500 35 q 550 121 566 100 q 533 174 533 142 q 576 281 533 241 l 571 288 q 528 396 528 321 q 583 508 528 463 q 721 554 637 554 q 782 545 750 554 q 890 555 827 547 q 968 564 953 562 l 972 561 q 968 528 968 547 q 972 497 968 511 l 968 494 q 851 505 966 494 q 891 457 876 486 q 907 397 907 427 m 796 387 q 710 509 796 508 q 640 411 641 509 q 722 288 640 288 q 775 311 754 288 q 796 387 796 334 m 346 997 q 250 964 283 997 q 216 868 216 930 l 216 -74 q 346 -189 216 -189 l 1140 -189 q 1229 -163 1202 -189 q 1255 -74 1255 -136 l 1255 868 q 1140 997 1255 997 l 346 997 m 1389 -117 q 1352 -253 1389 -212 q 1223 -294 1315 -294 l 346 -294 q 209 -252 252 -294 q 167 -117 167 -210 l 167 868 q 214 1001 167 954 q 346 1047 261 1047 l 1182 1047 q 1334 1003 1279 1047 q 1389 868 1389 958 l 1389 -117 m 662 75 q 612 -12 612 36 q 644 -84 612 -60 q 710 -109 675 -109 q 826 -77 778 -109 q 875 1 875 -46 q 733 79 875 79 q 704 77 728 79 q 662 75 679 75 m 663 76 l 664 76 q 663 76 664 76 z "},"h":{"ha":1527,"x_min":167,"x_max":1389,"o":"m 825 250 l 825 350 q 809 431 825 411 q 747 452 793 452 q 735 450 741 452 q 722 445 729 449 q 709 437 714 440 q 694 425 704 433 q 681 412 685 416 q 663 394 676 407 q 643 375 650 380 l 643 250 q 653 57 643 127 l 652 54 q 582 57 617 57 l 511 54 l 510 57 q 519 250 519 122 l 519 564 q 510 760 519 708 l 511 764 q 644 789 591 769 q 653 779 652 789 q 643 585 644 690 l 643 437 q 794 519 725 519 q 902 476 855 519 q 949 358 949 433 l 949 250 q 958 57 949 127 l 957 54 q 886 57 922 57 l 815 54 l 815 57 q 825 250 825 123 m 346 997 q 250 964 283 997 q 216 868 216 930 l 216 -74 q 346 -189 216 -189 l 1140 -189 q 1229 -163 1202 -189 q 1255 -74 1255 -136 l 1255 868 q 1140 997 1255 997 l 346 997 m 1389 -117 q 1352 -253 1389 -212 q 1223 -294 1315 -294 l 346 -294 q 209 -252 252 -294 q 167 -117 167 -210 l 167 868 q 214 1001 167 954 q 346 1047 261 1047 l 1182 1047 q 1334 1003 1279 1047 q 1389 868 1389 958 l 1389 -117 z "},"i":{"ha":1527,"x_min":167,"x_max":1389,"o":"m 346 997 q 250 964 283 997 q 216 868 216 930 l 216 -74 q 346 -189 216 -189 l 1140 -189 q 1229 -163 1202 -189 q 1255 -74 1255 -136 l 1255 868 q 1140 997 1255 997 l 346 997 m 1389 -117 q 1352 -253 1389 -212 q 1223 -294 1315 -294 l 346 -294 q 209 -252 252 -294 q 167 -117 167 -210 l 167 868 q 214 1001 167 954 q 346 1047 261 1047 l 1182 1047 q 1334 1003 1279 1047 q 1389 868 1389 958 l 1389 -117 m 678 669 q 667 680 678 669 q 657 720 657 690 q 678 770 657 749 q 729 791 699 791 q 781 770 760 791 q 802 720 802 749 q 781 669 802 690 q 729 647 760 647 q 678 669 699 647 m 665 307 q 654 490 665 429 l 657 493 q 789 519 739 498 q 799 509 798 519 q 787 323 788 424 l 787 250 q 799 61 787 140 l 796 58 q 726 61 762 61 l 656 58 l 654 61 q 665 250 665 138 l 665 307 z "},"j":{"ha":1527,"x_min":167,"x_max":1389,"o":"m 346 997 q 250 964 283 997 q 216 868 216 930 l 216 -74 q 346 -189 216 -189 l 1140 -189 q 1229 -163 1202 -189 q 1255 -74 1255 -136 l 1255 868 q 1140 997 1255 997 l 346 997 m 1389 -117 q 1352 -253 1389 -212 q 1223 -294 1315 -294 l 346 -294 q 209 -252 252 -294 q 167 -117 167 -210 l 167 868 q 214 1001 167 954 q 346 1047 261 1047 l 1182 1047 q 1334 1003 1279 1047 q 1389 868 1389 958 l 1389 -117 m 707 683 q 697 693 707 683 q 686 733 686 704 q 707 784 686 762 q 758 806 728 806 q 810 784 789 806 q 831 733 831 762 q 810 683 831 704 q 758 661 789 661 q 707 683 728 661 m 697 25 q 696 45 697 29 q 695 96 696 61 q 694 180 694 131 l 694 325 q 684 509 694 448 l 686 513 q 818 539 768 518 q 828 528 827 539 q 817 342 817 443 l 817 79 q 805 -2 817 28 q 764 -75 794 -32 q 596 -142 716 -142 q 542 -134 563 -142 l 541 -129 q 551 -76 547 -119 q 557 -22 554 -32 l 578 -21 q 585 -36 578 -22 q 594 -52 591 -49 q 606 -60 597 -54 q 624 -65 614 -65 q 697 25 697 -65 z "},"k":{"ha":1527,"x_min":167,"x_max":1389,"o":"m 346 997 q 250 964 283 997 q 216 868 216 930 l 216 -74 q 346 -189 216 -189 l 1140 -189 q 1229 -163 1202 -189 q 1255 -74 1255 -136 l 1255 868 q 1140 997 1255 997 l 346 997 m 1389 -117 q 1352 -253 1389 -212 q 1223 -294 1315 -294 l 346 -294 q 209 -252 252 -294 q 167 -117 167 -210 l 167 868 q 214 1001 167 954 q 346 1047 261 1047 l 1182 1047 q 1334 1003 1279 1047 q 1389 868 1389 958 l 1389 -117 m 529 273 l 529 567 q 518 762 529 703 l 521 766 q 653 791 599 772 q 663 782 663 791 q 652 586 652 697 l 652 317 q 677 332 664 319 q 757 410 708 355 q 840 513 806 464 q 985 515 965 513 l 986 513 q 919 448 957 486 q 842 367 882 410 q 791 313 803 323 q 1008 65 926 151 l 1007 62 q 920 65 987 65 q 836 62 867 65 q 799 115 823 81 q 766 162 775 150 q 740 195 757 174 q 709 233 724 216 q 675 271 694 250 q 652 280 666 278 l 652 273 q 663 65 652 133 l 660 62 q 590 65 627 65 l 519 62 l 518 65 q 529 273 529 129 z "},"l":{"ha":1527,"x_min":167,"x_max":1389,"o":"m 673 265 l 673 564 q 663 760 673 700 l 665 764 q 798 789 743 769 q 807 779 807 789 q 796 583 796 694 l 796 265 q 807 57 796 125 l 804 54 q 734 57 771 57 q 664 54 734 57 l 663 57 q 673 265 673 121 m 346 997 q 250 964 283 997 q 216 868 216 930 l 216 -74 q 346 -189 216 -189 l 1140 -189 q 1229 -163 1202 -189 q 1255 -74 1255 -136 l 1255 868 q 1140 997 1255 997 l 346 997 m 1389 -117 q 1352 -253 1389 -212 q 1223 -294 1315 -294 l 346 -294 q 209 -252 252 -294 q 167 -117 167 -210 l 167 868 q 214 1001 167 954 q 346 1047 261 1047 l 1182 1047 q 1334 1003 1279 1047 q 1389 868 1389 958 l 1389 -117 z "},"m":{"ha":1527,"x_min":167,"x_max":1389,"o":"m 981 250 l 981 357 q 967 431 981 411 q 914 450 954 450 q 877 441 893 450 q 852 423 861 432 q 810 376 843 414 l 810 345 l 810 250 q 821 57 810 125 l 818 54 q 749 57 785 57 l 677 54 l 676 57 q 688 250 687 122 l 688 354 q 623 450 688 450 q 608 449 614 450 q 594 444 602 447 q 581 437 586 440 q 567 426 576 435 q 554 412 558 416 q 537 395 550 408 q 518 375 525 382 l 518 250 q 529 57 518 125 l 526 54 q 457 57 493 57 l 386 54 l 385 57 q 396 250 395 122 l 396 307 q 385 490 396 431 l 387 493 q 517 519 467 498 q 526 509 526 519 l 517 436 l 518 436 q 564 483 550 471 q 604 508 578 496 q 660 519 629 519 q 752 494 706 519 q 803 436 798 469 q 879 502 849 485 q 951 519 909 519 q 1103 353 1103 519 l 1103 250 q 1114 57 1103 125 l 1111 54 q 1042 57 1078 57 l 971 54 l 970 57 q 981 250 981 134 m 346 997 q 250 964 283 997 q 216 868 216 930 l 216 -74 q 346 -189 216 -189 l 1140 -189 q 1229 -163 1202 -189 q 1255 -74 1255 -136 l 1255 868 q 1140 997 1255 997 l 346 997 m 1389 -117 q 1352 -253 1389 -212 q 1223 -294 1315 -294 l 346 -294 q 209 -252 252 -294 q 167 -117 167 -210 l 167 868 q 214 1001 167 954 q 346 1047 261 1047 l 1182 1047 q 1334 1003 1279 1047 q 1389 868 1389 958 l 1389 -117 z "},"n":{"ha":1527,"x_min":167,"x_max":1389,"o":"m 962 250 q 972 57 962 127 l 971 54 q 900 57 937 57 q 831 54 900 57 l 829 57 q 839 250 839 114 l 839 342 q 826 426 839 401 q 774 450 812 450 q 720 436 741 450 q 659 372 700 421 l 659 250 q 668 57 659 127 l 667 54 q 597 57 632 57 l 525 54 l 525 57 q 534 250 534 123 l 534 307 q 525 490 534 439 l 526 493 q 656 519 606 498 q 665 509 665 519 l 656 433 l 659 433 q 734 504 706 489 q 806 519 762 519 q 919 472 875 519 q 962 354 962 425 l 962 250 m 346 997 q 250 964 283 997 q 216 868 216 930 l 216 -74 q 346 -189 216 -189 l 1140 -189 q 1229 -163 1202 -189 q 1255 -74 1255 -136 l 1255 868 q 1140 997 1255 997 l 346 997 m 1389 -117 q 1352 -253 1389 -212 q 1223 -294 1315 -294 l 346 -294 q 209 -252 252 -294 q 167 -117 167 -210 l 167 868 q 214 1001 167 954 q 346 1047 261 1047 l 1182 1047 q 1334 1003 1279 1047 q 1389 868 1389 958 l 1389 -117 z "},"o":{"ha":1527,"x_min":167,"x_max":1389,"o":"m 504 273 q 569 450 504 382 q 745 518 633 518 q 922 448 865 518 q 979 283 979 378 q 917 121 979 192 q 742 50 854 50 q 567 116 631 50 q 504 273 504 182 m 736 465 q 683 453 704 465 q 653 414 663 440 q 641 363 644 389 q 637 298 637 338 q 755 103 637 102 q 846 256 846 103 q 823 417 846 370 q 736 465 800 465 m 346 997 q 250 964 283 997 q 216 868 216 930 l 216 -74 q 346 -189 216 -189 l 1140 -189 q 1229 -163 1202 -189 q 1255 -74 1255 -136 l 1255 868 q 1140 997 1255 997 l 346 997 m 1389 -117 q 1352 -253 1389 -212 q 1223 -294 1315 -294 l 346 -294 q 209 -252 252 -294 q 167 -117 167 -210 l 167 868 q 214 1001 167 954 q 346 1047 261 1047 l 1182 1047 q 1334 1003 1279 1047 q 1389 868 1389 958 l 1389 -117 z "},"p":{"ha":1527,"x_min":167,"x_max":1389,"o":"m 636 380 l 636 167 q 722 122 673 122 q 777 133 754 122 q 813 158 800 143 q 831 197 825 172 q 839 242 838 222 q 840 294 840 262 q 745 467 840 467 q 685 443 717 467 q 636 380 653 419 m 514 45 l 514 322 q 503 505 514 446 l 505 509 q 636 534 586 514 q 644 524 644 534 l 635 453 l 637 453 q 772 534 693 535 q 916 469 850 534 q 981 322 981 403 q 906 140 981 214 q 729 66 832 66 q 636 89 680 66 l 636 45 q 647 -164 636 -97 l 644 -168 q 575 -164 611 -164 l 504 -168 l 503 -164 q 514 45 514 -100 m 346 997 q 250 964 283 997 q 216 868 216 930 l 216 -74 q 346 -189 216 -189 l 1140 -189 q 1229 -163 1202 -189 q 1255 -74 1255 -136 l 1255 868 q 1140 997 1255 997 l 346 997 m 1389 -117 q 1352 -253 1389 -212 q 1223 -294 1315 -294 l 346 -294 q 209 -252 252 -294 q 167 -117 167 -210 l 167 868 q 214 1001 167 954 q 346 1047 261 1047 l 1182 1047 q 1334 1003 1279 1047 q 1389 868 1389 958 l 1389 -117 z "},"q":{"ha":1527,"x_min":167,"x_max":1389,"o":"m 822 408 q 718 479 777 479 q 637 440 659 479 q 616 314 616 401 q 651 170 616 207 q 742 134 685 134 q 822 155 793 134 l 822 408 m 822 45 l 822 102 q 717 66 781 67 q 544 139 611 66 q 476 293 476 212 q 550 465 476 395 q 722 534 624 534 q 872 493 825 534 l 888 518 q 922 538 899 538 q 938 530 930 538 q 945 513 945 522 l 945 45 q 956 -164 945 -96 l 953 -167 q 884 -164 920 -164 l 812 -167 l 811 -164 q 822 45 822 -90 m 346 997 q 250 964 283 997 q 216 868 216 930 l 216 -74 q 346 -189 216 -189 l 1140 -189 q 1229 -163 1202 -189 q 1255 -74 1255 -136 l 1255 868 q 1140 997 1255 997 l 346 997 m 1389 -117 q 1352 -253 1389 -212 q 1223 -294 1315 -294 l 346 -294 q 209 -252 252 -294 q 167 -117 167 -210 l 167 868 q 214 1001 167 954 q 346 1047 261 1047 l 1182 1047 q 1334 1003 1279 1047 q 1389 868 1389 958 l 1389 -117 z "},"r":{"ha":1527,"x_min":167,"x_max":1389,"o":"m 718 431 q 777 492 741 465 q 847 519 814 519 q 890 511 864 519 l 895 509 l 873 411 l 865 408 q 806 424 847 424 q 784 421 796 424 q 756 410 772 418 q 729 384 739 403 q 718 336 718 364 l 718 245 q 728 57 718 126 l 726 54 q 652 57 686 57 l 585 54 l 585 57 q 595 245 594 123 l 595 307 q 579 490 595 407 l 581 493 q 708 519 657 498 q 718 509 718 519 l 715 431 l 718 431 m 346 997 q 250 964 283 997 q 216 868 216 930 l 216 -74 q 346 -189 216 -189 l 1140 -189 q 1229 -163 1202 -189 q 1255 -74 1255 -136 l 1255 868 q 1140 997 1255 997 l 346 997 m 1389 -117 q 1352 -253 1389 -212 q 1223 -294 1315 -294 l 346 -294 q 209 -252 252 -294 q 167 -117 167 -210 l 167 868 q 214 1001 167 954 q 346 1047 261 1047 l 1182 1047 q 1334 1003 1279 1047 q 1389 868 1389 958 l 1389 -117 z "},"s":{"ha":1527,"x_min":167,"x_max":1389,"o":"m 555 180 l 570 182 q 629 123 587 149 q 705 98 671 98 q 755 119 737 98 q 774 178 774 140 q 757 228 774 210 q 697 262 741 245 q 559 390 559 314 q 751 518 559 517 q 880 485 817 518 l 882 482 l 863 382 l 848 380 q 804 441 835 411 q 739 471 774 471 q 690 455 707 471 q 672 411 672 439 q 741 329 672 353 q 794 308 772 318 q 842 280 817 297 q 880 240 867 264 q 893 187 893 216 q 842 94 893 137 q 699 50 791 50 q 539 78 612 50 l 555 180 m 346 997 q 250 964 283 997 q 216 868 216 930 l 216 -74 q 346 -189 216 -189 l 1140 -189 q 1229 -163 1202 -189 q 1255 -74 1255 -136 l 1255 868 q 1140 997 1255 997 l 346 997 m 1389 -117 q 1352 -253 1389 -212 q 1223 -294 1315 -294 l 346 -294 q 209 -252 252 -294 q 167 -117 167 -210 l 167 868 q 214 1001 167 954 q 346 1047 261 1047 l 1182 1047 q 1334 1003 1279 1047 q 1389 868 1389 958 l 1389 -117 z "},"t":{"ha":1527,"x_min":167,"x_max":1389,"o":"m 542 449 q 528 464 528 449 q 535 489 528 475 q 550 504 542 504 l 607 504 q 600 619 607 574 l 602 623 q 725 659 639 625 q 734 648 734 659 q 729 504 729 569 l 842 504 q 850 497 850 504 l 850 463 q 825 449 850 449 l 729 449 l 729 340 q 728 256 729 306 q 726 193 726 205 q 761 118 726 118 q 832 138 800 118 q 851 100 852 125 q 704 47 793 47 q 630 78 656 47 q 604 149 604 109 q 606 228 604 161 q 607 329 607 294 l 607 449 l 542 449 m 346 997 q 250 964 283 997 q 216 868 216 930 l 216 -74 q 346 -189 216 -189 l 1140 -189 q 1229 -163 1202 -189 q 1255 -74 1255 -136 l 1255 868 q 1140 997 1255 997 l 346 997 m 1389 -117 q 1352 -253 1389 -212 q 1223 -294 1315 -294 l 346 -294 q 209 -252 252 -294 q 167 -117 167 -210 l 167 868 q 214 1001 167 954 q 346 1047 261 1047 l 1182 1047 q 1334 1003 1279 1047 q 1389 868 1389 958 l 1389 -117 z "},"u":{"ha":1527,"x_min":167,"x_max":1389,"o":"m 817 126 q 745 64 774 80 q 684 49 717 49 q 565 91 610 49 q 521 191 521 134 l 521 319 q 511 505 521 437 l 513 510 q 582 505 547 506 l 653 510 l 654 505 q 644 319 645 451 l 644 225 q 711 115 644 115 q 726 117 718 115 q 740 121 733 118 q 753 128 747 125 q 765 138 758 131 q 777 147 772 144 q 788 159 781 150 q 798 170 796 168 q 808 182 800 172 q 817 193 815 192 l 817 319 q 807 505 817 437 l 808 510 q 878 505 843 506 l 949 510 l 950 505 q 940 319 941 451 l 940 260 q 957 60 940 149 l 956 56 q 889 60 935 60 q 833 56 854 60 q 823 60 824 56 l 819 126 l 817 126 m 346 997 q 250 964 283 997 q 216 868 216 930 l 216 -74 q 346 -189 216 -189 l 1140 -189 q 1229 -163 1202 -189 q 1255 -74 1255 -136 l 1255 868 q 1140 997 1255 997 l 346 997 m 1389 -117 q 1352 -253 1389 -212 q 1223 -294 1315 -294 l 346 -294 q 209 -252 252 -294 q 167 -117 167 -210 l 167 868 q 214 1001 167 954 q 346 1047 261 1047 l 1182 1047 q 1334 1003 1279 1047 q 1389 868 1389 958 l 1389 -117 z "},"v":{"ha":1527,"x_min":167,"x_max":1389,"o":"m 631 53 q 441 511 534 309 q 511 507 458 507 q 589 511 575 507 q 722 150 648 322 l 725 150 q 861 511 762 232 q 917 507 871 507 q 965 511 956 507 q 774 53 817 175 q 710 57 764 57 q 631 53 642 57 m 346 997 q 250 964 283 997 q 216 868 216 930 l 216 -74 q 346 -189 216 -189 l 1140 -189 q 1229 -163 1202 -189 q 1255 -74 1255 -136 l 1255 868 q 1140 997 1255 997 l 346 997 m 1389 -117 q 1352 -253 1389 -212 q 1223 -294 1315 -294 l 346 -294 q 209 -252 252 -294 q 167 -117 167 -210 l 167 868 q 214 1001 167 954 q 346 1047 261 1047 l 1182 1047 q 1334 1003 1279 1047 q 1389 868 1389 958 l 1389 -117 z "},"w":{"ha":1527,"x_min":167,"x_max":1389,"o":"m 514 53 q 326 510 412 319 q 401 506 343 506 q 472 510 460 505 q 603 150 547 278 l 610 150 q 699 368 651 243 q 636 511 666 445 q 711 507 653 507 q 783 511 770 507 q 914 151 846 310 l 922 151 q 959 237 939 187 q 991 323 978 286 q 1025 421 1004 361 q 1055 511 1046 482 q 1112 507 1065 507 q 1157 511 1147 507 q 1106 399 1140 475 q 1053 279 1072 323 q 1008 172 1034 235 q 962 54 982 109 q 879 58 953 58 q 822 54 831 58 q 736 275 770 189 q 654 53 715 220 q 570 57 645 57 q 514 53 525 57 m 346 997 q 250 964 283 997 q 216 868 216 930 l 216 -74 q 346 -189 216 -189 l 1140 -189 q 1229 -163 1202 -189 q 1255 -74 1255 -136 l 1255 868 q 1140 997 1255 997 l 346 997 m 1389 -117 q 1352 -253 1389 -212 q 1223 -294 1315 -294 l 346 -294 q 209 -252 252 -294 q 167 -117 167 -210 l 167 868 q 214 1001 167 954 q 346 1047 261 1047 l 1182 1047 q 1334 1003 1279 1047 q 1389 868 1389 958 l 1389 -117 z "},"x":{"ha":1527,"x_min":167,"x_max":1389,"o":"m 659 277 l 653 282 l 481 511 q 561 507 498 507 q 636 511 619 507 q 734 366 672 452 q 840 511 802 455 q 899 507 851 507 q 945 511 933 507 l 774 312 l 789 293 q 964 53 871 174 q 892 57 948 57 q 811 53 828 57 q 701 220 761 134 q 587 53 607 83 q 542 57 578 57 q 485 53 494 57 l 656 272 l 659 277 m 346 997 q 250 964 283 997 q 216 868 216 930 l 216 -74 q 346 -189 216 -189 l 1140 -189 q 1229 -163 1202 -189 q 1255 -74 1255 -136 l 1255 868 q 1140 997 1255 997 l 346 997 m 1389 -117 q 1352 -253 1389 -212 q 1223 -294 1315 -294 l 346 -294 q 209 -252 252 -294 q 167 -117 167 -210 l 167 868 q 214 1001 167 954 q 346 1047 261 1047 l 1182 1047 q 1334 1003 1279 1047 q 1389 868 1389 958 l 1389 -117 z "},"y":{"ha":1527,"x_min":167,"x_max":1389,"o":"m 494 539 q 568 536 508 536 q 639 539 625 536 q 760 224 671 438 q 878 539 819 359 q 937 536 887 536 q 982 539 972 536 q 817 178 929 429 q 681 -157 705 -74 q 629 -153 664 -153 q 574 -157 589 -153 q 690 69 640 -47 l 686 77 q 494 539 616 266 m 346 997 q 250 964 283 997 q 216 868 216 930 l 216 -74 q 346 -189 216 -189 l 1140 -189 q 1229 -163 1202 -189 q 1255 -74 1255 -136 l 1255 868 q 1140 997 1255 997 l 346 997 m 1389 -117 q 1352 -253 1389 -212 q 1223 -294 1315 -294 l 346 -294 q 209 -252 252 -294 q 167 -117 167 -210 l 167 868 q 214 1001 167 954 q 346 1047 261 1047 l 1182 1047 q 1334 1003 1279 1047 q 1389 868 1389 958 l 1389 -117 z "},"z":{"ha":1527,"x_min":167,"x_max":1389,"o":"m 736 446 q 504 435 736 446 l 503 439 q 504 475 504 447 q 503 509 504 494 l 504 511 q 562 509 537 509 l 815 509 q 848 510 829 509 q 883 513 868 511 q 899 515 897 515 q 904 509 904 515 q 873 464 903 507 l 642 118 q 760 121 697 118 q 860 127 823 125 l 896 131 l 897 126 q 896 90 896 118 q 897 57 896 71 l 896 54 q 838 57 863 57 l 602 57 l 478 54 l 475 58 q 497 90 479 62 l 736 446 m 346 997 q 250 964 283 997 q 216 868 216 930 l 216 -74 q 346 -189 216 -189 l 1140 -189 q 1229 -163 1202 -189 q 1255 -74 1255 -136 l 1255 868 q 1140 997 1255 997 l 346 997 m 1389 -117 q 1352 -253 1389 -212 q 1223 -294 1315 -294 l 346 -294 q 209 -252 252 -294 q 167 -117 167 -210 l 167 868 q 214 1001 167 954 q 346 1047 261 1047 l 1182 1047 q 1334 1003 1279 1047 q 1389 868 1389 958 l 1389 -117 z "},"{":{"ha":1527,"x_min":167,"x_max":1389,"o":"m 768 704 l 768 529 q 747 434 768 464 q 682 385 726 404 q 748 329 728 365 q 768 227 768 293 l 768 71 q 788 -24 768 12 q 840 -61 807 -61 l 840 -93 q 702 -55 751 -92 q 653 77 653 -18 l 653 249 q 578 371 653 355 l 578 396 q 653 517 653 417 l 653 704 q 840 864 653 858 l 840 832 q 787 795 806 823 q 768 704 768 768 m 346 997 q 250 964 283 997 q 216 868 216 930 l 216 -74 q 346 -189 216 -189 l 1140 -189 q 1229 -163 1202 -189 q 1255 -74 1255 -136 l 1255 868 q 1140 997 1255 997 l 346 997 m 1389 -117 q 1352 -253 1389 -212 q 1223 -294 1315 -294 l 346 -294 q 209 -252 252 -294 q 167 -117 167 -210 l 167 868 q 214 1001 167 954 q 346 1047 261 1047 l 1182 1047 q 1334 1003 1279 1047 q 1389 868 1389 958 l 1389 -117 z "},"|":{"ha":1527,"x_min":167,"x_max":1389,"o":"m 781 -147 l 720 -147 l 720 822 l 781 822 l 781 -147 m 346 997 q 250 964 283 997 q 216 868 216 930 l 216 -74 q 346 -189 216 -189 l 1140 -189 q 1229 -163 1202 -189 q 1255 -74 1255 -136 l 1255 868 q 1140 997 1255 997 l 346 997 m 1389 -117 q 1352 -253 1389 -212 q 1223 -294 1315 -294 l 346 -294 q 209 -252 252 -294 q 167 -117 167 -210 l 167 868 q 214 1001 167 954 q 346 1047 261 1047 l 1182 1047 q 1334 1003 1279 1047 q 1389 868 1389 958 l 1389 -117 z "},"}":{"ha":1527,"x_min":167,"x_max":1389,"o":"m 746 676 q 727 767 746 740 q 673 804 708 794 l 673 836 q 861 676 861 831 l 861 489 q 936 368 861 389 l 936 343 q 861 221 861 326 l 861 49 q 812 -82 861 -45 q 673 -121 762 -119 l 673 -89 q 726 -52 707 -89 q 746 43 746 -16 l 746 199 q 766 301 746 265 q 832 357 786 338 q 767 406 787 376 q 746 501 746 436 l 746 676 m 346 997 q 250 964 283 997 q 216 868 216 930 l 216 -74 q 346 -189 216 -189 l 1140 -189 q 1229 -163 1202 -189 q 1255 -74 1255 -136 l 1255 868 q 1140 997 1255 997 l 346 997 m 1389 -117 q 1352 -253 1389 -212 q 1223 -294 1315 -294 l 346 -294 q 209 -252 252 -294 q 167 -117 167 -210 l 167 868 q 214 1001 167 954 q 346 1047 261 1047 l 1182 1047 q 1334 1003 1279 1047 q 1389 868 1389 958 l 1389 -117 z "},"~":{"ha":1527,"x_min":167,"x_max":1389,"o":"m 539 330 q 590 435 550 387 q 677 482 631 482 q 758 446 703 482 q 839 410 814 410 q 937 472 908 410 l 965 457 q 936 388 954 417 q 897 347 917 359 q 862 331 876 335 q 835 326 847 326 q 753 361 804 326 q 671 396 703 395 q 611 374 642 396 q 561 317 581 353 l 539 330 m 346 997 q 250 964 283 997 q 216 868 216 930 l 216 -74 q 346 -189 216 -189 l 1140 -189 q 1229 -163 1202 -189 q 1255 -74 1255 -136 l 1255 868 q 1140 997 1255 997 l 346 997 m 1389 -117 q 1352 -253 1389 -212 q 1223 -294 1315 -294 l 346 -294 q 209 -252 252 -294 q 167 -117 167 -210 l 167 868 q 214 1001 167 954 q 346 1047 261 1047 l 1182 1047 q 1334 1003 1279 1047 q 1389 868 1389 958 l 1389 -117 z "},"":{"ha":1527,"x_min":167,"x_max":1389,"o":"m 721 -45 q 676 -25 696 -45 q 657 31 657 -5 q 670 135 657 69 q 686 232 682 201 q 704 422 689 249 q 721 443 707 444 q 736 429 736 443 q 742 352 736 424 q 754 232 749 281 q 771 135 758 199 q 783 31 783 72 q 764 -26 783 -7 q 721 -45 745 -45 m 789 586 l 789 582 q 725 519 770 537 l 722 519 q 659 582 675 538 l 659 586 q 722 648 678 637 l 725 648 q 767 629 753 643 q 789 586 781 615 m 346 997 q 250 964 283 997 q 216 868 216 930 l 216 -74 q 346 -189 216 -189 l 1140 -189 q 1229 -163 1202 -189 q 1255 -74 1255 -136 l 1255 868 q 1140 997 1255 997 l 346 997 m 1389 -117 q 1352 -253 1389 -212 q 1223 -294 1315 -294 l 346 -294 q 209 -252 252 -294 q 167 -117 167 -210 l 167 868 q 214 1001 167 954 q 346 1047 261 1047 l 1182 1047 q 1334 1003 1279 1047 q 1389 868 1389 958 l 1389 -117 z "},"":{"ha":1527,"x_min":167,"x_max":1389,"o":"m 736 672 l 771 672 l 771 562 q 898 532 846 559 l 899 530 l 878 435 l 861 433 q 771 510 821 502 l 771 202 q 774 202 771 202 q 884 260 838 202 l 886 260 q 907 236 905 249 q 853 174 890 200 q 771 142 817 147 l 771 58 l 736 58 l 736 141 q 587 201 641 146 q 534 346 534 257 q 591 494 534 436 q 736 561 648 553 l 736 672 m 346 997 q 250 964 283 997 q 216 868 216 930 l 216 -74 q 346 -189 216 -189 l 1140 -189 q 1229 -163 1202 -189 q 1255 -74 1255 -136 l 1255 868 q 1140 997 1255 997 l 346 997 m 1389 -117 q 1352 -253 1389 -212 q 1223 -294 1315 -294 l 346 -294 q 209 -252 252 -294 q 167 -117 167 -210 l 167 868 q 214 1001 167 954 q 346 1047 261 1047 l 1182 1047 q 1334 1003 1279 1047 q 1389 868 1389 958 l 1389 -117 m 736 209 l 736 508 q 673 464 696 499 q 649 370 649 429 q 673 267 649 311 q 736 209 696 224 z "},"":{"ha":1527,"x_min":167,"x_max":1389,"o":"m 346 997 q 250 964 283 997 q 216 868 216 930 l 216 -74 q 346 -189 216 -189 l 1140 -189 q 1229 -163 1202 -189 q 1255 -74 1255 -136 l 1255 868 q 1140 997 1255 997 l 346 997 m 1389 -117 q 1352 -253 1389 -212 q 1223 -294 1315 -294 l 346 -294 q 209 -252 252 -294 q 167 -117 167 -210 l 167 868 q 214 1001 167 954 q 346 1047 261 1047 l 1182 1047 q 1334 1003 1279 1047 q 1389 868 1389 958 l 1389 -117 m 703 519 l 708 449 l 843 449 q 852 441 852 449 l 852 408 q 822 395 852 395 l 708 395 q 690 284 708 332 q 655 217 672 236 q 610 172 637 197 l 615 172 q 742 146 693 172 q 823 119 790 119 q 953 165 915 119 l 975 144 q 802 47 924 47 q 690 83 745 47 q 581 118 635 118 q 533 86 533 118 q 518 53 533 65 q 479 41 503 41 q 448 51 461 41 q 435 77 435 61 q 504 138 435 104 q 563 226 550 171 q 576 375 576 281 l 576 395 l 498 395 q 492 400 492 395 l 492 425 q 521 449 492 449 l 576 449 l 576 463 q 598 574 576 530 q 673 665 621 618 q 888 736 754 736 q 940 726 918 736 l 942 722 q 918 629 932 709 l 893 628 q 888 635 892 631 q 883 643 885 640 q 877 650 880 646 q 871 657 873 654 q 863 663 868 660 q 854 668 859 667 q 844 671 850 669 q 833 672 839 672 q 738 635 777 672 q 703 519 699 597 z "},"":{"ha":1527,"x_min":167,"x_max":1389,"o":"m 637 508 q 620 489 637 508 q 602 417 602 471 q 636 326 602 363 q 722 289 671 289 q 809 325 775 289 q 843 415 843 361 q 807 507 843 469 q 725 545 771 545 q 637 508 673 545 m 722 232 q 618 257 664 232 q 571 197 604 239 l 507 258 l 562 302 q 518 415 517 359 q 564 530 518 476 q 510 574 525 559 l 567 632 l 618 575 q 725 602 668 602 q 828 574 777 602 q 856 608 836 585 q 880 637 875 632 l 942 574 l 885 528 q 928 415 928 475 q 885 306 928 361 q 939 260 930 269 l 884 199 l 831 260 q 722 232 782 232 m 346 997 q 250 964 283 997 q 216 868 216 930 l 216 -74 q 346 -189 216 -189 l 1140 -189 q 1229 -163 1202 -189 q 1255 -74 1255 -136 l 1255 868 q 1140 997 1255 997 l 346 997 m 1389 -117 q 1352 -253 1389 -212 q 1223 -294 1315 -294 l 346 -294 q 209 -252 252 -294 q 167 -117 167 -210 l 167 868 q 214 1001 167 954 q 346 1047 261 1047 l 1182 1047 q 1334 1003 1279 1047 q 1389 868 1389 958 l 1389 -117 z "},"":{"ha":1527,"x_min":167,"x_max":1389,"o":"m 500 338 q 494 345 494 338 l 494 358 q 517 379 494 379 l 621 379 q 537 541 602 414 q 454 699 473 667 q 509 694 470 694 q 559 699 545 694 q 690 414 625 528 q 718 462 705 438 q 747 521 731 486 q 769 572 762 556 q 796 637 776 587 q 821 699 817 688 q 860 694 831 694 q 899 699 886 694 q 726 379 827 574 l 860 379 q 867 374 867 379 l 867 351 q 843 338 867 338 l 717 338 q 718 272 717 317 l 860 272 q 867 267 867 272 l 867 244 q 843 232 867 232 l 719 232 q 725 96 722 130 q 676 100 709 100 q 629 96 644 100 q 635 232 634 136 l 500 232 q 494 237 494 232 l 494 252 q 517 272 494 273 l 635 272 q 636 338 636 305 l 500 338 m 346 997 q 250 964 283 997 q 216 868 216 930 l 216 -74 q 346 -189 216 -189 l 1140 -189 q 1229 -163 1202 -189 q 1255 -74 1255 -136 l 1255 868 q 1140 997 1255 997 l 346 997 m 1389 -117 q 1352 -253 1389 -212 q 1223 -294 1315 -294 l 346 -294 q 209 -252 252 -294 q 167 -117 167 -210 l 167 868 q 214 1001 167 954 q 346 1047 261 1047 l 1182 1047 q 1334 1003 1279 1047 q 1389 868 1389 958 l 1389 -117 z "},"":{"ha":1527,"x_min":167,"x_max":1389,"o":"m 739 757 l 739 386 l 677 386 l 677 757 l 739 757 m 739 271 l 739 -100 l 677 -100 l 677 271 l 739 271 m 346 997 q 250 964 283 997 q 216 868 216 930 l 216 -74 q 346 -189 216 -189 l 1140 -189 q 1229 -163 1202 -189 q 1255 -74 1255 -136 l 1255 868 q 1140 997 1255 997 l 346 997 m 1389 -117 q 1352 -253 1389 -212 q 1223 -294 1315 -294 l 346 -294 q 209 -252 252 -294 q 167 -117 167 -210 l 167 868 q 214 1001 167 954 q 346 1047 261 1047 l 1182 1047 q 1334 1003 1279 1047 q 1389 868 1389 958 l 1389 -117 z "},"":{"ha":1527,"x_min":167,"x_max":1389,"o":"m 346 997 q 250 964 283 997 q 216 868 216 930 l 216 -74 q 346 -189 216 -189 l 1140 -189 q 1229 -163 1202 -189 q 1255 -74 1255 -136 l 1255 868 q 1140 997 1255 997 l 346 997 m 1389 -117 q 1352 -253 1389 -212 q 1223 -294 1315 -294 l 346 -294 q 209 -252 252 -294 q 167 -117 167 -210 l 167 868 q 214 1001 167 954 q 346 1047 261 1047 l 1182 1047 q 1334 1003 1279 1047 q 1389 868 1389 958 l 1389 -117 m 627 486 q 607 403 607 461 q 621 339 607 368 q 665 286 635 310 q 718 249 694 262 q 779 215 741 235 q 824 189 804 202 q 844 272 844 214 q 830 336 844 307 q 787 389 817 366 q 734 426 757 412 q 672 460 711 440 q 627 486 648 473 m 590 516 q 536 623 536 568 q 595 723 536 675 q 728 770 653 770 q 895 704 818 770 l 899 699 l 880 614 l 865 611 q 801 687 842 654 q 720 720 760 720 q 642 643 642 720 q 657 586 642 607 q 714 549 673 566 q 947 313 947 453 q 922 228 947 269 q 861 159 897 186 q 916 53 916 107 q 857 -47 916 0 q 724 -94 799 -94 q 557 -29 633 -94 l 553 -24 l 571 61 l 586 64 q 651 -12 610 21 q 732 -45 692 -45 q 810 32 810 -45 q 737 136 810 106 q 504 363 504 228 q 529 448 504 406 q 590 516 555 489 z "},"":{"ha":554,"x_min":115,"x_max":447,"o":"m 323 699 q 341 743 323 725 q 385 762 359 762 q 428 743 410 762 q 447 699 447 725 q 428 655 447 673 q 385 637 410 637 q 341 655 359 637 q 323 699 323 673 m 115 699 q 134 743 115 724 q 178 762 153 762 q 221 743 203 762 q 239 699 239 725 q 221 655 239 673 q 178 637 203 637 q 134 655 153 637 q 115 699 115 673 z "},"":{"ha":1527,"x_min":167,"x_max":1389,"o":"m 346 997 q 250 964 283 997 q 216 868 216 930 l 216 -74 q 346 -189 216 -189 l 1140 -189 q 1229 -163 1202 -189 q 1255 -74 1255 -136 l 1255 868 q 1140 997 1255 997 l 346 997 m 1389 -117 q 1352 -253 1389 -212 q 1223 -294 1315 -294 l 346 -294 q 209 -252 252 -294 q 167 -117 167 -210 l 167 868 q 214 1001 167 954 q 346 1047 261 1047 l 1182 1047 q 1334 1003 1279 1047 q 1389 868 1389 958 l 1389 -117 m 958 525 l 970 468 q 794 288 895 362 q 970 107 883 225 l 958 50 q 681 267 823 193 l 681 309 q 958 525 843 412 m 717 525 l 728 468 q 561 288 632 340 q 728 107 636 235 l 717 50 q 447 267 570 203 l 447 309 q 717 525 579 393 z "},"":{"ha":1527,"x_min":167,"x_max":1389,"o":"m 871 322 l 595 322 q 578 340 578 322 q 587 376 578 354 q 604 397 596 397 l 885 397 q 900 375 901 397 q 890 343 900 364 q 871 322 880 322 m 346 997 q 250 964 283 997 q 216 868 216 930 l 216 -74 q 346 -189 216 -189 l 1140 -189 q 1229 -163 1202 -189 q 1255 -74 1255 -136 l 1255 868 q 1140 997 1255 997 l 346 997 m 1389 -117 q 1352 -253 1389 -212 q 1223 -294 1315 -294 l 346 -294 q 209 -252 252 -294 q 167 -117 167 -210 l 167 868 q 214 1001 167 954 q 346 1047 261 1047 l 1182 1047 q 1334 1003 1279 1047 q 1389 868 1389 958 l 1389 -117 z "},"":{"ha":1527,"x_min":167,"x_max":1389,"o":"m 772 700 q 757 746 772 726 q 714 766 742 766 q 670 746 686 766 q 654 700 654 726 q 671 655 654 673 q 714 637 688 637 q 756 656 741 637 q 772 700 772 675 m 633 782 q 650 799 633 782 q 714 815 667 815 q 794 782 761 815 q 827 702 827 749 q 794 622 827 654 q 714 589 761 589 q 633 622 667 589 q 600 702 600 654 q 633 782 600 749 m 346 997 q 250 964 283 997 q 216 868 216 930 l 216 -74 q 346 -189 216 -189 l 1140 -189 q 1229 -163 1202 -189 q 1255 -74 1255 -136 l 1255 868 q 1140 997 1255 997 l 346 997 m 1389 -117 q 1352 -253 1389 -212 q 1223 -294 1315 -294 l 346 -294 q 209 -252 252 -294 q 167 -117 167 -210 l 167 868 q 214 1001 167 954 q 346 1047 261 1047 l 1182 1047 q 1334 1003 1279 1047 q 1389 868 1389 958 l 1389 -117 z "},"":{"ha":1527,"x_min":167,"x_max":1389,"o":"m 961 61 l 961 -17 l 549 -17 l 549 61 l 961 61 m 790 361 l 968 361 l 968 283 l 790 283 l 790 114 l 713 114 l 713 283 l 534 283 l 534 361 l 713 361 l 713 532 l 790 532 l 790 361 m 346 997 q 250 964 283 997 q 216 868 216 930 l 216 -74 q 346 -189 216 -189 l 1140 -189 q 1229 -163 1202 -189 q 1255 -74 1255 -136 l 1255 868 q 1140 997 1255 997 l 346 997 m 1389 -117 q 1352 -253 1389 -212 q 1223 -294 1315 -294 l 346 -294 q 209 -252 252 -294 q 167 -117 167 -210 l 167 868 q 214 1001 167 954 q 346 1047 261 1047 l 1182 1047 q 1334 1003 1279 1047 q 1389 868 1389 958 l 1389 -117 z "},"":{"ha":1527,"x_min":167,"x_max":1389,"o":"m 346 997 q 250 964 283 997 q 216 868 216 930 l 216 -74 q 346 -189 216 -189 l 1140 -189 q 1229 -163 1202 -189 q 1255 -74 1255 -136 l 1255 868 q 1140 997 1255 997 l 346 997 m 1389 -117 q 1352 -253 1389 -212 q 1223 -294 1315 -294 l 346 -294 q 209 -252 252 -294 q 167 -117 167 -210 l 167 868 q 214 1001 167 954 q 346 1047 261 1047 l 1182 1047 q 1334 1003 1279 1047 q 1389 868 1389 958 l 1389 -117 m 742 823 q 760 826 748 826 q 826 798 802 826 l 837 770 l 699 647 q 656 629 679 629 q 644 634 650 629 q 638 646 638 640 q 648 673 638 661 l 742 823 z "},"":{"ha":1527,"x_min":167,"x_max":1389,"o":"m 810 87 q 671 25 732 25 q 624 35 643 25 q 628 -62 628 -61 q 642 -138 642 -115 q 625 -189 642 -172 l 1140 -189 q 1229 -163 1202 -189 q 1255 -74 1255 -136 l 1255 868 q 1140 997 1255 997 l 346 997 q 250 964 283 997 q 216 868 216 930 l 216 -74 q 346 -189 216 -189 l 549 -189 q 519 -132 519 -166 q 528 -58 519 -114 q 538 33 537 7 q 534 86 538 41 q 526 131 533 96 q 519 180 519 165 l 519 374 l 509 489 l 632 503 q 635 395 635 427 l 635 195 q 690 81 635 81 q 757 98 722 81 q 808 139 791 115 l 808 489 l 924 504 l 924 170 q 925 124 924 139 q 936 95 926 109 q 965 81 946 81 q 989 89 981 81 l 997 97 q 1005 90 1000 97 q 1011 78 1011 83 q 999 63 1011 74 q 963 40 987 52 q 914 28 939 28 q 811 87 832 28 l 810 87 m 1389 -117 q 1352 -253 1389 -212 q 1223 -294 1315 -294 l 346 -294 q 209 -252 252 -294 q 167 -117 167 -210 l 167 868 q 214 1001 167 954 q 346 1047 261 1047 l 1182 1047 q 1334 1003 1279 1047 q 1389 868 1389 958 l 1389 -117 z "},"":{"ha":1527,"x_min":167,"x_max":1389,"o":"m 724 289 q 673 310 693 289 q 653 358 653 330 q 674 408 653 386 q 724 429 694 429 q 772 408 750 429 q 794 358 794 387 q 773 310 794 330 q 724 289 753 289 m 346 997 q 250 964 283 997 q 216 868 216 930 l 216 -74 q 346 -189 216 -189 l 1140 -189 q 1229 -163 1202 -189 q 1255 -74 1255 -136 l 1255 868 q 1140 997 1255 997 l 346 997 m 1389 -117 q 1352 -253 1389 -212 q 1223 -294 1315 -294 l 346 -294 q 209 -252 252 -294 q 167 -117 167 -210 l 167 868 q 214 1001 167 954 q 346 1047 261 1047 l 1182 1047 q 1334 1003 1279 1047 q 1389 868 1389 958 l 1389 -117 z "},"":{"ha":1527,"x_min":167,"x_max":1389,"o":"m 346 997 q 250 964 283 997 q 216 868 216 930 l 216 -74 q 346 -189 216 -189 l 1140 -189 q 1229 -163 1202 -189 q 1255 -74 1255 -136 l 1255 868 q 1140 997 1255 997 l 346 997 m 1389 -117 q 1352 -253 1389 -212 q 1223 -294 1315 -294 l 346 -294 q 209 -252 252 -294 q 167 -117 167 -210 l 167 868 q 214 1001 167 954 q 346 1047 261 1047 l 1182 1047 q 1334 1003 1279 1047 q 1389 868 1389 958 l 1389 -117 m 689 165 l 675 180 l 720 279 l 771 279 l 747 220 q 822 198 799 220 q 844 147 844 175 q 811 85 844 110 q 726 60 778 60 q 637 80 682 60 l 654 121 q 721 106 693 105 q 756 116 742 106 q 771 142 771 126 q 763 162 771 154 q 739 171 754 171 q 689 165 705 171 z "},"":{"ha":1527,"x_min":167,"x_max":1389,"o":"m 346 997 q 250 964 283 997 q 216 868 216 930 l 216 -74 q 346 -189 216 -189 l 1140 -189 q 1229 -163 1202 -189 q 1255 -74 1255 -136 l 1255 868 q 1140 997 1255 997 l 346 997 m 1389 -117 q 1352 -253 1389 -212 q 1223 -294 1315 -294 l 346 -294 q 209 -252 252 -294 q 167 -117 167 -210 l 167 868 q 214 1001 167 954 q 346 1047 261 1047 l 1182 1047 q 1334 1003 1279 1047 q 1389 868 1389 958 l 1389 -117 m 500 50 l 489 107 q 664 288 564 213 q 489 468 575 350 l 500 525 q 778 309 635 382 l 778 267 q 500 50 615 163 m 742 50 l 730 107 q 897 288 826 235 q 730 468 822 340 l 742 525 q 1011 309 889 372 l 1011 267 q 742 50 880 182 z "},"":{"ha":1527,"x_min":167,"x_max":1389,"o":"m 346 997 q 250 964 283 997 q 216 868 216 930 l 216 -74 q 346 -189 216 -189 l 1140 -189 q 1229 -163 1202 -189 q 1255 -74 1255 -136 l 1255 868 q 1140 997 1255 997 l 346 997 m 1389 -117 q 1352 -253 1389 -212 q 1223 -294 1315 -294 l 346 -294 q 209 -252 252 -294 q 167 -117 167 -210 l 167 868 q 214 1001 167 954 q 346 1047 261 1047 l 1182 1047 q 1334 1003 1279 1047 q 1389 868 1389 958 l 1389 -117 m 648 926 l 806 817 q 822 790 823 806 q 806 774 822 773 q 761 783 796 774 l 593 832 l 585 848 q 648 926 597 892 m 712 576 q 612 345 637 402 q 666 343 627 345 q 721 342 705 342 q 808 343 753 342 q 712 576 766 453 m 588 285 q 505 54 527 134 q 458 57 493 57 q 400 54 412 57 q 707 742 550 379 l 781 742 q 881 496 817 656 q 995 218 946 336 q 1065 54 1043 100 q 981 57 1047 57 q 907 54 925 57 q 829 286 883 141 q 726 288 761 288 q 588 285 665 288 z "},"":{"ha":1527,"x_min":167,"x_max":1389,"o":"m 346 997 q 250 964 283 997 q 216 868 216 930 l 216 -74 q 346 -189 216 -189 l 1140 -189 q 1229 -163 1202 -189 q 1255 -74 1255 -136 l 1255 868 q 1140 997 1255 997 l 346 997 m 1389 -117 q 1352 -253 1389 -212 q 1223 -294 1315 -294 l 346 -294 q 209 -252 252 -294 q 167 -117 167 -210 l 167 868 q 214 1001 167 954 q 346 1047 261 1047 l 1182 1047 q 1334 1003 1279 1047 q 1389 868 1389 958 l 1389 -117 m 817 926 q 880 848 868 892 l 872 832 l 704 783 q 661 774 669 774 q 643 790 643 774 q 660 817 643 806 l 817 926 m 712 576 q 612 345 637 402 q 666 343 627 345 q 721 342 705 342 q 808 343 753 342 q 712 576 766 453 m 588 285 q 505 54 527 134 q 458 57 493 57 q 400 54 412 57 q 707 742 550 379 l 781 742 q 881 496 817 656 q 995 218 946 336 q 1065 54 1043 100 q 981 57 1047 57 q 907 54 925 57 q 829 286 883 141 q 726 288 761 288 q 588 285 665 288 z "},"":{"ha":1527,"x_min":167,"x_max":1389,"o":"m 346 997 q 250 964 283 997 q 216 868 216 930 l 216 -74 q 346 -189 216 -189 l 1140 -189 q 1229 -163 1202 -189 q 1255 -74 1255 -136 l 1255 868 q 1140 997 1255 997 l 346 997 m 1389 -117 q 1352 -253 1389 -212 q 1223 -294 1315 -294 l 346 -294 q 209 -252 252 -294 q 167 -117 167 -210 l 167 868 q 214 1001 167 954 q 346 1047 261 1047 l 1182 1047 q 1334 1003 1279 1047 q 1389 868 1389 958 l 1389 -117 m 900 804 l 882 775 q 834 795 858 783 q 781 822 810 807 q 736 843 751 836 q 691 822 720 836 q 638 795 663 807 q 590 775 614 783 l 572 804 q 720 940 629 850 l 753 940 q 900 804 800 889 m 712 576 q 612 345 637 402 q 666 343 627 345 q 721 342 705 342 q 808 343 753 342 q 712 576 766 453 m 588 285 q 505 54 527 134 q 458 57 493 57 q 400 54 412 57 q 707 742 550 379 l 781 742 q 881 496 817 656 q 995 218 946 336 q 1065 54 1043 100 q 981 57 1047 57 q 907 54 925 57 q 829 286 883 141 q 726 288 761 288 q 588 285 665 288 z "},"":{"ha":1527,"x_min":167,"x_max":1389,"o":"m 346 997 q 250 964 283 997 q 216 868 216 930 l 216 -74 q 346 -189 216 -189 l 1140 -189 q 1229 -163 1202 -189 q 1255 -74 1255 -136 l 1255 868 q 1140 997 1255 997 l 346 997 m 1389 -117 q 1352 -253 1389 -212 q 1223 -294 1315 -294 l 346 -294 q 209 -252 252 -294 q 167 -117 167 -210 l 167 868 q 214 1001 167 954 q 346 1047 261 1047 l 1182 1047 q 1334 1003 1279 1047 q 1389 868 1389 958 l 1389 -117 m 828 859 q 861 871 849 859 q 884 924 872 884 l 916 913 q 879 822 905 854 q 812 789 853 789 q 738 823 783 789 q 671 854 692 854 q 637 840 648 854 q 616 793 625 827 l 585 802 q 621 892 598 863 q 680 922 643 922 q 765 886 720 922 q 828 859 802 859 m 712 576 q 612 345 637 402 q 666 343 627 345 q 721 342 705 342 q 808 343 753 342 q 712 576 766 453 m 588 285 q 505 54 527 134 q 458 57 493 57 q 400 54 412 57 q 707 742 550 379 l 781 742 q 881 496 817 656 q 995 218 946 336 q 1065 54 1043 100 q 981 57 1047 57 q 907 54 925 57 q 829 286 883 141 q 726 288 761 288 q 588 285 665 288 z "},"":{"ha":1527,"x_min":167,"x_max":1389,"o":"m 860 778 q 851 787 860 778 q 842 821 842 795 q 861 864 842 846 q 905 882 879 882 q 948 864 929 882 q 966 821 966 846 q 948 778 966 796 q 905 760 929 760 q 860 778 878 760 m 539 778 q 529 787 539 778 q 520 821 520 795 q 539 864 520 846 q 583 882 557 882 q 626 864 608 882 q 644 821 644 846 q 626 778 644 795 q 583 760 608 760 q 539 778 557 760 m 346 997 q 250 964 283 997 q 216 868 216 930 l 216 -74 q 346 -189 216 -189 l 1140 -189 q 1229 -163 1202 -189 q 1255 -74 1255 -136 l 1255 868 q 1140 997 1255 997 l 346 997 m 1389 -117 q 1352 -253 1389 -212 q 1223 -294 1315 -294 l 346 -294 q 209 -252 252 -294 q 167 -117 167 -210 l 167 868 q 214 1001 167 954 q 346 1047 261 1047 l 1182 1047 q 1334 1003 1279 1047 q 1389 868 1389 958 l 1389 -117 m 712 576 q 612 345 637 402 q 666 343 627 345 q 721 342 705 342 q 808 343 753 342 q 712 576 766 453 m 588 285 q 505 54 527 134 q 458 57 493 57 q 400 54 412 57 q 707 742 550 379 l 781 742 q 881 496 817 656 q 995 218 946 336 q 1065 54 1043 100 q 981 57 1047 57 q 907 54 925 57 q 829 286 883 141 q 726 288 761 288 q 588 285 665 288 z "},"":{"ha":1527,"x_min":167,"x_max":1389,"o":"m 741 864 q 707 850 721 864 q 693 815 693 836 q 707 781 693 795 q 740 766 721 766 q 773 782 760 766 q 786 815 786 798 q 772 849 786 835 q 741 864 759 864 m 669 883 q 684 897 669 883 q 739 911 699 911 q 809 883 779 911 q 839 815 839 856 q 824 765 839 788 q 785 730 810 743 q 885 487 821 646 q 996 214 949 328 q 1065 54 1043 99 q 981 57 1047 57 q 907 54 925 57 q 829 286 883 141 q 726 288 761 288 q 588 285 665 288 q 505 54 527 134 q 458 57 493 57 q 400 54 412 57 q 701 727 547 372 q 657 762 674 738 q 640 815 640 785 q 669 883 640 855 m 346 997 q 250 964 283 997 q 216 868 216 930 l 216 -74 q 346 -189 216 -189 l 1140 -189 q 1229 -163 1202 -189 q 1255 -74 1255 -136 l 1255 868 q 1140 997 1255 997 l 346 997 m 1389 -117 q 1352 -253 1389 -212 q 1223 -294 1315 -294 l 346 -294 q 209 -252 252 -294 q 167 -117 167 -210 l 167 868 q 214 1001 167 954 q 346 1047 261 1047 l 1182 1047 q 1334 1003 1279 1047 q 1389 868 1389 958 l 1389 -117 m 712 576 q 612 345 637 402 q 666 343 627 345 q 721 342 705 342 q 808 343 753 342 q 712 576 766 453 z "},"":{"ha":1527,"x_min":167,"x_max":1389,"o":"m 688 -61 l 673 -47 l 717 48 q 486 153 567 57 q 406 397 406 250 q 509 647 406 553 q 765 742 612 742 q 880 731 821 742 q 972 707 940 720 l 1003 696 l 1006 692 q 985 557 987 623 l 960 555 q 750 681 897 680 q 615 615 673 681 q 557 406 557 550 q 608 202 557 282 q 764 122 660 122 q 897 145 840 122 q 1006 227 953 168 l 1029 187 q 912 89 982 125 q 768 48 842 54 l 746 -5 q 820 -28 798 -5 q 843 -79 843 -52 q 810 -142 843 -117 q 725 -167 777 -167 q 636 -146 681 -167 l 653 -105 q 720 -121 692 -121 q 755 -110 741 -121 q 770 -85 770 -100 q 761 -64 770 -73 q 737 -56 753 -56 q 688 -61 704 -56 m 346 997 q 250 964 283 997 q 216 868 216 930 l 216 -74 q 346 -189 216 -189 l 1140 -189 q 1229 -163 1202 -189 q 1255 -74 1255 -136 l 1255 868 q 1140 997 1255 997 l 346 997 m 1389 -117 q 1352 -253 1389 -212 q 1223 -294 1315 -294 l 346 -294 q 209 -252 252 -294 q 167 -117 167 -210 l 167 868 q 214 1001 167 954 q 346 1047 261 1047 l 1182 1047 q 1334 1003 1279 1047 q 1389 868 1389 958 l 1389 -117 z "},"":{"ha":1527,"x_min":167,"x_max":1389,"o":"m 629 265 q 637 122 629 153 q 773 125 700 122 q 890 132 847 127 l 932 135 l 933 131 q 932 113 933 127 q 932 94 932 100 q 932 76 932 89 q 933 57 933 64 l 932 53 q 869 57 907 57 l 562 57 l 486 53 l 486 57 q 496 265 496 122 l 496 519 q 486 728 496 660 l 488 732 q 562 728 528 728 l 859 728 q 921 732 896 728 l 924 728 q 921 692 921 700 q 924 660 921 676 l 921 656 q 637 668 778 668 q 629 519 629 637 l 629 439 q 861 449 718 439 l 865 446 q 861 412 861 432 q 865 378 861 391 l 861 375 q 629 386 747 386 l 629 265 m 346 997 q 250 964 283 997 q 216 868 216 930 l 216 -74 q 346 -189 216 -189 l 1140 -189 q 1229 -163 1202 -189 q 1255 -74 1255 -136 l 1255 868 q 1140 997 1255 997 l 346 997 m 1389 -117 q 1352 -253 1389 -212 q 1223 -294 1315 -294 l 346 -294 q 209 -252 252 -294 q 167 -117 167 -210 l 167 868 q 214 1001 167 954 q 346 1047 261 1047 l 1182 1047 q 1334 1003 1279 1047 q 1389 868 1389 958 l 1389 -117 m 648 940 l 806 831 q 822 804 823 820 q 806 787 822 787 q 761 798 796 787 l 593 846 l 585 863 q 648 940 597 905 z "},"":{"ha":1527,"x_min":167,"x_max":1389,"o":"m 629 265 q 637 122 629 153 q 773 125 700 122 q 890 132 847 127 l 932 135 l 933 131 q 932 113 933 127 q 932 94 932 100 q 932 76 932 89 q 933 57 933 64 l 932 53 q 869 57 907 57 l 562 57 l 486 53 l 486 57 q 496 265 496 122 l 496 519 q 486 728 496 660 l 488 732 q 562 728 528 728 l 859 728 q 921 732 896 728 l 924 728 q 921 692 921 700 q 924 660 921 676 l 921 656 q 637 668 778 668 q 629 519 629 637 l 629 439 q 861 449 718 439 l 865 446 q 861 412 861 432 q 865 378 861 391 l 861 375 q 629 386 747 386 l 629 265 m 346 997 q 250 964 283 997 q 216 868 216 930 l 216 -74 q 346 -189 216 -189 l 1140 -189 q 1229 -163 1202 -189 q 1255 -74 1255 -136 l 1255 868 q 1140 997 1255 997 l 346 997 m 1389 -117 q 1352 -253 1389 -212 q 1223 -294 1315 -294 l 346 -294 q 209 -252 252 -294 q 167 -117 167 -210 l 167 868 q 214 1001 167 954 q 346 1047 261 1047 l 1182 1047 q 1334 1003 1279 1047 q 1389 868 1389 958 l 1389 -117 m 803 940 q 867 863 854 905 l 859 846 l 690 798 q 647 787 656 788 q 629 804 629 787 q 646 831 629 820 l 803 940 z "},"":{"ha":1527,"x_min":167,"x_max":1389,"o":"m 629 265 q 637 122 629 153 q 773 125 700 122 q 890 132 847 127 l 932 135 l 933 131 q 932 113 933 127 q 932 94 932 100 q 932 76 932 89 q 933 57 933 64 l 932 53 q 869 57 907 57 l 562 57 l 486 53 l 486 57 q 496 265 496 122 l 496 519 q 486 728 496 660 l 488 732 q 562 728 528 728 l 859 728 q 921 732 896 728 l 924 728 q 921 692 921 700 q 924 660 921 676 l 921 656 q 637 668 778 668 q 629 519 629 637 l 629 439 q 861 449 718 439 l 865 446 q 861 412 861 432 q 865 378 861 391 l 861 375 q 629 386 747 386 l 629 265 m 346 997 q 250 964 283 997 q 216 868 216 930 l 216 -74 q 346 -189 216 -189 l 1140 -189 q 1229 -163 1202 -189 q 1255 -74 1255 -136 l 1255 868 q 1140 997 1255 997 l 346 997 m 1389 -117 q 1352 -253 1389 -212 q 1223 -294 1315 -294 l 346 -294 q 209 -252 252 -294 q 167 -117 167 -210 l 167 868 q 214 1001 167 954 q 346 1047 261 1047 l 1182 1047 q 1334 1003 1279 1047 q 1389 868 1389 958 l 1389 -117 m 872 804 l 854 775 q 806 795 831 783 q 753 822 782 807 q 708 843 724 836 q 664 822 692 836 q 610 795 635 807 q 562 775 586 783 l 545 804 q 692 940 602 850 l 725 940 q 872 804 772 889 z "},"":{"ha":1527,"x_min":167,"x_max":1389,"o":"m 775 906 q 783 914 775 906 q 815 922 791 922 q 856 906 839 922 q 873 865 873 889 q 856 824 873 842 q 815 807 839 807 q 775 824 791 807 q 760 865 760 842 q 775 906 760 889 m 619 921 q 660 904 644 921 q 675 864 675 888 q 660 824 675 840 q 619 807 644 807 q 579 824 595 807 q 562 864 562 840 q 579 904 562 888 q 619 921 595 921 m 629 265 q 637 122 629 153 q 773 125 700 122 q 890 132 847 127 l 932 135 l 933 131 q 932 113 933 127 q 932 94 932 100 q 932 76 932 89 q 933 57 933 64 l 932 53 q 869 57 907 57 l 562 57 l 486 53 l 486 57 q 496 265 496 122 l 496 519 q 486 728 496 660 l 488 732 q 562 728 528 728 l 859 728 q 921 732 896 728 l 924 728 q 921 692 921 700 q 924 660 921 676 l 921 656 q 637 668 778 668 q 629 519 629 637 l 629 439 q 861 449 718 439 l 865 446 q 861 412 861 432 q 865 378 861 391 l 861 375 q 629 386 747 386 l 629 265 m 346 997 q 250 964 283 997 q 216 868 216 930 l 216 -74 q 346 -189 216 -189 l 1140 -189 q 1229 -163 1202 -189 q 1255 -74 1255 -136 l 1255 868 q 1140 997 1255 997 l 346 997 m 1389 -117 q 1352 -253 1389 -212 q 1223 -294 1315 -294 l 346 -294 q 209 -252 252 -294 q 167 -117 167 -210 l 167 868 q 214 1001 167 954 q 346 1047 261 1047 l 1182 1047 q 1334 1003 1279 1047 q 1389 868 1389 958 l 1389 -117 z "},"":{"ha":1527,"x_min":167,"x_max":1389,"o":"m 669 519 q 659 728 669 650 l 661 732 q 736 728 700 728 q 812 732 736 728 l 814 728 q 803 519 803 656 l 803 265 q 814 57 803 134 l 811 53 q 736 57 772 57 q 660 53 736 57 l 659 57 q 669 265 669 131 l 669 519 m 346 997 q 250 964 283 997 q 216 868 216 930 l 216 -74 q 346 -189 216 -189 l 1140 -189 q 1229 -163 1202 -189 q 1255 -74 1255 -136 l 1255 868 q 1140 997 1255 997 l 346 997 m 1389 -117 q 1352 -253 1389 -212 q 1223 -294 1315 -294 l 346 -294 q 209 -252 252 -294 q 167 -117 167 -210 l 167 868 q 214 1001 167 954 q 346 1047 261 1047 l 1182 1047 q 1334 1003 1279 1047 q 1389 868 1389 958 l 1389 -117 m 690 940 l 847 831 q 864 804 864 820 q 847 787 864 787 q 803 798 838 787 l 635 846 l 627 863 q 690 940 639 905 z "},"":{"ha":1527,"x_min":167,"x_max":1389,"o":"m 669 519 q 659 728 669 650 l 661 732 q 736 728 700 728 q 812 732 736 728 l 814 728 q 803 519 803 656 l 803 265 q 814 57 803 134 l 811 53 q 736 57 772 57 q 660 53 736 57 l 659 57 q 669 265 669 131 l 669 519 m 346 997 q 250 964 283 997 q 216 868 216 930 l 216 -74 q 346 -189 216 -189 l 1140 -189 q 1229 -163 1202 -189 q 1255 -74 1255 -136 l 1255 868 q 1140 997 1255 997 l 346 997 m 1389 -117 q 1352 -253 1389 -212 q 1223 -294 1315 -294 l 346 -294 q 209 -252 252 -294 q 167 -117 167 -210 l 167 868 q 214 1001 167 954 q 346 1047 261 1047 l 1182 1047 q 1334 1003 1279 1047 q 1389 868 1389 958 l 1389 -117 m 803 982 q 867 904 854 947 l 859 888 l 690 839 q 647 829 656 829 q 629 846 629 829 q 646 872 629 861 l 803 982 z "},"":{"ha":1527,"x_min":167,"x_max":1389,"o":"m 669 519 q 659 728 669 650 l 661 732 q 736 728 700 728 q 812 732 736 728 l 814 728 q 803 519 803 656 l 803 265 q 814 57 803 134 l 811 53 q 736 57 772 57 q 660 53 736 57 l 659 57 q 669 265 669 131 l 669 519 m 346 997 q 250 964 283 997 q 216 868 216 930 l 216 -74 q 346 -189 216 -189 l 1140 -189 q 1229 -163 1202 -189 q 1255 -74 1255 -136 l 1255 868 q 1140 997 1255 997 l 346 997 m 1389 -117 q 1352 -253 1389 -212 q 1223 -294 1315 -294 l 346 -294 q 209 -252 252 -294 q 167 -117 167 -210 l 167 868 q 214 1001 167 954 q 346 1047 261 1047 l 1182 1047 q 1334 1003 1279 1047 q 1389 868 1389 958 l 1389 -117 m 904 804 l 886 775 q 838 795 863 783 q 785 822 814 807 q 741 843 755 836 q 696 822 725 836 q 642 795 667 807 q 595 775 618 783 l 576 804 q 724 940 633 850 l 757 940 q 904 804 804 889 z "},"":{"ha":1527,"x_min":167,"x_max":1389,"o":"m 669 519 q 659 728 669 650 l 661 732 q 736 728 700 728 q 812 732 736 728 l 814 728 q 803 519 803 656 l 803 265 q 814 57 803 134 l 811 53 q 736 57 772 57 q 660 53 736 57 l 659 57 q 669 265 669 131 l 669 519 m 346 997 q 250 964 283 997 q 216 868 216 930 l 216 -74 q 346 -189 216 -189 l 1140 -189 q 1229 -163 1202 -189 q 1255 -74 1255 -136 l 1255 868 q 1140 997 1255 997 l 346 997 m 1389 -117 q 1352 -253 1389 -212 q 1223 -294 1315 -294 l 346 -294 q 209 -252 252 -294 q 167 -117 167 -210 l 167 868 q 214 1001 167 954 q 346 1047 261 1047 l 1182 1047 q 1334 1003 1279 1047 q 1389 868 1389 958 l 1389 -117 m 778 868 q 795 910 778 893 q 838 928 812 928 q 879 910 861 928 q 897 868 897 893 q 879 826 897 844 q 838 808 861 808 q 795 826 812 808 q 778 868 778 844 m 568 868 q 586 910 568 893 q 628 928 603 928 q 670 910 653 928 q 688 868 688 893 q 670 826 688 844 q 628 808 653 808 q 586 826 603 808 q 568 868 568 844 z "},"":{"ha":1527,"x_min":167,"x_max":1389,"o":"m 574 151 q 593 117 574 125 q 688 110 612 110 q 871 158 811 110 q 932 353 932 205 q 661 676 932 676 q 595 668 616 676 q 574 635 574 660 l 574 396 l 623 396 l 623 355 l 574 355 l 574 151 m 507 728 q 604 730 546 728 q 700 732 663 732 q 967 626 851 732 q 1083 378 1083 521 q 1048 219 1083 286 q 956 119 1013 153 q 840 70 899 85 q 720 54 781 54 q 604 56 663 54 q 507 57 546 57 l 431 53 l 429 57 q 440 265 440 131 l 440 355 l 340 355 l 340 396 l 440 396 l 440 519 q 429 728 440 650 l 432 732 q 507 728 471 728 m 346 997 q 250 964 283 997 q 216 868 216 930 l 216 -74 q 346 -189 216 -189 l 1140 -189 q 1229 -163 1202 -189 q 1255 -74 1255 -136 l 1255 868 q 1140 997 1255 997 l 346 997 m 1389 -117 q 1352 -253 1389 -212 q 1223 -294 1315 -294 l 346 -294 q 209 -252 252 -294 q 167 -117 167 -210 l 167 868 q 214 1001 167 954 q 346 1047 261 1047 l 1182 1047 q 1334 1003 1279 1047 q 1389 868 1389 958 l 1389 -117 z "},"":{"ha":1527,"x_min":167,"x_max":1389,"o":"m 827 854 q 859 867 848 854 q 883 920 871 880 l 915 909 q 878 818 903 850 q 811 785 852 785 q 736 819 782 785 q 669 850 690 850 q 635 836 647 850 q 614 789 624 823 l 584 798 q 619 888 597 858 q 678 918 642 918 q 764 882 718 918 q 827 854 800 854 m 447 521 q 436 729 447 650 l 439 732 q 513 729 477 729 l 547 730 l 905 268 q 951 210 948 212 q 958 216 956 207 q 960 241 960 224 l 960 521 q 949 729 960 650 l 930 732 q 997 729 972 729 l 1025 732 l 1047 729 q 1036 521 1036 655 l 1036 79 q 1022 56 1036 66 q 994 46 1007 46 q 929 59 954 46 q 868 118 904 72 l 542 530 q 520 562 530 546 l 518 562 q 522 514 522 539 l 522 265 q 533 57 522 134 l 530 54 q 485 57 509 57 l 437 54 l 436 57 q 447 265 447 131 l 447 521 m 346 997 q 250 964 283 997 q 216 868 216 930 l 216 -74 q 346 -189 216 -189 l 1140 -189 q 1229 -163 1202 -189 q 1255 -74 1255 -136 l 1255 868 q 1140 997 1255 997 l 346 997 m 1389 -117 q 1352 -253 1389 -212 q 1223 -294 1315 -294 l 346 -294 q 209 -252 252 -294 q 167 -117 167 -210 l 167 868 q 214 1001 167 954 q 346 1047 261 1047 l 1182 1047 q 1334 1003 1279 1047 q 1389 868 1389 958 l 1389 -117 z "},"":{"ha":1527,"x_min":167,"x_max":1389,"o":"m 733 686 q 597 618 650 686 q 545 397 545 550 q 607 178 545 253 q 768 103 669 103 q 954 380 954 103 q 900 613 954 541 q 733 686 846 686 m 1105 400 q 1009 145 1105 242 q 747 47 913 47 q 493 140 592 47 q 393 380 393 233 q 492 638 393 534 q 747 742 590 742 q 1009 649 913 742 q 1105 400 1105 555 m 346 997 q 250 964 283 997 q 216 868 216 930 l 216 -74 q 346 -189 216 -189 l 1140 -189 q 1229 -163 1202 -189 q 1255 -74 1255 -136 l 1255 868 q 1140 997 1255 997 l 346 997 m 1389 -117 q 1352 -253 1389 -212 q 1223 -294 1315 -294 l 346 -294 q 209 -252 252 -294 q 167 -117 167 -210 l 167 868 q 214 1001 167 954 q 346 1047 261 1047 l 1182 1047 q 1334 1003 1279 1047 q 1389 868 1389 958 l 1389 -117 m 690 940 l 847 831 q 864 804 864 820 q 847 787 864 787 q 803 798 838 787 l 635 846 l 627 863 q 690 940 639 905 z "},"":{"ha":1527,"x_min":167,"x_max":1389,"o":"m 733 686 q 597 618 650 686 q 545 397 545 550 q 607 178 545 253 q 768 103 669 103 q 954 380 954 103 q 900 613 954 541 q 733 686 846 686 m 1105 400 q 1009 145 1105 242 q 747 47 913 47 q 493 140 592 47 q 393 380 393 233 q 492 638 393 534 q 747 742 590 742 q 1009 649 913 742 q 1105 400 1105 555 m 346 997 q 250 964 283 997 q 216 868 216 930 l 216 -74 q 346 -189 216 -189 l 1140 -189 q 1229 -163 1202 -189 q 1255 -74 1255 -136 l 1255 868 q 1140 997 1255 997 l 346 997 m 1389 -117 q 1352 -253 1389 -212 q 1223 -294 1315 -294 l 346 -294 q 209 -252 252 -294 q 167 -117 167 -210 l 167 868 q 214 1001 167 954 q 346 1047 261 1047 l 1182 1047 q 1334 1003 1279 1047 q 1389 868 1389 958 l 1389 -117 m 803 940 q 867 863 854 905 l 859 846 l 690 798 q 647 787 656 788 q 629 804 629 787 q 646 831 629 820 l 803 940 z "},"":{"ha":1527,"x_min":167,"x_max":1389,"o":"m 733 686 q 597 618 650 686 q 545 397 545 550 q 607 178 545 253 q 768 103 669 103 q 954 380 954 103 q 900 613 954 541 q 733 686 846 686 m 1105 400 q 1009 145 1105 242 q 747 47 913 47 q 493 140 592 47 q 393 380 393 233 q 492 638 393 534 q 747 742 590 742 q 1009 649 913 742 q 1105 400 1105 555 m 346 997 q 250 964 283 997 q 216 868 216 930 l 216 -74 q 346 -189 216 -189 l 1140 -189 q 1229 -163 1202 -189 q 1255 -74 1255 -136 l 1255 868 q 1140 997 1255 997 l 346 997 m 1389 -117 q 1352 -253 1389 -212 q 1223 -294 1315 -294 l 346 -294 q 209 -252 252 -294 q 167 -117 167 -210 l 167 868 q 214 1001 167 954 q 346 1047 261 1047 l 1182 1047 q 1334 1003 1279 1047 q 1389 868 1389 958 l 1389 -117 m 914 804 l 896 775 q 848 795 872 783 q 794 822 823 807 q 750 843 765 836 q 705 822 734 836 q 652 795 676 807 q 604 775 628 783 l 586 804 q 733 940 643 850 l 766 940 q 914 804 814 889 z "},"":{"ha":1527,"x_min":167,"x_max":1389,"o":"m 823 854 q 856 867 844 854 q 880 920 868 880 l 912 909 q 874 818 901 850 q 808 785 848 785 q 734 819 779 785 q 667 850 688 850 q 632 836 644 850 q 612 789 621 823 l 581 798 q 616 888 593 858 q 675 918 639 918 q 761 882 715 918 q 823 854 797 854 m 733 686 q 597 618 650 686 q 545 397 545 550 q 607 178 545 253 q 768 103 669 103 q 954 380 954 103 q 900 613 954 541 q 733 686 846 686 m 1105 400 q 1009 145 1105 242 q 747 47 913 47 q 493 140 592 47 q 393 380 393 233 q 492 638 393 534 q 747 742 590 742 q 1009 649 913 742 q 1105 400 1105 555 m 346 997 q 250 964 283 997 q 216 868 216 930 l 216 -74 q 346 -189 216 -189 l 1140 -189 q 1229 -163 1202 -189 q 1255 -74 1255 -136 l 1255 868 q 1140 997 1255 997 l 346 997 m 1389 -117 q 1352 -253 1389 -212 q 1223 -294 1315 -294 l 346 -294 q 209 -252 252 -294 q 167 -117 167 -210 l 167 868 q 214 1001 167 954 q 346 1047 261 1047 l 1182 1047 q 1334 1003 1279 1047 q 1389 868 1389 958 l 1389 -117 z "},"":{"ha":1527,"x_min":167,"x_max":1389,"o":"m 935 786 q 927 794 935 786 q 918 825 918 802 q 935 865 918 848 q 975 882 951 882 q 1015 865 999 882 q 1031 825 1031 848 q 1014 786 1031 803 q 975 770 997 770 q 935 786 951 770 m 473 825 q 489 865 473 849 q 529 882 505 882 q 569 865 553 882 q 586 825 586 848 q 569 786 586 802 q 529 770 553 770 q 489 786 505 770 q 473 825 473 803 m 733 686 q 597 618 650 686 q 545 397 545 550 q 607 178 545 253 q 768 103 669 103 q 954 380 954 103 q 900 613 954 541 q 733 686 846 686 m 1105 400 q 1009 145 1105 242 q 747 47 913 47 q 493 140 592 47 q 393 380 393 233 q 492 638 393 534 q 747 742 590 742 q 1009 649 913 742 q 1105 400 1105 555 m 346 997 q 250 964 283 997 q 216 868 216 930 l 216 -74 q 346 -189 216 -189 l 1140 -189 q 1229 -163 1202 -189 q 1255 -74 1255 -136 l 1255 868 q 1140 997 1255 997 l 346 997 m 1389 -117 q 1352 -253 1389 -212 q 1223 -294 1315 -294 l 346 -294 q 209 -252 252 -294 q 167 -117 167 -210 l 167 868 q 214 1001 167 954 q 346 1047 261 1047 l 1182 1047 q 1334 1003 1279 1047 q 1389 868 1389 958 l 1389 -117 z "},"":{"ha":1527,"x_min":167,"x_max":1389,"o":"m 900 447 l 771 319 l 900 193 l 848 142 l 722 270 l 595 142 l 543 193 l 672 319 l 543 447 l 595 498 l 722 370 l 848 498 l 900 447 m 346 997 q 250 964 283 997 q 216 868 216 930 l 216 -74 q 346 -189 216 -189 l 1140 -189 q 1229 -163 1202 -189 q 1255 -74 1255 -136 l 1255 868 q 1140 997 1255 997 l 346 997 m 1389 -117 q 1352 -253 1389 -212 q 1223 -294 1315 -294 l 346 -294 q 209 -252 252 -294 q 167 -117 167 -210 l 167 868 q 214 1001 167 954 q 346 1047 261 1047 l 1182 1047 q 1334 1003 1279 1047 q 1389 868 1389 958 l 1389 -117 z "},"":{"ha":1527,"x_min":167,"x_max":1389,"o":"m 505 26 l 471 53 l 522 116 q 427 229 461 161 q 393 380 393 297 q 492 638 393 534 q 747 742 590 742 q 977 675 884 742 l 1050 765 l 1084 741 l 1010 648 q 1105 400 1106 555 q 1009 145 1105 242 q 747 47 913 47 q 559 92 642 47 l 505 26 m 733 686 q 597 618 650 686 q 545 397 545 550 q 591 201 545 276 l 911 595 q 733 686 859 686 m 346 997 q 250 964 283 997 q 216 868 216 930 l 216 -74 q 346 -189 216 -189 l 1140 -189 q 1229 -163 1202 -189 q 1255 -74 1255 -136 l 1255 868 q 1140 997 1255 997 l 346 997 m 1389 -117 q 1352 -253 1389 -212 q 1223 -294 1315 -294 l 346 -294 q 209 -252 252 -294 q 167 -117 167 -210 l 167 868 q 214 1001 167 954 q 346 1047 261 1047 l 1182 1047 q 1334 1003 1279 1047 q 1389 868 1389 958 l 1389 -117 m 931 551 l 618 165 q 768 103 676 103 q 954 380 954 103 q 931 551 954 485 z "},"":{"ha":1527,"x_min":167,"x_max":1389,"o":"m 925 522 q 914 730 925 651 l 917 733 q 970 730 945 730 q 1022 733 970 730 l 1023 730 q 1014 522 1014 665 l 1014 366 q 728 47 1014 47 q 640 58 682 47 q 555 95 597 69 q 487 175 513 121 q 461 304 461 229 l 461 522 q 452 730 461 661 l 453 733 q 528 730 493 730 l 604 733 l 606 730 q 595 522 595 656 l 595 339 q 596 284 595 307 q 606 225 597 261 q 629 167 614 189 q 675 127 644 144 q 750 110 707 110 q 829 124 796 110 q 881 159 863 138 q 909 214 899 180 q 922 277 920 248 q 925 347 925 307 l 925 522 m 346 997 q 250 964 283 997 q 216 868 216 930 l 216 -74 q 346 -189 216 -189 l 1140 -189 q 1229 -163 1202 -189 q 1255 -74 1255 -136 l 1255 868 q 1140 997 1255 997 l 346 997 m 1389 -117 q 1352 -253 1389 -212 q 1223 -294 1315 -294 l 346 -294 q 209 -252 252 -294 q 167 -117 167 -210 l 167 868 q 214 1001 167 954 q 346 1047 261 1047 l 1182 1047 q 1334 1003 1279 1047 q 1389 868 1389 958 l 1389 -117 m 690 940 l 847 831 q 864 804 864 820 q 847 787 864 787 q 803 798 838 787 l 635 846 l 627 863 q 690 940 639 905 z "},"":{"ha":1527,"x_min":167,"x_max":1389,"o":"m 925 522 q 914 730 925 651 l 917 733 q 970 730 945 730 q 1022 733 970 730 l 1023 730 q 1014 522 1014 665 l 1014 366 q 728 47 1014 47 q 640 58 682 47 q 555 95 597 69 q 487 175 513 121 q 461 304 461 229 l 461 522 q 452 730 461 661 l 453 733 q 528 730 493 730 l 604 733 l 606 730 q 595 522 595 656 l 595 339 q 596 284 595 307 q 606 225 597 261 q 629 167 614 189 q 675 127 644 144 q 750 110 707 110 q 829 124 796 110 q 881 159 863 138 q 909 214 899 180 q 922 277 920 248 q 925 347 925 307 l 925 522 m 346 997 q 250 964 283 997 q 216 868 216 930 l 216 -74 q 346 -189 216 -189 l 1140 -189 q 1229 -163 1202 -189 q 1255 -74 1255 -136 l 1255 868 q 1140 997 1255 997 l 346 997 m 1389 -117 q 1352 -253 1389 -212 q 1223 -294 1315 -294 l 346 -294 q 209 -252 252 -294 q 167 -117 167 -210 l 167 868 q 214 1001 167 954 q 346 1047 261 1047 l 1182 1047 q 1334 1003 1279 1047 q 1389 868 1389 958 l 1389 -117 m 859 940 q 922 863 910 905 l 914 846 l 746 798 q 703 787 711 788 q 685 804 684 787 q 701 831 685 820 l 859 940 z "},"":{"ha":1527,"x_min":167,"x_max":1389,"o":"m 925 522 q 914 730 925 651 l 917 733 q 970 730 945 730 q 1022 733 970 730 l 1023 730 q 1014 522 1014 665 l 1014 366 q 728 47 1014 47 q 640 58 682 47 q 555 95 597 69 q 487 175 513 121 q 461 304 461 229 l 461 522 q 452 730 461 661 l 453 733 q 528 730 493 730 l 604 733 l 606 730 q 595 522 595 656 l 595 339 q 596 284 595 307 q 606 225 597 261 q 629 167 614 189 q 675 127 644 144 q 750 110 707 110 q 829 124 796 110 q 881 159 863 138 q 909 214 899 180 q 922 277 920 248 q 925 347 925 307 l 925 522 m 346 997 q 250 964 283 997 q 216 868 216 930 l 216 -74 q 346 -189 216 -189 l 1140 -189 q 1229 -163 1202 -189 q 1255 -74 1255 -136 l 1255 868 q 1140 997 1255 997 l 346 997 m 1389 -117 q 1352 -253 1389 -212 q 1223 -294 1315 -294 l 346 -294 q 209 -252 252 -294 q 167 -117 167 -210 l 167 868 q 214 1001 167 954 q 346 1047 261 1047 l 1182 1047 q 1334 1003 1279 1047 q 1389 868 1389 958 l 1389 -117 m 928 804 l 909 775 q 862 795 886 783 q 808 822 838 807 q 764 843 779 836 q 719 822 748 836 q 666 795 690 807 q 618 775 642 783 l 600 804 q 747 940 657 850 l 781 940 q 928 804 828 889 z "},"":{"ha":1527,"x_min":167,"x_max":1389,"o":"m 809 787 q 801 795 809 787 q 793 826 793 803 q 810 866 793 850 q 850 882 827 882 q 889 865 872 882 q 905 826 905 848 q 889 788 905 804 q 850 771 872 771 q 809 787 826 771 m 629 788 q 621 796 629 788 q 612 826 612 804 q 629 865 612 848 q 669 882 646 882 q 708 866 692 882 q 725 826 725 850 q 708 787 725 803 q 669 771 692 771 q 629 788 646 771 m 925 522 q 914 730 925 651 l 917 733 q 970 730 945 730 l 1022 733 l 1023 730 q 1014 522 1014 665 l 1014 366 q 728 47 1014 47 q 640 58 682 47 q 555 95 597 69 q 487 175 513 121 q 461 304 461 229 l 461 522 q 452 730 461 661 l 453 733 q 528 730 493 730 l 604 733 l 606 730 q 595 522 595 656 l 595 339 q 596 284 595 307 q 606 225 597 261 q 629 167 614 189 q 675 127 644 144 q 750 110 707 110 q 829 124 796 110 q 881 159 863 138 q 909 214 899 180 q 922 277 920 248 q 925 347 925 307 l 925 522 m 346 997 q 250 964 283 997 q 216 868 216 930 l 216 -74 q 346 -189 216 -189 l 1140 -189 q 1229 -163 1202 -189 q 1255 -74 1255 -136 l 1255 868 q 1140 997 1255 997 l 346 997 m 1389 -117 q 1352 -253 1389 -212 q 1223 -294 1315 -294 l 346 -294 q 209 -252 252 -294 q 167 -117 167 -210 l 167 868 q 214 1001 167 954 q 346 1047 261 1047 l 1182 1047 q 1334 1003 1279 1047 q 1389 868 1389 958 l 1389 -117 z "},"":{"ha":1527,"x_min":167,"x_max":1389,"o":"m 346 997 q 250 964 283 997 q 216 868 216 930 l 216 -74 q 346 -189 216 -189 l 1140 -189 q 1229 -163 1202 -189 q 1255 -74 1255 -136 l 1255 868 q 1140 997 1255 997 l 346 997 m 1389 -117 q 1352 -253 1389 -212 q 1223 -294 1315 -294 l 346 -294 q 209 -252 252 -294 q 167 -117 167 -210 l 167 868 q 214 1001 167 954 q 346 1047 261 1047 l 1182 1047 q 1334 1003 1279 1047 q 1389 868 1389 958 l 1389 -117 m 831 940 q 895 863 882 905 l 886 846 l 718 798 q 675 787 684 788 q 657 804 656 787 q 673 831 657 820 l 831 940 m 806 353 q 814 53 808 120 q 737 57 797 57 q 663 53 679 57 q 669 343 669 119 q 431 732 549 554 q 511 728 448 728 q 593 732 575 728 q 765 430 630 658 q 936 732 869 593 q 1002 728 947 728 q 1044 732 1031 728 q 962 606 1011 681 q 892 498 913 532 q 845 424 870 465 q 806 353 821 383 z "},"":{"ha":1527,"x_min":167,"x_max":1389,"o":"m 530 519 q 519 728 530 650 l 522 732 q 597 728 561 728 q 673 732 597 728 l 675 728 q 665 603 667 680 q 755 604 703 604 q 949 544 886 604 q 1011 414 1011 484 q 940 276 1011 343 q 742 210 868 210 q 665 216 686 210 q 675 57 666 121 l 672 53 q 597 57 633 57 l 521 53 l 519 57 q 530 265 530 131 l 530 519 m 346 997 q 250 964 283 997 q 216 868 216 930 l 216 -74 q 346 -189 216 -189 l 1140 -189 q 1229 -163 1202 -189 q 1255 -74 1255 -136 l 1255 868 q 1140 997 1255 997 l 346 997 m 1389 -117 q 1352 -253 1389 -212 q 1223 -294 1315 -294 l 346 -294 q 209 -252 252 -294 q 167 -117 167 -210 l 167 868 q 214 1001 167 954 q 346 1047 261 1047 l 1182 1047 q 1334 1003 1279 1047 q 1389 868 1389 958 l 1389 -117 m 664 266 q 736 261 686 261 q 834 291 801 261 q 867 414 867 321 q 838 526 867 500 q 754 553 810 553 q 664 541 706 553 q 664 530 664 538 q 664 519 664 523 l 664 266 z "},"":{"ha":1527,"x_min":167,"x_max":1389,"o":"m 786 52 q 719 63 753 52 q 672 82 685 74 l 671 85 q 680 103 676 93 q 686 129 684 114 q 692 154 689 144 l 703 155 q 739 118 712 137 q 786 100 765 100 q 823 125 811 100 q 835 225 835 151 q 699 469 835 366 l 699 493 q 769 568 750 533 q 787 660 787 603 q 776 726 787 707 q 726 745 765 745 q 663 727 688 745 q 626 674 637 710 q 612 606 615 639 q 608 524 608 574 l 608 271 q 618 62 608 122 l 616 60 q 546 62 582 62 l 475 60 l 475 62 q 485 271 484 127 l 485 437 q 472 454 485 454 l 427 454 q 419 460 420 454 l 419 489 q 444 510 419 510 q 485 559 484 510 q 512 668 485 621 q 580 740 539 715 q 661 778 621 765 q 736 790 701 790 q 861 753 812 790 q 909 673 909 715 q 881 578 909 618 q 791 490 852 538 l 791 489 q 876 427 843 456 q 937 349 908 399 q 966 243 966 300 q 913 107 966 162 q 786 52 860 52 m 346 997 q 250 964 283 997 q 216 868 216 930 l 216 -74 q 346 -189 216 -189 l 1140 -189 q 1229 -163 1202 -189 q 1255 -74 1255 -136 l 1255 868 q 1140 997 1255 997 l 346 997 m 1389 -117 q 1352 -253 1389 -212 q 1223 -294 1315 -294 l 346 -294 q 209 -252 252 -294 q 167 -117 167 -210 l 167 868 q 214 1001 167 954 q 346 1047 261 1047 l 1182 1047 q 1334 1003 1279 1047 q 1389 868 1389 958 l 1389 -117 z "},"":{"ha":1527,"x_min":167,"x_max":1389,"o":"m 724 817 l 804 676 q 813 646 813 658 q 807 633 813 638 q 795 627 802 627 q 753 650 781 627 l 616 771 l 618 783 q 651 807 628 795 q 702 820 675 820 q 724 817 715 820 m 800 289 l 717 267 q 644 172 645 247 q 657 131 644 149 q 693 113 671 113 q 782 157 725 113 q 800 184 800 172 l 800 289 m 911 149 q 936 117 911 117 q 974 139 943 117 l 977 136 q 999 109 987 131 q 882 50 951 50 q 827 67 848 50 q 799 111 806 85 l 798 111 q 653 50 730 50 q 557 79 595 50 q 519 163 519 109 q 572 257 519 214 q 703 318 625 300 l 794 340 q 800 353 800 340 q 781 436 800 411 q 718 461 761 461 q 600 379 649 461 l 576 380 l 549 449 l 553 453 q 628 497 578 475 q 728 518 677 518 q 916 349 915 518 q 913 256 916 346 q 911 149 911 167 m 346 997 q 250 964 283 997 q 216 868 216 930 l 216 -74 q 346 -189 216 -189 l 1140 -189 q 1229 -163 1202 -189 q 1255 -74 1255 -136 l 1255 868 q 1140 997 1255 997 l 346 997 m 1389 -117 q 1352 -253 1389 -212 q 1223 -294 1315 -294 l 346 -294 q 209 -252 252 -294 q 167 -117 167 -210 l 167 868 q 214 1001 167 954 q 346 1047 261 1047 l 1182 1047 q 1334 1003 1279 1047 q 1389 868 1389 958 l 1389 -117 z "},"":{"ha":1527,"x_min":167,"x_max":1389,"o":"m 710 803 q 728 806 716 806 q 794 779 770 806 l 805 751 l 667 627 q 625 609 647 609 q 612 614 618 609 q 606 626 606 620 q 615 654 606 641 l 710 803 m 800 289 l 717 267 q 644 172 645 247 q 657 131 644 149 q 693 113 671 113 q 782 157 725 113 q 800 184 800 172 l 800 289 m 911 149 q 936 117 911 117 q 974 139 943 117 l 977 136 q 999 109 987 131 q 882 50 951 50 q 827 67 848 50 q 799 111 806 85 l 798 111 q 653 50 730 50 q 557 79 595 50 q 519 163 519 109 q 572 257 519 214 q 703 318 625 300 l 794 340 q 800 353 800 340 q 781 436 800 411 q 718 461 761 461 q 600 379 649 461 l 576 380 l 549 449 l 553 453 q 628 497 578 475 q 728 518 677 518 q 916 349 915 518 q 913 256 916 346 q 911 149 911 167 m 346 997 q 250 964 283 997 q 216 868 216 930 l 216 -74 q 346 -189 216 -189 l 1140 -189 q 1229 -163 1202 -189 q 1255 -74 1255 -136 l 1255 868 q 1140 997 1255 997 l 346 997 m 1389 -117 q 1352 -253 1389 -212 q 1223 -294 1315 -294 l 346 -294 q 209 -252 252 -294 q 167 -117 167 -210 l 167 868 q 214 1001 167 954 q 346 1047 261 1047 l 1182 1047 q 1334 1003 1279 1047 q 1389 868 1389 958 l 1389 -117 z "},"":{"ha":1527,"x_min":167,"x_max":1389,"o":"m 760 762 q 880 608 801 695 l 851 587 q 729 682 774 635 q 608 587 690 642 l 579 608 q 700 762 667 709 l 760 762 m 800 289 l 717 267 q 644 172 645 247 q 657 131 644 149 q 693 113 671 113 q 782 157 725 113 q 800 184 800 172 l 800 289 m 911 149 q 936 117 911 117 q 974 139 943 117 l 977 136 q 999 109 987 131 q 882 50 951 50 q 827 67 848 50 q 799 111 806 85 l 798 111 q 653 50 730 50 q 557 79 595 50 q 519 163 519 109 q 572 257 519 214 q 703 318 625 300 l 794 340 q 800 353 800 340 q 781 436 800 411 q 718 461 761 461 q 600 379 649 461 l 576 380 l 549 449 l 553 453 q 628 497 578 475 q 728 518 677 518 q 916 349 915 518 q 913 256 916 346 q 911 149 911 167 m 346 997 q 250 964 283 997 q 216 868 216 930 l 216 -74 q 346 -189 216 -189 l 1140 -189 q 1229 -163 1202 -189 q 1255 -74 1255 -136 l 1255 868 q 1140 997 1255 997 l 346 997 m 1389 -117 q 1352 -253 1389 -212 q 1223 -294 1315 -294 l 346 -294 q 209 -252 252 -294 q 167 -117 167 -210 l 167 868 q 214 1001 167 954 q 346 1047 261 1047 l 1182 1047 q 1334 1003 1279 1047 q 1389 868 1389 958 l 1389 -117 z "},"":{"ha":1527,"x_min":167,"x_max":1389,"o":"m 798 675 q 830 688 819 675 q 854 741 842 701 l 886 730 q 848 638 874 671 q 782 606 823 606 q 707 640 753 606 q 640 671 661 671 q 606 657 618 671 q 585 610 595 644 l 555 618 q 590 709 568 679 q 649 739 612 739 q 734 703 689 739 q 798 675 771 675 m 800 289 l 717 267 q 644 172 645 247 q 657 131 644 149 q 693 113 671 113 q 782 157 725 113 q 800 184 800 172 l 800 289 m 911 149 q 936 117 911 117 q 974 139 943 117 l 977 136 q 999 109 987 131 q 882 50 951 50 q 827 67 848 50 q 799 111 806 85 l 798 111 q 653 50 730 50 q 557 79 595 50 q 519 163 519 109 q 572 257 519 214 q 703 318 625 300 l 794 340 q 800 353 800 340 q 781 436 800 411 q 718 461 761 461 q 600 379 649 461 l 576 380 l 549 449 l 553 453 q 628 497 578 475 q 728 518 677 518 q 916 349 915 518 q 913 256 916 346 q 911 149 911 167 m 346 997 q 250 964 283 997 q 216 868 216 930 l 216 -74 q 346 -189 216 -189 l 1140 -189 q 1229 -163 1202 -189 q 1255 -74 1255 -136 l 1255 868 q 1140 997 1255 997 l 346 997 m 1389 -117 q 1352 -253 1389 -212 q 1223 -294 1315 -294 l 346 -294 q 209 -252 252 -294 q 167 -117 167 -210 l 167 868 q 214 1001 167 954 q 346 1047 261 1047 l 1182 1047 q 1334 1003 1279 1047 q 1389 868 1389 958 l 1389 -117 z "},"":{"ha":1527,"x_min":167,"x_max":1389,"o":"m 761 696 q 779 740 761 722 q 822 758 797 758 q 866 740 848 758 q 884 696 884 722 q 866 653 884 671 q 822 635 847 635 q 779 653 797 635 q 761 696 761 671 m 553 696 q 572 740 553 722 q 615 758 590 758 q 659 740 641 758 q 677 696 677 722 q 659 653 677 671 q 615 635 641 635 q 572 653 590 635 q 553 696 553 671 m 800 289 l 717 267 q 644 172 645 247 q 657 131 644 149 q 693 113 671 113 q 782 157 725 113 q 800 184 800 172 l 800 289 m 911 149 q 936 117 911 117 q 974 139 943 117 l 977 136 q 999 109 987 131 q 882 50 951 50 q 827 67 848 50 q 799 111 806 85 l 798 111 q 653 50 730 50 q 557 79 595 50 q 519 163 519 109 q 572 257 519 214 q 703 318 625 300 l 794 340 q 800 353 800 340 q 781 436 800 411 q 718 461 761 461 q 600 379 649 461 l 576 380 l 549 449 l 553 453 q 628 497 578 475 q 728 518 677 518 q 916 349 915 518 q 913 256 916 346 q 911 149 911 167 m 346 997 q 250 964 283 997 q 216 868 216 930 l 216 -74 q 346 -189 216 -189 l 1140 -189 q 1229 -163 1202 -189 q 1255 -74 1255 -136 l 1255 868 q 1140 997 1255 997 l 346 997 m 1389 -117 q 1352 -253 1389 -212 q 1223 -294 1315 -294 l 346 -294 q 209 -252 252 -294 q 167 -117 167 -210 l 167 868 q 214 1001 167 954 q 346 1047 261 1047 l 1182 1047 q 1334 1003 1279 1047 q 1389 868 1389 958 l 1389 -117 z "},"":{"ha":1527,"x_min":167,"x_max":1389,"o":"m 718 771 q 685 757 699 771 q 671 722 671 743 q 685 688 671 703 q 718 673 699 673 q 750 689 737 673 q 764 722 764 704 q 750 756 764 742 q 718 771 736 771 m 647 790 q 662 804 647 790 q 716 818 676 818 q 787 790 757 818 q 817 722 817 762 q 787 654 817 682 q 717 627 758 627 q 647 654 677 627 q 618 722 618 682 q 647 790 618 762 m 800 289 l 717 267 q 644 172 645 247 q 657 131 644 149 q 693 113 671 113 q 782 157 725 113 q 800 184 800 172 l 800 289 m 911 149 q 936 117 911 117 q 974 139 943 117 l 977 136 q 999 109 987 131 q 882 50 951 50 q 827 67 848 50 q 799 111 806 85 l 798 111 q 653 50 730 50 q 557 79 595 50 q 519 163 519 109 q 572 257 519 214 q 703 318 625 300 l 794 340 q 800 353 800 340 q 781 436 800 411 q 718 461 761 461 q 600 379 649 461 l 576 380 l 549 449 l 553 453 q 628 497 578 475 q 728 518 677 518 q 916 349 915 518 q 913 256 916 346 q 911 149 911 167 m 346 997 q 250 964 283 997 q 216 868 216 930 l 216 -74 q 346 -189 216 -189 l 1140 -189 q 1229 -163 1202 -189 q 1255 -74 1255 -136 l 1255 868 q 1140 997 1255 997 l 346 997 m 1389 -117 q 1352 -253 1389 -212 q 1223 -294 1315 -294 l 346 -294 q 209 -252 252 -294 q 167 -117 167 -210 l 167 868 q 214 1001 167 954 q 346 1047 261 1047 l 1182 1047 q 1334 1003 1279 1047 q 1389 868 1389 958 l 1389 -117 z "},"":{"ha":1527,"x_min":167,"x_max":1389,"o":"m 658 182 q 669 288 668 212 q 494 184 494 271 q 511 140 494 153 q 564 126 528 126 q 621 141 594 126 q 658 182 648 157 m 879 475 q 808 443 836 475 q 772 353 780 412 q 815 355 793 355 q 851 355 837 355 q 880 355 865 355 q 903 356 894 355 q 920 358 911 356 q 932 362 928 359 q 940 368 937 364 q 945 378 943 372 q 946 393 946 385 q 927 447 946 420 q 879 475 908 475 m 575 475 q 513 450 545 475 q 456 387 481 425 l 453 381 l 425 384 l 404 465 l 410 473 q 585 542 494 542 q 734 475 689 542 q 880 542 789 542 q 1007 490 962 542 q 1053 396 1053 439 q 1023 313 1053 340 l 1022 313 l 1021 312 q 977 300 1004 302 q 884 296 950 298 q 770 293 818 295 q 804 175 772 218 q 889 131 836 131 q 1009 198 955 131 l 1017 208 l 1049 163 l 1046 158 q 976 83 1023 112 q 875 54 928 54 q 801 66 833 54 q 754 91 768 78 q 724 122 739 103 q 562 54 648 54 q 382 179 382 54 q 456 294 382 250 q 669 349 530 338 q 648 446 668 416 q 575 475 629 475 m 346 997 q 250 964 283 997 q 216 868 216 930 l 216 -74 q 346 -189 216 -189 l 1140 -189 q 1229 -163 1202 -189 q 1255 -74 1255 -136 l 1255 868 q 1140 997 1255 997 l 346 997 m 1389 -117 q 1352 -253 1389 -212 q 1223 -294 1315 -294 l 346 -294 q 209 -252 252 -294 q 167 -117 167 -210 l 167 868 q 214 1001 167 954 q 346 1047 261 1047 l 1182 1047 q 1334 1003 1279 1047 q 1389 868 1389 958 l 1389 -117 z "},"":{"ha":1527,"x_min":167,"x_max":1389,"o":"m 672 -54 l 658 -40 l 700 52 q 549 123 603 62 q 494 278 494 184 q 567 452 494 387 q 749 518 640 518 q 899 485 835 518 l 900 482 l 876 376 l 859 375 q 806 437 836 412 q 747 461 777 461 q 657 421 692 461 q 623 304 623 380 q 662 170 623 222 q 761 118 701 118 q 884 182 831 118 l 886 182 q 908 155 907 170 q 846 84 889 114 q 751 51 804 54 l 731 1 q 805 -21 783 1 q 828 -72 828 -44 q 794 -135 828 -109 q 710 -160 761 -160 q 621 -140 666 -160 l 637 -98 q 704 -114 676 -114 q 740 -103 725 -114 q 754 -78 754 -93 q 746 -57 754 -66 q 722 -49 737 -49 q 672 -54 688 -49 m 346 997 q 250 964 283 997 q 216 868 216 930 l 216 -74 q 346 -189 216 -189 l 1140 -189 q 1229 -163 1202 -189 q 1255 -74 1255 -136 l 1255 868 q 1140 997 1255 997 l 346 997 m 1389 -117 q 1352 -253 1389 -212 q 1223 -294 1315 -294 l 346 -294 q 209 -252 252 -294 q 167 -117 167 -210 l 167 868 q 214 1001 167 954 q 346 1047 261 1047 l 1182 1047 q 1334 1003 1279 1047 q 1389 868 1389 958 l 1389 -117 z "},"":{"ha":1527,"x_min":167,"x_max":1389,"o":"m 745 789 l 825 648 q 834 618 834 630 q 828 605 834 610 q 816 600 823 600 q 774 623 802 600 l 637 743 l 638 755 q 672 780 648 767 q 722 792 695 792 q 745 789 736 792 m 643 359 l 791 359 q 807 374 807 359 q 790 447 807 427 q 742 467 774 467 q 708 460 725 467 q 671 428 692 454 q 643 359 650 402 m 925 179 q 947 143 947 167 q 863 76 917 102 q 754 50 810 50 q 575 113 642 50 q 509 268 509 175 q 584 448 509 378 q 742 518 659 518 q 889 462 839 518 q 939 332 939 406 q 921 314 939 313 l 640 314 q 681 168 640 214 q 775 121 721 121 q 925 179 871 121 m 346 997 q 250 964 283 997 q 216 868 216 930 l 216 -74 q 346 -189 216 -189 l 1140 -189 q 1229 -163 1202 -189 q 1255 -74 1255 -136 l 1255 868 q 1140 997 1255 997 l 346 997 m 1389 -117 q 1352 -253 1389 -212 q 1223 -294 1315 -294 l 346 -294 q 209 -252 252 -294 q 167 -117 167 -210 l 167 868 q 214 1001 167 954 q 346 1047 261 1047 l 1182 1047 q 1334 1003 1279 1047 q 1389 868 1389 958 l 1389 -117 z "},"":{"ha":1527,"x_min":167,"x_max":1389,"o":"m 743 789 q 762 792 749 793 q 827 765 804 792 l 838 737 l 701 614 q 658 595 680 595 q 645 601 651 595 q 640 612 640 606 q 649 640 640 627 l 743 789 m 643 359 l 791 359 q 807 374 807 359 q 790 447 807 427 q 742 467 774 467 q 708 460 725 467 q 671 428 692 454 q 643 359 650 402 m 925 179 q 947 143 947 167 q 863 76 917 102 q 754 50 810 50 q 575 113 642 50 q 509 268 509 175 q 584 448 509 378 q 742 518 659 518 q 889 462 839 518 q 939 332 939 406 q 921 314 939 313 l 640 314 q 681 168 640 214 q 775 121 721 121 q 925 179 871 121 m 346 997 q 250 964 283 997 q 216 868 216 930 l 216 -74 q 346 -189 216 -189 l 1140 -189 q 1229 -163 1202 -189 q 1255 -74 1255 -136 l 1255 868 q 1140 997 1255 997 l 346 997 m 1389 -117 q 1352 -253 1389 -212 q 1223 -294 1315 -294 l 346 -294 q 209 -252 252 -294 q 167 -117 167 -210 l 167 868 q 214 1001 167 954 q 346 1047 261 1047 l 1182 1047 q 1334 1003 1279 1047 q 1389 868 1389 958 l 1389 -117 z "},"":{"ha":1527,"x_min":167,"x_max":1389,"o":"m 770 762 q 890 608 811 695 l 861 587 q 739 682 784 635 q 618 587 701 642 l 589 608 q 710 762 677 709 l 770 762 m 643 359 l 791 359 q 807 374 807 359 q 790 447 807 427 q 742 467 774 467 q 708 460 725 467 q 671 428 692 454 q 643 359 650 402 m 925 179 q 947 143 947 167 q 863 76 917 102 q 754 50 810 50 q 575 113 642 50 q 509 268 509 175 q 584 448 509 378 q 742 518 659 518 q 889 462 839 518 q 939 332 939 406 q 921 314 939 313 l 640 314 q 681 168 640 214 q 775 121 721 121 q 925 179 871 121 m 346 997 q 250 964 283 997 q 216 868 216 930 l 216 -74 q 346 -189 216 -189 l 1140 -189 q 1229 -163 1202 -189 q 1255 -74 1255 -136 l 1255 868 q 1140 997 1255 997 l 346 997 m 1389 -117 q 1352 -253 1389 -212 q 1223 -294 1315 -294 l 346 -294 q 209 -252 252 -294 q 167 -117 167 -210 l 167 868 q 214 1001 167 954 q 346 1047 261 1047 l 1182 1047 q 1334 1003 1279 1047 q 1389 868 1389 958 l 1389 -117 z "},"":{"ha":1527,"x_min":167,"x_max":1389,"o":"m 786 696 q 804 740 786 722 q 847 758 822 758 q 891 740 872 758 q 909 696 909 722 q 891 653 909 671 q 847 635 872 635 q 804 653 822 635 q 786 696 786 671 m 578 696 q 596 740 578 722 q 641 758 615 758 q 684 740 666 758 q 702 696 702 722 q 684 653 702 671 q 641 635 666 635 q 596 653 615 635 q 578 696 578 671 m 643 359 l 791 359 q 807 374 807 359 q 790 447 807 427 q 742 467 774 467 q 708 460 725 467 q 671 428 692 454 q 643 359 650 402 m 925 179 q 947 143 947 167 q 863 76 917 102 q 754 50 810 50 q 575 113 642 50 q 509 268 509 175 q 584 448 509 378 q 742 518 659 518 q 889 462 839 518 q 939 332 939 406 q 921 314 939 313 l 640 314 q 681 168 640 214 q 775 121 721 121 q 925 179 871 121 m 346 997 q 250 964 283 997 q 216 868 216 930 l 216 -74 q 346 -189 216 -189 l 1140 -189 q 1229 -163 1202 -189 q 1255 -74 1255 -136 l 1255 868 q 1140 997 1255 997 l 346 997 m 1389 -117 q 1352 -253 1389 -212 q 1223 -294 1315 -294 l 346 -294 q 209 -252 252 -294 q 167 -117 167 -210 l 167 868 q 214 1001 167 954 q 346 1047 261 1047 l 1182 1047 q 1334 1003 1279 1047 q 1389 868 1389 958 l 1389 -117 z "},"":{"ha":1555,"x_min":167,"x_max":1389,"o":"m 712 817 l 791 676 q 801 646 801 658 q 795 633 801 638 q 782 627 789 627 q 741 650 768 627 l 604 771 l 605 783 q 638 807 615 795 q 689 820 662 820 q 712 817 703 820 m 679 297 q 668 481 679 419 l 671 484 q 803 510 753 489 q 812 498 812 510 q 802 314 802 414 l 802 240 q 812 52 802 130 l 810 49 q 741 52 775 52 l 669 49 l 668 52 q 679 240 679 128 l 679 297 m 346 997 q 250 964 283 997 q 216 868 216 930 l 216 -74 q 346 -189 216 -189 l 1140 -189 q 1229 -163 1202 -189 q 1255 -74 1255 -136 l 1255 868 q 1140 997 1255 997 l 346 997 m 1389 -117 q 1352 -253 1389 -212 q 1223 -294 1315 -294 l 346 -294 q 209 -252 252 -294 q 167 -117 167 -210 l 167 868 q 214 1001 167 954 q 346 1047 261 1047 l 1182 1047 q 1334 1003 1279 1047 q 1389 868 1389 958 l 1389 -117 z "},"":{"ha":1555,"x_min":167,"x_max":1389,"o":"m 783 803 q 801 806 789 806 q 867 779 843 806 l 877 751 l 740 627 q 696 609 720 609 q 684 614 690 609 q 678 626 678 620 q 688 654 678 641 l 783 803 m 679 297 q 668 481 679 419 l 671 484 q 803 510 753 489 q 812 498 812 510 q 802 314 802 414 l 802 240 q 812 52 802 130 l 810 49 q 741 52 775 52 l 669 49 l 668 52 q 679 240 679 128 l 679 297 m 346 997 q 250 964 283 997 q 216 868 216 930 l 216 -74 q 346 -189 216 -189 l 1140 -189 q 1229 -163 1202 -189 q 1255 -74 1255 -136 l 1255 868 q 1140 997 1255 997 l 346 997 m 1389 -117 q 1352 -253 1389 -212 q 1223 -294 1315 -294 l 346 -294 q 209 -252 252 -294 q 167 -117 167 -210 l 167 868 q 214 1001 167 954 q 346 1047 261 1047 l 1182 1047 q 1334 1003 1279 1047 q 1389 868 1389 958 l 1389 -117 z "},"":{"ha":1555,"x_min":167,"x_max":1389,"o":"m 766 762 q 887 608 808 695 l 859 587 q 736 682 781 635 q 615 587 697 642 l 587 608 q 707 762 675 709 l 766 762 m 679 297 q 668 481 679 419 l 671 484 q 803 510 753 489 q 812 498 812 510 q 802 314 802 414 l 802 240 q 812 52 802 130 l 810 49 q 741 52 775 52 q 669 49 741 52 l 668 52 q 679 240 679 128 l 679 297 m 346 997 q 250 964 283 997 q 216 868 216 930 l 216 -74 q 346 -189 216 -189 l 1140 -189 q 1229 -163 1202 -189 q 1255 -74 1255 -136 l 1255 868 q 1140 997 1255 997 l 346 997 m 1389 -117 q 1352 -253 1389 -212 q 1223 -294 1315 -294 l 346 -294 q 209 -252 252 -294 q 167 -117 167 -210 l 167 868 q 214 1001 167 954 q 346 1047 261 1047 l 1182 1047 q 1334 1003 1279 1047 q 1389 868 1389 958 l 1389 -117 z "},"":{"ha":1555,"x_min":167,"x_max":1389,"o":"m 793 696 q 811 740 793 722 q 854 758 829 758 q 898 740 880 758 q 916 696 916 722 q 898 653 916 671 q 854 635 879 635 q 811 653 829 635 q 793 696 793 671 m 585 696 q 604 740 585 722 q 647 758 622 758 q 691 740 673 758 q 709 696 709 722 q 691 653 709 671 q 647 635 673 635 q 604 653 622 635 q 585 696 585 671 m 679 297 q 668 481 679 419 l 671 484 q 803 510 753 489 q 812 498 812 510 q 802 314 802 414 l 802 240 q 812 52 802 130 l 810 49 q 741 52 775 52 l 669 49 l 668 52 q 679 240 679 128 l 679 297 m 346 997 q 250 964 283 997 q 216 868 216 930 l 216 -74 q 346 -189 216 -189 l 1140 -189 q 1229 -163 1202 -189 q 1255 -74 1255 -136 l 1255 868 q 1140 997 1255 997 l 346 997 m 1389 -117 q 1352 -253 1389 -212 q 1223 -294 1315 -294 l 346 -294 q 209 -252 252 -294 q 167 -117 167 -210 l 167 868 q 214 1001 167 954 q 346 1047 261 1047 l 1182 1047 q 1334 1003 1279 1047 q 1389 868 1389 958 l 1389 -117 z "},"":{"ha":1527,"x_min":167,"x_max":1389,"o":"m 785 106 q 824 113 806 106 q 861 139 842 121 q 891 198 880 158 q 903 296 903 238 q 886 430 903 373 q 784 468 854 468 q 721 453 747 468 q 680 411 694 437 q 661 358 667 385 q 654 298 654 330 q 693 159 654 213 q 785 106 732 106 m 538 281 q 563 398 538 347 q 627 476 587 449 q 706 517 666 504 q 785 530 747 530 q 852 523 820 530 q 768 647 823 581 l 649 570 l 612 619 l 727 693 l 718 701 q 642 760 693 724 l 632 766 l 665 804 l 673 800 q 785 728 730 769 l 904 805 l 940 756 l 835 688 l 846 677 q 1015 311 1015 515 q 943 112 1015 182 q 768 43 871 43 q 601 116 665 43 q 538 281 538 190 m 346 997 q 250 964 283 997 q 216 868 216 930 l 216 -74 q 346 -189 216 -189 l 1140 -189 q 1229 -163 1202 -189 q 1255 -74 1255 -136 l 1255 868 q 1140 997 1255 997 l 346 997 m 1389 -117 q 1352 -253 1389 -212 q 1223 -294 1315 -294 l 346 -294 q 209 -252 252 -294 q 167 -117 167 -210 l 167 868 q 214 1001 167 954 q 346 1047 261 1047 l 1182 1047 q 1334 1003 1279 1047 q 1389 868 1389 958 l 1389 -117 z "},"":{"ha":1527,"x_min":167,"x_max":1389,"o":"m 804 675 q 837 688 825 675 q 861 741 849 701 l 892 730 q 855 638 881 671 q 789 606 829 606 q 714 640 760 606 q 647 671 668 671 q 613 657 625 671 q 592 610 602 644 l 562 618 q 597 709 574 679 q 656 739 619 739 q 742 703 696 739 q 804 675 778 675 m 962 250 q 972 57 962 127 l 971 54 q 900 57 937 57 l 831 54 l 829 57 q 839 250 839 114 l 839 342 q 826 426 839 401 q 774 450 812 450 q 720 436 741 450 q 659 372 700 421 l 659 250 q 668 57 659 127 l 667 54 q 597 57 632 57 l 525 54 l 525 57 q 534 250 534 123 l 534 307 q 525 490 534 439 l 526 493 q 656 519 606 498 q 665 509 665 519 l 656 433 l 659 433 q 734 504 706 489 q 806 519 762 519 q 919 472 875 519 q 962 354 962 425 l 962 250 m 346 997 q 250 964 283 997 q 216 868 216 930 l 216 -74 q 346 -189 216 -189 l 1140 -189 q 1229 -163 1202 -189 q 1255 -74 1255 -136 l 1255 868 q 1140 997 1255 997 l 346 997 m 1389 -117 q 1352 -253 1389 -212 q 1223 -294 1315 -294 l 346 -294 q 209 -252 252 -294 q 167 -117 167 -210 l 167 868 q 214 1001 167 954 q 346 1047 261 1047 l 1182 1047 q 1334 1003 1279 1047 q 1389 868 1389 958 l 1389 -117 z "},"":{"ha":1527,"x_min":167,"x_max":1389,"o":"m 757 817 l 836 676 q 845 646 845 658 q 840 633 845 638 q 827 627 834 627 q 785 650 812 627 l 648 771 l 650 783 q 683 807 660 795 q 734 820 707 820 q 757 817 747 820 m 504 273 q 569 450 504 382 q 745 518 633 518 q 922 448 865 518 q 979 283 979 378 q 917 121 979 192 q 742 50 854 50 q 567 116 631 50 q 504 273 504 182 m 736 465 q 683 453 704 465 q 653 414 663 440 q 641 363 644 389 q 637 298 637 338 q 755 103 637 102 q 846 256 846 103 q 823 417 846 370 q 736 465 800 465 m 346 997 q 250 964 283 997 q 216 868 216 930 l 216 -74 q 346 -189 216 -189 l 1140 -189 q 1229 -163 1202 -189 q 1255 -74 1255 -136 l 1255 868 q 1140 997 1255 997 l 346 997 m 1389 -117 q 1352 -253 1389 -212 q 1223 -294 1315 -294 l 346 -294 q 209 -252 252 -294 q 167 -117 167 -210 l 167 868 q 214 1001 167 954 q 346 1047 261 1047 l 1182 1047 q 1334 1003 1279 1047 q 1389 868 1389 958 l 1389 -117 z "},"":{"ha":1527,"x_min":167,"x_max":1389,"o":"m 741 803 q 759 806 747 806 q 825 779 801 806 l 836 751 l 698 627 q 655 609 677 609 q 643 614 648 609 q 637 626 637 620 q 646 654 637 641 l 741 803 m 504 273 q 569 450 504 382 q 745 518 633 518 q 922 448 865 518 q 979 283 979 378 q 917 121 979 192 q 742 50 854 50 q 567 116 631 50 q 504 273 504 182 m 736 465 q 683 453 704 465 q 653 414 663 440 q 641 363 644 389 q 637 298 637 338 q 755 103 637 102 q 846 256 846 103 q 823 417 846 370 q 736 465 800 465 m 346 997 q 250 964 283 997 q 216 868 216 930 l 216 -74 q 346 -189 216 -189 l 1140 -189 q 1229 -163 1202 -189 q 1255 -74 1255 -136 l 1255 868 q 1140 997 1255 997 l 346 997 m 1389 -117 q 1352 -253 1389 -212 q 1223 -294 1315 -294 l 346 -294 q 209 -252 252 -294 q 167 -117 167 -210 l 167 868 q 214 1001 167 954 q 346 1047 261 1047 l 1182 1047 q 1334 1003 1279 1047 q 1389 868 1389 958 l 1389 -117 z "},"":{"ha":1527,"x_min":167,"x_max":1389,"o":"m 761 762 q 882 608 802 695 l 852 587 q 730 682 775 635 q 610 587 692 642 l 581 608 q 701 762 669 709 l 761 762 m 504 273 q 569 450 504 382 q 745 518 633 518 q 922 448 865 518 q 979 283 979 378 q 917 121 979 192 q 742 50 854 50 q 567 116 631 50 q 504 273 504 182 m 736 465 q 683 453 704 465 q 653 414 663 440 q 641 363 644 389 q 637 298 637 338 q 755 103 637 102 q 846 256 846 103 q 823 417 846 370 q 736 465 800 465 m 346 997 q 250 964 283 997 q 216 868 216 930 l 216 -74 q 346 -189 216 -189 l 1140 -189 q 1229 -163 1202 -189 q 1255 -74 1255 -136 l 1255 868 q 1140 997 1255 997 l 346 997 m 1389 -117 q 1352 -253 1389 -212 q 1223 -294 1315 -294 l 346 -294 q 209 -252 252 -294 q 167 -117 167 -210 l 167 868 q 214 1001 167 954 q 346 1047 261 1047 l 1182 1047 q 1334 1003 1279 1047 q 1389 868 1389 958 l 1389 -117 z "},"":{"ha":1527,"x_min":167,"x_max":1389,"o":"m 803 675 q 836 688 824 675 q 859 741 848 701 l 891 730 q 854 638 880 671 q 787 606 828 606 q 713 640 758 606 q 646 671 667 671 q 612 657 623 671 q 591 610 600 644 l 560 618 q 595 709 573 679 q 654 739 618 739 q 741 703 694 739 q 803 675 777 675 m 504 273 q 569 450 504 382 q 745 518 633 518 q 922 448 865 518 q 979 283 979 378 q 917 121 979 192 q 742 50 854 50 q 567 116 631 50 q 504 273 504 182 m 736 465 q 683 453 704 465 q 653 414 663 440 q 641 363 644 389 q 637 298 637 338 q 755 103 637 102 q 846 256 846 103 q 823 417 846 370 q 736 465 800 465 m 346 997 q 250 964 283 997 q 216 868 216 930 l 216 -74 q 346 -189 216 -189 l 1140 -189 q 1229 -163 1202 -189 q 1255 -74 1255 -136 l 1255 868 q 1140 997 1255 997 l 346 997 m 1389 -117 q 1352 -253 1389 -212 q 1223 -294 1315 -294 l 346 -294 q 209 -252 252 -294 q 167 -117 167 -210 l 167 868 q 214 1001 167 954 q 346 1047 261 1047 l 1182 1047 q 1334 1003 1279 1047 q 1389 868 1389 958 l 1389 -117 z "},"":{"ha":1527,"x_min":167,"x_max":1389,"o":"m 782 654 q 800 699 782 681 q 843 717 817 717 q 887 699 868 717 q 905 654 905 680 q 887 611 905 629 q 843 593 868 593 q 800 611 818 593 q 782 654 782 629 m 574 654 q 592 699 574 680 q 636 717 611 717 q 680 699 662 717 q 698 654 698 680 q 680 611 698 629 q 636 593 662 593 q 592 611 611 593 q 574 654 574 629 m 504 273 q 569 450 504 382 q 745 518 633 518 q 922 448 865 518 q 979 283 979 378 q 917 121 979 192 q 742 50 854 50 q 567 116 631 50 q 504 273 504 182 m 736 465 q 683 453 704 465 q 653 414 663 440 q 641 363 644 389 q 637 298 637 338 q 755 103 637 102 q 846 256 846 103 q 823 417 846 370 q 736 465 800 465 m 346 997 q 250 964 283 997 q 216 868 216 930 l 216 -74 q 346 -189 216 -189 l 1140 -189 q 1229 -163 1202 -189 q 1255 -74 1255 -136 l 1255 868 q 1140 997 1255 997 l 346 997 m 1389 -117 q 1352 -253 1389 -212 q 1223 -294 1315 -294 l 346 -294 q 209 -252 252 -294 q 167 -117 167 -210 l 167 868 q 214 1001 167 954 q 346 1047 261 1047 l 1182 1047 q 1334 1003 1279 1047 q 1389 868 1389 958 l 1389 -117 z "},"":{"ha":732,"x_min":-167,"x_max":1055,"o":"m 315 453 l 315 457 q 375 515 332 498 l 378 515 q 436 457 420 500 l 436 453 q 378 396 419 407 l 375 396 q 315 453 328 407 m 315 142 l 315 146 q 375 203 331 186 l 378 203 q 436 146 420 187 l 436 142 q 378 83 419 94 l 375 83 q 335 102 349 89 q 315 142 322 115 m 593 345 l 593 265 l 139 265 l 139 345 l 593 345 m 12 997 q -83 964 -50 997 q -117 868 -117 930 l -117 -74 q 12 -189 -117 -189 l 807 -189 q 896 -163 869 -189 q 922 -74 922 -136 l 922 868 q 807 997 922 997 l 12 997 m 1055 -117 q 1019 -253 1055 -212 q 890 -294 982 -294 l 12 -294 q -124 -252 -82 -294 q -167 -117 -167 -210 l -167 868 q -119 1001 -167 954 q 12 1047 -72 1047 l 848 1047 q 1000 1003 945 1047 q 1055 868 1055 958 l 1055 -117 z "},"":{"ha":1527,"x_min":167,"x_max":1389,"o":"m 904 547 l 936 522 l 895 473 q 979 283 979 408 q 917 121 979 192 q 742 50 854 50 q 587 98 650 50 l 543 45 l 513 72 l 557 127 q 504 273 504 189 q 569 450 504 382 q 745 518 633 518 q 861 494 811 518 l 904 547 m 736 465 q 683 453 704 465 q 653 414 663 440 q 641 363 644 389 q 637 298 637 338 q 642 229 637 258 l 812 435 q 736 465 787 465 m 346 997 q 250 964 283 997 q 216 868 216 930 l 216 -74 q 346 -189 216 -189 l 1140 -189 q 1229 -163 1202 -189 q 1255 -74 1255 -136 l 1255 868 q 1140 997 1255 997 l 346 997 m 1389 -117 q 1352 -253 1389 -212 q 1223 -294 1315 -294 l 346 -294 q 209 -252 252 -294 q 167 -117 167 -210 l 167 868 q 214 1001 167 954 q 346 1047 261 1047 l 1182 1047 q 1334 1003 1279 1047 q 1389 868 1389 958 l 1389 -117 m 831 395 l 653 178 q 755 103 680 103 q 846 256 846 103 q 831 395 846 350 z "},"":{"ha":1527,"x_min":167,"x_max":1389,"o":"m 709 817 l 789 676 q 798 646 798 658 q 792 633 798 638 q 779 627 787 627 q 739 650 765 627 l 601 771 l 602 783 q 636 807 612 795 q 686 820 659 820 q 709 817 700 820 m 817 126 q 745 64 774 80 q 684 49 717 49 q 565 91 610 49 q 521 191 521 134 l 521 319 q 511 505 521 437 l 513 510 q 582 505 547 506 l 653 510 l 654 505 q 644 319 645 451 l 644 225 q 711 115 644 115 q 726 117 718 115 q 740 121 733 118 q 753 128 747 125 q 765 138 758 131 q 777 147 772 144 q 788 159 781 150 q 798 170 796 168 q 808 182 800 172 q 817 193 815 192 l 817 319 q 807 505 817 437 l 808 510 q 878 505 843 506 l 949 510 l 950 505 q 940 319 941 451 l 940 260 q 957 60 940 149 l 956 56 q 889 60 935 60 q 833 56 854 60 q 823 60 824 56 l 819 126 l 817 126 m 346 997 q 250 964 283 997 q 216 868 216 930 l 216 -74 q 346 -189 216 -189 l 1140 -189 q 1229 -163 1202 -189 q 1255 -74 1255 -136 l 1255 868 q 1140 997 1255 997 l 346 997 m 1389 -117 q 1352 -253 1389 -212 q 1223 -294 1315 -294 l 346 -294 q 209 -252 252 -294 q 167 -117 167 -210 l 167 868 q 214 1001 167 954 q 346 1047 261 1047 l 1182 1047 q 1334 1003 1279 1047 q 1389 868 1389 958 l 1389 -117 z "},"":{"ha":1527,"x_min":167,"x_max":1389,"o":"m 755 803 q 773 806 761 806 q 839 779 815 806 l 849 751 l 712 627 q 669 609 692 609 q 656 614 663 609 q 650 626 650 620 q 660 654 650 641 l 755 803 m 817 126 q 745 64 774 80 q 684 49 717 49 q 565 91 610 49 q 521 191 521 134 l 521 319 q 511 505 521 437 l 513 510 q 582 505 547 506 l 653 510 l 654 505 q 644 319 645 451 l 644 225 q 711 115 644 115 q 726 117 718 115 q 740 121 733 118 q 753 128 747 125 q 765 138 758 131 q 777 147 772 144 q 788 159 781 150 q 798 170 796 168 q 808 182 800 172 q 817 193 815 192 l 817 319 q 807 505 817 437 l 808 510 q 878 505 843 506 l 949 510 l 950 505 q 940 319 941 451 l 940 260 q 957 60 940 149 l 956 56 q 889 60 935 60 q 833 56 854 60 q 823 60 824 56 l 819 126 l 817 126 m 346 997 q 250 964 283 997 q 216 868 216 930 l 216 -74 q 346 -189 216 -189 l 1140 -189 q 1229 -163 1202 -189 q 1255 -74 1255 -136 l 1255 868 q 1140 997 1255 997 l 346 997 m 1389 -117 q 1352 -253 1389 -212 q 1223 -294 1315 -294 l 346 -294 q 209 -252 252 -294 q 167 -117 167 -210 l 167 868 q 214 1001 167 954 q 346 1047 261 1047 l 1182 1047 q 1334 1003 1279 1047 q 1389 868 1389 958 l 1389 -117 z "},"":{"ha":1527,"x_min":167,"x_max":1389,"o":"m 754 762 q 875 608 795 695 l 846 587 q 724 682 768 635 q 603 587 685 642 l 574 608 q 694 762 662 709 l 754 762 m 817 126 q 745 64 774 80 q 684 49 717 49 q 565 91 610 49 q 521 191 521 134 l 521 319 q 511 505 521 437 l 513 510 q 582 505 547 506 l 653 510 l 654 505 q 644 319 645 451 l 644 225 q 711 115 644 115 q 726 117 718 115 q 740 121 733 118 q 753 128 747 125 q 765 138 758 131 q 777 147 772 144 q 788 159 781 150 q 798 170 796 168 q 808 182 800 172 q 817 193 815 192 l 817 319 q 807 505 817 437 l 808 510 q 878 505 843 506 l 949 510 l 950 505 q 940 319 941 451 l 940 260 q 957 60 940 149 l 956 56 q 889 60 935 60 q 833 56 854 60 q 823 60 824 56 l 819 126 l 817 126 m 346 997 q 250 964 283 997 q 216 868 216 930 l 216 -74 q 346 -189 216 -189 l 1140 -189 q 1229 -163 1202 -189 q 1255 -74 1255 -136 l 1255 868 q 1140 997 1255 997 l 346 997 m 1389 -117 q 1352 -253 1389 -212 q 1223 -294 1315 -294 l 346 -294 q 209 -252 252 -294 q 167 -117 167 -210 l 167 868 q 214 1001 167 954 q 346 1047 261 1047 l 1182 1047 q 1334 1003 1279 1047 q 1389 868 1389 958 l 1389 -117 z "},"":{"ha":1527,"x_min":167,"x_max":1389,"o":"m 773 696 q 791 740 773 722 q 834 758 809 758 q 879 740 860 758 q 897 696 897 722 q 879 653 897 671 q 834 635 860 635 q 791 653 809 635 q 773 696 773 671 m 566 696 q 584 740 566 722 q 628 758 603 758 q 671 740 653 758 q 689 696 689 722 q 671 653 689 671 q 628 635 653 635 q 584 653 603 635 q 566 696 566 671 m 817 126 q 745 64 774 80 q 684 49 717 49 q 565 91 610 49 q 521 191 521 134 l 521 319 q 511 505 521 437 l 513 510 q 582 505 547 506 l 653 510 l 654 505 q 644 319 645 451 l 644 225 q 711 115 644 115 q 726 117 718 115 q 740 121 733 118 q 753 128 747 125 q 765 138 758 131 q 777 147 772 144 q 788 159 781 150 q 798 170 796 168 q 808 182 800 172 q 817 193 815 192 l 817 319 q 807 505 817 437 l 808 510 q 878 505 843 506 l 949 510 l 950 505 q 940 319 941 451 l 940 260 q 957 60 940 149 l 956 56 q 889 60 935 60 q 833 56 854 60 q 823 60 824 56 l 819 126 l 817 126 m 346 997 q 250 964 283 997 q 216 868 216 930 l 216 -74 q 346 -189 216 -189 l 1140 -189 q 1229 -163 1202 -189 q 1255 -74 1255 -136 l 1255 868 q 1140 997 1255 997 l 346 997 m 1389 -117 q 1352 -253 1389 -212 q 1223 -294 1315 -294 l 346 -294 q 209 -252 252 -294 q 167 -117 167 -210 l 167 868 q 214 1001 167 954 q 346 1047 261 1047 l 1182 1047 q 1334 1003 1279 1047 q 1389 868 1389 958 l 1389 -117 z "},"":{"ha":1527,"x_min":167,"x_max":1389,"o":"m 775 803 q 793 806 781 806 q 859 779 836 806 l 870 751 l 732 627 q 690 609 712 609 q 677 614 683 609 q 671 626 671 620 q 681 654 671 641 l 775 803 m 494 539 q 568 536 508 536 q 639 539 625 536 q 760 224 671 438 q 878 539 819 359 q 937 536 887 536 q 982 539 972 536 q 817 178 929 429 q 681 -157 705 -74 q 629 -153 664 -153 q 574 -157 589 -153 q 690 69 640 -47 l 686 77 q 494 539 616 266 m 346 997 q 250 964 283 997 q 216 868 216 930 l 216 -74 q 346 -189 216 -189 l 1140 -189 q 1229 -163 1202 -189 q 1255 -74 1255 -136 l 1255 868 q 1140 997 1255 997 l 346 997 m 1389 -117 q 1352 -253 1389 -212 q 1223 -294 1315 -294 l 346 -294 q 209 -252 252 -294 q 167 -117 167 -210 l 167 868 q 214 1001 167 954 q 346 1047 261 1047 l 1182 1047 q 1334 1003 1279 1047 q 1389 868 1389 958 l 1389 -117 z "},"":{"ha":715,"x_min":-195,"x_max":1028,"o":"m 288 399 l 288 155 q 375 125 317 125 q 474 170 450 125 q 498 297 498 215 q 397 471 498 471 q 288 399 317 471 m 288 47 q 297 -161 288 -92 l 296 -164 q 224 -161 258 -161 l 157 -164 l 155 -161 q 167 47 166 -98 l 167 582 q 155 778 167 718 l 158 782 q 289 807 235 787 q 297 798 297 807 q 288 602 288 722 l 288 489 l 286 454 q 340 512 304 486 q 425 538 376 538 q 564 472 500 538 q 627 325 627 407 q 551 141 627 214 q 380 69 476 69 q 288 93 328 69 l 288 47 m -16 997 q -111 964 -78 997 q -144 868 -144 930 l -144 -74 q -16 -189 -144 -189 l 779 -189 q 868 -163 842 -189 q 895 -74 895 -136 l 895 868 q 779 997 895 997 l -16 997 m 1028 -117 q 991 -253 1028 -212 q 863 -294 954 -294 l -16 -294 q -152 -252 -110 -294 q -195 -117 -195 -210 l -195 868 q -147 1001 -195 954 q -16 1047 -100 1047 l 821 1047 q 973 1003 918 1047 q 1028 868 1028 958 l 1028 -117 z "},"":{"ha":1527,"x_min":167,"x_max":1389,"o":"m 790 696 q 808 740 790 722 q 851 758 826 758 q 895 740 877 758 q 913 696 913 722 q 895 653 913 671 q 851 635 876 635 q 808 653 826 635 q 790 696 790 671 m 583 696 q 601 740 583 722 q 645 758 619 758 q 688 740 670 758 q 706 696 706 722 q 688 653 706 671 q 645 635 670 635 q 601 653 619 635 q 583 696 583 671 m 494 539 q 568 536 508 536 q 639 539 625 536 q 760 224 671 438 q 878 539 819 359 q 937 536 887 536 q 982 539 972 536 q 817 178 929 429 q 681 -157 705 -74 q 629 -153 664 -153 q 574 -157 589 -153 q 690 69 640 -47 l 686 77 q 494 539 616 266 m 346 997 q 250 964 283 997 q 216 868 216 930 l 216 -74 q 346 -189 216 -189 l 1140 -189 q 1229 -163 1202 -189 q 1255 -74 1255 -136 l 1255 868 q 1140 997 1255 997 l 346 997 m 1389 -117 q 1352 -253 1389 -212 q 1223 -294 1315 -294 l 346 -294 q 209 -252 252 -294 q 167 -117 167 -210 l 167 868 q 214 1001 167 954 q 346 1047 261 1047 l 1182 1047 q 1334 1003 1279 1047 q 1389 868 1389 958 l 1389 -117 z "},"":{"ha":1527,"x_min":167,"x_max":1389,"o":"m 872 852 l 587 852 q 571 872 570 852 q 579 893 571 882 q 597 905 587 905 l 885 905 q 900 888 901 905 q 891 865 900 877 q 872 852 883 852 m 346 997 q 250 964 283 997 q 216 868 216 930 l 216 -74 q 346 -189 216 -189 l 1140 -189 q 1229 -163 1202 -189 q 1255 -74 1255 -136 l 1255 868 q 1140 997 1255 997 l 346 997 m 1389 -117 q 1352 -253 1389 -212 q 1223 -294 1315 -294 l 346 -294 q 209 -252 252 -294 q 167 -117 167 -210 l 167 868 q 214 1001 167 954 q 346 1047 261 1047 l 1182 1047 q 1334 1003 1279 1047 q 1389 868 1389 958 l 1389 -117 m 712 576 q 612 345 637 402 q 666 343 627 345 q 721 342 705 342 q 808 343 753 342 q 712 576 766 453 m 588 285 q 505 54 527 134 q 458 57 493 57 q 400 54 412 57 q 707 742 550 379 l 781 742 q 881 496 817 656 q 995 218 946 336 q 1065 54 1043 100 q 981 57 1047 57 q 907 54 925 57 q 829 286 883 141 q 726 288 761 288 q 588 285 665 288 z "},"":{"ha":1527,"x_min":167,"x_max":1389,"o":"m 880 657 l 596 657 q 579 676 579 657 q 588 698 579 686 q 606 710 596 710 l 893 710 q 908 692 909 710 q 900 669 908 681 q 880 657 891 657 m 800 289 l 717 267 q 644 172 645 247 q 657 131 644 149 q 693 113 671 113 q 782 157 725 113 q 800 184 800 172 l 800 289 m 911 149 q 936 117 911 117 q 974 139 943 117 l 977 136 q 999 109 987 131 q 882 50 951 50 q 827 67 848 50 q 799 111 806 85 l 798 111 q 653 50 730 50 q 557 79 595 50 q 519 163 519 109 q 572 257 519 214 q 703 318 625 300 l 794 340 q 800 353 800 340 q 781 436 800 411 q 718 461 761 461 q 600 379 649 461 l 576 380 l 549 449 l 553 453 q 628 497 578 475 q 728 518 677 518 q 916 349 915 518 q 913 256 916 346 q 911 149 911 167 m 346 997 q 250 964 283 997 q 216 868 216 930 l 216 -74 q 346 -189 216 -189 l 1140 -189 q 1229 -163 1202 -189 q 1255 -74 1255 -136 l 1255 868 q 1140 997 1255 997 l 346 997 m 1389 -117 q 1352 -253 1389 -212 q 1223 -294 1315 -294 l 346 -294 q 209 -252 252 -294 q 167 -117 167 -210 l 167 868 q 214 1001 167 954 q 346 1047 261 1047 l 1182 1047 q 1334 1003 1279 1047 q 1389 868 1389 958 l 1389 -117 z "},"":{"ha":1527,"x_min":167,"x_max":1389,"o":"m 886 935 q 746 803 865 802 q 647 838 686 803 q 604 935 607 872 l 639 935 q 674 888 644 905 q 746 871 704 871 q 817 888 786 871 q 852 935 847 905 l 886 935 m 346 997 q 250 964 283 997 q 216 868 216 930 l 216 -74 q 346 -189 216 -189 l 1140 -189 q 1229 -163 1202 -189 q 1255 -74 1255 -136 l 1255 868 q 1140 997 1255 997 l 346 997 m 1389 -117 q 1352 -253 1389 -212 q 1223 -294 1315 -294 l 346 -294 q 209 -252 252 -294 q 167 -117 167 -210 l 167 868 q 214 1001 167 954 q 346 1047 261 1047 l 1182 1047 q 1334 1003 1279 1047 q 1389 868 1389 958 l 1389 -117 m 712 576 q 612 345 637 402 q 666 343 627 345 q 721 342 705 342 q 808 343 753 342 q 712 576 766 453 m 588 285 q 505 54 527 134 q 458 57 493 57 q 400 54 412 57 q 707 742 550 379 l 781 742 q 881 496 817 656 q 995 218 946 336 q 1065 54 1043 100 q 981 57 1047 57 q 907 54 925 57 q 829 286 883 141 q 726 288 761 288 q 588 285 665 288 z "},"":{"ha":1527,"x_min":167,"x_max":1389,"o":"m 610 749 q 642 680 611 707 q 722 652 672 652 q 798 677 764 652 q 833 749 832 703 l 867 720 q 815 608 860 644 q 722 571 771 571 q 620 613 660 571 q 575 720 581 654 l 610 749 m 800 289 l 717 267 q 644 172 645 247 q 657 131 644 149 q 693 113 671 113 q 782 157 725 113 q 800 184 800 172 l 800 289 m 911 149 q 936 117 911 117 q 974 139 943 117 l 977 136 q 999 109 987 131 q 882 50 951 50 q 827 67 848 50 q 799 111 806 85 l 798 111 q 653 50 730 50 q 557 79 595 50 q 519 163 519 109 q 572 257 519 214 q 703 318 625 300 l 794 340 q 800 353 800 340 q 781 436 800 411 q 718 461 761 461 q 600 379 649 461 l 576 380 l 549 449 l 553 453 q 628 497 578 475 q 728 518 677 518 q 916 349 915 518 q 913 256 916 346 q 911 149 911 167 m 346 997 q 250 964 283 997 q 216 868 216 930 l 216 -74 q 346 -189 216 -189 l 1140 -189 q 1229 -163 1202 -189 q 1255 -74 1255 -136 l 1255 868 q 1140 997 1255 997 l 346 997 m 1389 -117 q 1352 -253 1389 -212 q 1223 -294 1315 -294 l 346 -294 q 209 -252 252 -294 q 167 -117 167 -210 l 167 868 q 214 1001 167 954 q 346 1047 261 1047 l 1182 1047 q 1334 1003 1279 1047 q 1389 868 1389 958 l 1389 -117 z "},"":{"ha":1527,"x_min":167,"x_max":1389,"o":"m 977 -109 q 873 -167 928 -167 q 813 -145 835 -167 q 791 -87 791 -123 q 902 73 791 -8 q 829 286 876 160 q 726 288 761 288 q 588 285 665 288 q 505 54 527 134 q 458 57 493 57 q 400 54 412 57 q 707 742 550 379 l 781 742 q 881 496 817 656 q 995 218 946 336 q 1065 54 1043 100 q 981 57 1047 57 q 959 57 976 57 q 932 56 942 56 q 877 -12 894 18 q 860 -75 860 -41 q 872 -107 860 -94 q 904 -121 885 -121 q 958 -89 932 -121 l 962 -90 l 977 -109 m 346 997 q 250 964 283 997 q 216 868 216 930 l 216 -74 q 346 -189 216 -189 l 1140 -189 q 1229 -163 1202 -189 q 1255 -74 1255 -136 l 1255 868 q 1140 997 1255 997 l 346 997 m 1389 -117 q 1352 -253 1389 -212 q 1223 -294 1315 -294 l 346 -294 q 209 -252 252 -294 q 167 -117 167 -210 l 167 868 q 214 1001 167 954 q 346 1047 261 1047 l 1182 1047 q 1334 1003 1279 1047 q 1389 868 1389 958 l 1389 -117 m 712 576 q 612 345 637 402 q 666 343 627 345 q 721 342 705 342 q 808 343 753 342 q 712 576 766 453 z "},"":{"ha":1527,"x_min":167,"x_max":1389,"o":"m 940 -110 q 838 -168 892 -168 q 777 -146 799 -168 q 754 -89 754 -125 q 846 56 754 -18 q 799 111 809 71 l 798 111 q 653 50 730 50 q 557 79 595 50 q 519 163 519 109 q 572 257 519 214 q 703 318 625 300 l 794 340 q 800 353 800 340 q 781 436 800 411 q 718 461 761 461 q 600 379 649 461 l 576 380 l 549 449 l 553 453 q 628 497 578 475 q 728 518 677 518 q 916 349 915 518 q 913 256 916 346 q 911 149 911 167 q 936 117 911 117 q 974 139 943 117 l 977 136 q 999 109 987 131 q 891 50 956 54 q 840 -16 856 13 q 823 -78 823 -44 q 835 -109 823 -96 q 867 -122 847 -122 q 922 -92 892 -122 l 925 -92 l 940 -110 m 800 289 l 717 267 q 644 172 645 247 q 657 131 644 149 q 693 113 671 113 q 782 157 725 113 q 800 184 800 172 l 800 289 m 346 997 q 250 964 283 997 q 216 868 216 930 l 216 -74 q 346 -189 216 -189 l 1140 -189 q 1229 -163 1202 -189 q 1255 -74 1255 -136 l 1255 868 q 1140 997 1255 997 l 346 997 m 1389 -117 q 1352 -253 1389 -212 q 1223 -294 1315 -294 l 346 -294 q 209 -252 252 -294 q 167 -117 167 -210 l 167 868 q 214 1001 167 954 q 346 1047 261 1047 l 1182 1047 q 1334 1003 1279 1047 q 1389 868 1389 958 l 1389 -117 z "},"":{"ha":1527,"x_min":167,"x_max":1389,"o":"m 817 940 l 888 880 l 724 813 q 674 799 692 800 q 658 817 657 799 q 674 840 658 827 l 817 940 m 765 742 q 880 731 821 742 q 972 707 940 720 l 1003 696 l 1006 692 q 985 557 987 623 l 960 555 q 750 681 897 680 q 615 615 673 681 q 557 406 557 550 q 608 202 557 282 q 764 122 660 122 q 897 145 840 122 q 1006 227 953 168 l 1029 187 q 900 84 978 121 q 745 47 822 47 q 494 145 582 47 q 406 397 406 243 q 509 647 406 553 q 765 742 612 742 m 346 997 q 250 964 283 997 q 216 868 216 930 l 216 -74 q 346 -189 216 -189 l 1140 -189 q 1229 -163 1202 -189 q 1255 -74 1255 -136 l 1255 868 q 1140 997 1255 997 l 346 997 m 1389 -117 q 1352 -253 1389 -212 q 1223 -294 1315 -294 l 346 -294 q 209 -252 252 -294 q 167 -117 167 -210 l 167 868 q 214 1001 167 954 q 346 1047 261 1047 l 1182 1047 q 1334 1003 1279 1047 q 1389 868 1389 958 l 1389 -117 z "},"":{"ha":1527,"x_min":167,"x_max":1389,"o":"m 742 778 q 760 781 748 781 q 826 753 802 781 l 837 726 l 699 602 q 656 584 679 584 q 644 590 650 584 q 638 601 638 595 q 648 629 638 616 l 742 778 m 747 461 q 657 421 692 461 q 623 304 623 380 q 662 170 623 222 q 761 118 701 118 q 884 182 831 118 l 886 182 q 908 155 907 170 q 840 80 887 111 q 736 50 793 50 q 559 113 623 50 q 494 278 494 175 q 567 452 494 387 q 749 518 640 518 q 899 485 835 518 l 900 482 l 876 376 l 859 375 q 806 437 836 412 q 747 461 777 461 m 346 997 q 250 964 283 997 q 216 868 216 930 l 216 -74 q 346 -189 216 -189 l 1140 -189 q 1229 -163 1202 -189 q 1255 -74 1255 -136 l 1255 868 q 1140 997 1255 997 l 346 997 m 1389 -117 q 1352 -253 1389 -212 q 1223 -294 1315 -294 l 346 -294 q 209 -252 252 -294 q 167 -117 167 -210 l 167 868 q 214 1001 167 954 q 346 1047 261 1047 l 1182 1047 q 1334 1003 1279 1047 q 1389 868 1389 958 l 1389 -117 z "},"":{"ha":1527,"x_min":167,"x_max":1389,"o":"m 917 804 l 899 775 q 851 795 875 783 q 798 822 827 807 q 753 843 768 836 q 708 822 737 836 q 655 795 679 807 q 607 775 631 783 l 589 804 q 736 940 646 850 l 770 940 q 917 804 817 889 m 765 742 q 880 731 821 742 q 972 707 940 720 l 1003 696 l 1006 692 q 985 557 987 623 l 960 555 q 750 681 897 680 q 615 615 673 681 q 557 406 557 550 q 608 202 557 282 q 764 122 660 122 q 897 145 840 122 q 1006 227 953 168 l 1029 187 q 900 84 978 121 q 745 47 822 47 q 494 145 582 47 q 406 397 406 243 q 509 647 406 553 q 765 742 612 742 m 346 997 q 250 964 283 997 q 216 868 216 930 l 216 -74 q 346 -189 216 -189 l 1140 -189 q 1229 -163 1202 -189 q 1255 -74 1255 -136 l 1255 868 q 1140 997 1255 997 l 346 997 m 1389 -117 q 1352 -253 1389 -212 q 1223 -294 1315 -294 l 346 -294 q 209 -252 252 -294 q 167 -117 167 -210 l 167 868 q 214 1001 167 954 q 346 1047 261 1047 l 1182 1047 q 1334 1003 1279 1047 q 1389 868 1389 958 l 1389 -117 z "},"":{"ha":1527,"x_min":165,"x_max":1388,"o":"m 745 762 q 865 608 786 695 l 836 587 q 714 682 759 635 q 593 587 675 642 l 564 608 q 685 762 652 709 l 745 762 m 746 461 q 655 421 690 461 q 621 304 621 380 q 660 170 621 222 q 760 118 700 118 q 882 182 830 118 l 885 182 q 907 155 906 170 q 839 80 886 111 q 734 50 791 50 q 557 113 622 50 q 493 278 493 175 q 566 452 493 387 q 747 518 639 518 q 897 485 833 518 l 899 482 l 875 376 l 857 375 q 805 437 835 412 q 746 461 775 461 m 345 997 q 249 964 282 997 q 215 868 215 930 l 215 -74 q 345 -189 215 -189 l 1139 -189 q 1227 -163 1201 -189 q 1254 -74 1254 -136 l 1254 868 q 1139 997 1254 997 l 345 997 m 1388 -117 q 1351 -253 1388 -212 q 1222 -294 1314 -294 l 345 -294 q 208 -252 250 -294 q 165 -117 165 -210 l 165 868 q 213 1001 165 954 q 345 1047 260 1047 l 1181 1047 q 1333 1003 1278 1047 q 1388 868 1388 958 l 1388 -117 z "},"":{"ha":1527,"x_min":167,"x_max":1389,"o":"m 672 842 q 662 853 672 842 q 652 893 652 864 q 672 944 652 922 q 724 965 693 965 q 775 944 754 965 q 796 893 796 922 q 775 842 796 864 q 724 821 754 821 q 672 842 693 821 m 765 742 q 880 731 821 742 q 972 707 940 720 l 1003 696 l 1006 692 q 985 557 987 623 l 960 555 q 750 681 897 680 q 615 615 673 681 q 557 406 557 550 q 608 202 557 282 q 764 122 660 122 q 897 145 840 122 q 1006 227 953 168 l 1029 187 q 900 84 978 121 q 745 47 822 47 q 494 145 582 47 q 406 397 406 243 q 509 647 406 553 q 765 742 612 742 m 346 997 q 250 964 283 997 q 216 868 216 930 l 216 -74 q 346 -189 216 -189 l 1140 -189 q 1229 -163 1202 -189 q 1255 -74 1255 -136 l 1255 868 q 1140 997 1255 997 l 346 997 m 1389 -117 q 1352 -253 1389 -212 q 1223 -294 1315 -294 l 346 -294 q 209 -252 252 -294 q 167 -117 167 -210 l 167 868 q 214 1001 167 954 q 346 1047 261 1047 l 1182 1047 q 1334 1003 1279 1047 q 1389 868 1389 958 l 1389 -117 z "},"":{"ha":1527,"x_min":167,"x_max":1389,"o":"m 679 656 q 669 667 679 656 q 659 707 659 677 q 679 758 659 736 q 730 779 700 779 q 782 758 761 779 q 803 707 803 736 q 782 656 803 677 q 730 635 761 635 q 679 656 700 635 m 747 461 q 657 421 692 461 q 623 304 623 380 q 662 170 623 222 q 761 118 701 118 q 884 182 831 118 l 886 182 q 908 155 907 170 q 840 80 887 111 q 736 50 793 50 q 559 113 623 50 q 494 278 494 175 q 567 452 494 387 q 749 518 640 518 q 899 485 835 518 l 900 482 l 876 376 l 859 375 q 806 437 836 412 q 747 461 777 461 m 346 997 q 250 964 283 997 q 216 868 216 930 l 216 -74 q 346 -189 216 -189 l 1140 -189 q 1229 -163 1202 -189 q 1255 -74 1255 -136 l 1255 868 q 1140 997 1255 997 l 346 997 m 1389 -117 q 1352 -253 1389 -212 q 1223 -294 1315 -294 l 346 -294 q 209 -252 252 -294 q 167 -117 167 -210 l 167 868 q 214 1001 167 954 q 346 1047 261 1047 l 1182 1047 q 1334 1003 1279 1047 q 1389 868 1389 958 l 1389 -117 z "},"":{"ha":1527,"x_min":167,"x_max":1389,"o":"m 714 817 q 608 917 674 868 l 625 937 q 736 873 688 909 q 847 937 801 918 l 864 917 q 758 817 812 878 l 714 817 m 765 742 q 880 731 821 742 q 972 707 940 720 l 1003 696 l 1006 692 q 985 557 987 623 l 960 555 q 750 681 897 680 q 615 615 673 681 q 557 406 557 550 q 608 202 557 282 q 764 122 660 122 q 897 145 840 122 q 1006 227 953 168 l 1029 187 q 900 84 978 121 q 745 47 822 47 q 494 145 582 47 q 406 397 406 243 q 509 647 406 553 q 765 742 612 742 m 346 997 q 250 964 283 997 q 216 868 216 930 l 216 -74 q 346 -189 216 -189 l 1140 -189 q 1229 -163 1202 -189 q 1255 -74 1255 -136 l 1255 868 q 1140 997 1255 997 l 346 997 m 1389 -117 q 1352 -253 1389 -212 q 1223 -294 1315 -294 l 346 -294 q 209 -252 252 -294 q 167 -117 167 -210 l 167 868 q 214 1001 167 954 q 346 1047 261 1047 l 1182 1047 q 1334 1003 1279 1047 q 1389 868 1389 958 l 1389 -117 z "},"":{"ha":1527,"x_min":167,"x_max":1389,"o":"m 750 578 l 697 578 q 591 713 668 625 l 616 732 q 722 644 682 684 q 829 732 754 677 l 854 713 q 750 578 782 632 m 747 461 q 657 421 692 461 q 623 304 623 380 q 662 170 623 222 q 761 118 701 118 q 884 182 831 118 l 886 182 q 908 155 907 170 q 840 80 887 111 q 736 50 793 50 q 559 113 623 50 q 494 278 494 175 q 567 452 494 387 q 749 518 640 518 q 899 485 835 518 l 900 482 l 876 376 l 859 375 q 806 437 836 412 q 747 461 777 461 m 346 997 q 250 964 283 997 q 216 868 216 930 l 216 -74 q 346 -189 216 -189 l 1140 -189 q 1229 -163 1202 -189 q 1255 -74 1255 -136 l 1255 868 q 1140 997 1255 997 l 346 997 m 1389 -117 q 1352 -253 1389 -212 q 1223 -294 1315 -294 l 346 -294 q 209 -252 252 -294 q 167 -117 167 -210 l 167 868 q 214 1001 167 954 q 346 1047 261 1047 l 1182 1047 q 1334 1003 1279 1047 q 1389 868 1389 958 l 1389 -117 z "},"":{"ha":1527,"x_min":167,"x_max":1389,"o":"m 700 811 q 595 911 660 863 l 611 932 q 722 868 673 904 q 833 932 787 913 l 850 911 q 745 811 798 872 l 700 811 m 574 151 q 593 117 574 125 q 688 110 612 110 q 871 158 811 110 q 932 353 932 205 q 661 676 932 676 q 595 668 616 676 q 574 635 574 660 l 574 151 m 507 728 q 604 730 546 728 q 700 732 663 732 q 967 626 851 732 q 1083 378 1083 521 q 1048 219 1083 286 q 956 119 1013 153 q 840 70 899 85 q 720 54 781 54 q 604 56 663 54 q 507 57 546 57 l 431 53 l 429 57 q 440 265 440 131 l 440 519 q 429 728 440 650 l 432 732 q 507 728 471 728 m 346 997 q 250 964 283 997 q 216 868 216 930 l 216 -74 q 346 -189 216 -189 l 1140 -189 q 1229 -163 1202 -189 q 1255 -74 1255 -136 l 1255 868 q 1140 997 1255 997 l 346 997 m 1389 -117 q 1352 -253 1389 -212 q 1223 -294 1315 -294 l 346 -294 q 209 -252 252 -294 q 167 -117 167 -210 l 167 868 q 214 1001 167 954 q 346 1047 261 1047 l 1182 1047 q 1334 1003 1279 1047 q 1389 868 1389 958 l 1389 -117 z "},"":{"ha":1527,"x_min":167,"x_max":1389,"o":"m 1026 922 q 1072 899 1054 922 q 1089 846 1089 876 q 1061 777 1089 812 q 982 734 1032 741 l 977 753 q 1025 782 1007 760 q 1043 825 1043 804 q 1028 847 1043 848 q 981 886 981 847 q 992 911 981 900 q 1026 922 1004 922 m 786 179 l 786 399 q 762 433 770 422 q 737 453 753 444 q 697 461 721 461 q 570 290 570 461 q 599 157 570 199 q 673 115 628 115 q 786 179 733 115 m 786 123 q 647 46 726 45 q 502 111 562 46 q 441 271 441 176 q 522 446 441 375 q 708 517 603 517 q 786 494 741 517 l 786 562 q 775 757 786 697 l 778 761 q 909 787 860 766 q 920 777 919 787 q 908 581 909 692 l 908 260 q 926 57 908 153 l 924 54 q 859 57 899 57 q 803 54 831 57 q 793 57 793 54 l 787 123 l 786 123 m 346 997 q 250 964 283 997 q 216 868 216 930 l 216 -74 q 346 -189 216 -189 l 1140 -189 q 1229 -163 1202 -189 q 1255 -74 1255 -136 l 1255 868 q 1140 997 1255 997 l 346 997 m 1389 -117 q 1352 -253 1389 -212 q 1223 -294 1315 -294 l 346 -294 q 209 -252 252 -294 q 167 -117 167 -210 l 167 868 q 214 1001 167 954 q 346 1047 261 1047 l 1182 1047 q 1334 1003 1279 1047 q 1389 868 1389 958 l 1389 -117 z "},"":{"ha":1527,"x_min":167,"x_max":1389,"o":"m 574 151 q 593 117 574 125 q 688 110 612 110 q 871 158 811 110 q 932 353 932 205 q 661 676 932 676 q 595 668 616 676 q 574 635 574 660 l 574 412 l 667 412 l 667 371 l 574 371 l 574 151 m 507 728 q 604 730 546 728 q 700 732 663 732 q 967 626 851 732 q 1083 378 1083 521 q 1048 219 1083 286 q 956 119 1013 153 q 840 70 899 85 q 720 54 781 54 q 604 56 663 54 q 507 57 546 57 l 431 53 l 429 57 q 440 265 440 131 l 440 371 l 326 371 l 326 412 l 440 412 l 440 519 q 429 728 440 650 l 432 732 q 507 728 471 728 m 346 997 q 250 964 283 997 q 216 868 216 930 l 216 -74 q 346 -189 216 -189 l 1140 -189 q 1229 -163 1202 -189 q 1255 -74 1255 -136 l 1255 868 q 1140 997 1255 997 l 346 997 m 1389 -117 q 1352 -253 1389 -212 q 1223 -294 1315 -294 l 346 -294 q 209 -252 252 -294 q 167 -117 167 -210 l 167 868 q 214 1001 167 954 q 346 1047 261 1047 l 1182 1047 q 1334 1003 1279 1047 q 1389 868 1389 958 l 1389 -117 z "},"":{"ha":1527,"x_min":167,"x_max":1389,"o":"m 1007 720 l 1007 669 l 910 669 q 908 581 908 630 l 908 260 q 926 57 908 153 l 924 54 q 859 57 899 57 q 803 54 831 57 q 793 57 793 54 l 787 123 l 786 123 q 647 46 726 45 q 502 111 562 46 q 441 271 441 176 q 522 446 441 375 q 708 517 603 517 q 786 494 741 517 l 786 562 q 784 669 786 626 l 697 669 l 697 720 l 780 720 q 775 757 778 741 l 778 761 q 909 787 860 766 q 920 777 919 787 q 913 720 916 745 l 1007 720 m 786 179 l 786 399 q 762 433 770 422 q 737 453 753 444 q 697 461 721 461 q 570 290 570 461 q 599 157 570 199 q 673 115 628 115 q 786 179 733 115 m 346 997 q 250 964 283 997 q 216 868 216 930 l 216 -74 q 346 -189 216 -189 l 1140 -189 q 1229 -163 1202 -189 q 1255 -74 1255 -136 l 1255 868 q 1140 997 1255 997 l 346 997 m 1389 -117 q 1352 -253 1389 -212 q 1223 -294 1315 -294 l 346 -294 q 209 -252 252 -294 q 167 -117 167 -210 l 167 868 q 214 1001 167 954 q 346 1047 261 1047 l 1182 1047 q 1334 1003 1279 1047 q 1389 868 1389 958 l 1389 -117 z "},"":{"ha":1527,"x_min":167,"x_max":1389,"o":"m 863 818 l 578 818 q 561 838 561 818 q 569 859 561 847 q 587 871 578 871 l 875 871 q 890 852 890 871 q 882 830 890 842 q 863 818 873 818 m 629 265 q 637 122 629 153 q 773 125 700 122 q 890 132 847 127 l 932 135 l 933 131 q 932 113 933 127 q 932 94 932 100 q 932 76 932 89 q 933 57 933 64 l 932 53 q 869 57 907 57 l 562 57 l 486 53 l 486 57 q 496 265 496 122 l 496 519 q 486 728 496 660 l 488 732 q 562 728 528 728 l 859 728 q 921 732 896 728 l 924 728 q 921 692 921 700 q 924 660 921 676 l 921 656 q 637 668 778 668 q 629 519 629 637 l 629 439 q 861 449 718 439 l 865 446 q 861 412 861 432 q 865 378 861 391 l 861 375 q 629 386 747 386 l 629 265 m 346 997 q 250 964 283 997 q 216 868 216 930 l 216 -74 q 346 -189 216 -189 l 1140 -189 q 1229 -163 1202 -189 q 1255 -74 1255 -136 l 1255 868 q 1140 997 1255 997 l 346 997 m 1389 -117 q 1352 -253 1389 -212 q 1223 -294 1315 -294 l 346 -294 q 209 -252 252 -294 q 167 -117 167 -210 l 167 868 q 214 1001 167 954 q 346 1047 261 1047 l 1182 1047 q 1334 1003 1279 1047 q 1389 868 1389 958 l 1389 -117 z "},"":{"ha":1527,"x_min":167,"x_max":1389,"o":"m 876 602 l 591 602 q 575 621 574 602 q 583 642 575 630 q 602 654 591 654 l 889 654 q 904 636 905 654 q 896 613 904 625 q 876 602 887 602 m 643 359 l 791 359 q 807 374 807 359 q 790 447 807 427 q 742 467 774 467 q 708 460 725 467 q 671 428 692 454 q 643 359 650 402 m 925 179 q 947 143 947 167 q 863 76 917 102 q 754 50 810 50 q 575 113 642 50 q 509 268 509 175 q 584 448 509 378 q 742 518 659 518 q 889 462 839 518 q 939 332 939 406 q 921 314 939 313 l 640 314 q 681 168 640 214 q 775 121 721 121 q 925 179 871 121 m 346 997 q 250 964 283 997 q 216 868 216 930 l 216 -74 q 346 -189 216 -189 l 1140 -189 q 1229 -163 1202 -189 q 1255 -74 1255 -136 l 1255 868 q 1140 997 1255 997 l 346 997 m 1389 -117 q 1352 -253 1389 -212 q 1223 -294 1315 -294 l 346 -294 q 209 -252 252 -294 q 167 -117 167 -210 l 167 868 q 214 1001 167 954 q 346 1047 261 1047 l 1182 1047 q 1334 1003 1279 1047 q 1389 868 1389 958 l 1389 -117 z "},"":{"ha":1527,"x_min":167,"x_max":1389,"o":"m 876 935 q 736 803 855 802 q 637 838 676 803 q 595 935 597 872 l 629 935 q 665 888 635 905 q 736 871 694 871 q 807 888 776 871 q 843 935 838 905 l 876 935 m 629 265 q 637 122 629 153 q 773 125 700 122 q 890 132 847 127 l 932 135 l 933 131 q 932 113 933 127 q 932 94 932 100 q 932 76 932 89 q 933 57 933 64 l 932 53 q 869 57 907 57 l 562 57 l 486 53 l 486 57 q 496 265 496 122 l 496 519 q 486 728 496 660 l 488 732 q 562 728 528 728 l 859 728 q 921 732 896 728 l 924 728 q 921 692 921 700 q 924 660 921 676 l 921 656 q 637 668 778 668 q 629 519 629 637 l 629 439 q 861 449 718 439 l 865 446 q 861 412 861 432 q 865 378 861 391 l 861 375 q 629 386 747 386 l 629 265 m 346 997 q 250 964 283 997 q 216 868 216 930 l 216 -74 q 346 -189 216 -189 l 1140 -189 q 1229 -163 1202 -189 q 1255 -74 1255 -136 l 1255 868 q 1140 997 1255 997 l 346 997 m 1389 -117 q 1352 -253 1389 -212 q 1223 -294 1315 -294 l 346 -294 q 209 -252 252 -294 q 167 -117 167 -210 l 167 868 q 214 1001 167 954 q 346 1047 261 1047 l 1182 1047 q 1334 1003 1279 1047 q 1389 868 1389 958 l 1389 -117 z "},"":{"ha":1527,"x_min":167,"x_max":1389,"o":"m 629 764 q 661 694 631 722 q 742 667 692 667 q 817 692 783 667 q 852 764 851 718 l 886 734 q 835 623 880 659 q 742 586 790 586 q 640 628 680 586 q 595 734 600 669 l 629 764 m 643 359 l 791 359 q 807 374 807 359 q 790 447 807 427 q 742 467 774 467 q 708 460 725 467 q 671 428 692 454 q 643 359 650 402 m 925 179 q 947 143 947 167 q 863 76 917 102 q 754 50 810 50 q 575 113 642 50 q 509 268 509 175 q 584 448 509 378 q 742 518 659 518 q 889 462 839 518 q 939 332 939 406 q 921 314 939 313 l 640 314 q 681 168 640 214 q 775 121 721 121 q 925 179 871 121 m 346 997 q 250 964 283 997 q 216 868 216 930 l 216 -74 q 346 -189 216 -189 l 1140 -189 q 1229 -163 1202 -189 q 1255 -74 1255 -136 l 1255 868 q 1140 997 1255 997 l 346 997 m 1389 -117 q 1352 -253 1389 -212 q 1223 -294 1315 -294 l 346 -294 q 209 -252 252 -294 q 167 -117 167 -210 l 167 868 q 214 1001 167 954 q 346 1047 261 1047 l 1182 1047 q 1334 1003 1279 1047 q 1389 868 1389 958 l 1389 -117 z "},"":{"ha":1527,"x_min":167,"x_max":1389,"o":"m 661 819 q 651 830 661 819 q 640 869 640 840 q 661 920 640 899 q 713 942 682 942 q 764 920 743 942 q 785 869 785 899 q 764 819 785 840 q 713 798 743 798 q 661 819 682 798 m 629 265 q 637 122 629 153 q 773 125 700 122 q 890 132 847 127 l 932 135 l 933 131 q 932 113 933 127 q 932 94 932 100 q 932 76 932 89 q 933 57 933 64 l 932 53 q 869 57 907 57 l 562 57 l 486 53 l 486 57 q 496 265 496 122 l 496 519 q 486 728 496 660 l 488 732 q 562 728 528 728 l 859 728 q 921 732 896 728 l 924 728 q 921 692 921 700 q 924 660 921 676 l 921 656 q 637 668 778 668 q 629 519 629 637 l 629 439 q 861 449 718 439 l 865 446 q 861 412 861 432 q 865 378 861 391 l 861 375 q 629 386 747 386 l 629 265 m 346 997 q 250 964 283 997 q 216 868 216 930 l 216 -74 q 346 -189 216 -189 l 1140 -189 q 1229 -163 1202 -189 q 1255 -74 1255 -136 l 1255 868 q 1140 997 1255 997 l 346 997 m 1389 -117 q 1352 -253 1389 -212 q 1223 -294 1315 -294 l 346 -294 q 209 -252 252 -294 q 167 -117 167 -210 l 167 868 q 214 1001 167 954 q 346 1047 261 1047 l 1182 1047 q 1334 1003 1279 1047 q 1389 868 1389 958 l 1389 -117 z "},"":{"ha":1527,"x_min":167,"x_max":1389,"o":"m 679 628 q 669 639 679 628 q 659 679 659 650 q 679 730 659 708 q 730 751 700 751 q 782 730 761 751 q 803 679 803 708 q 782 628 803 650 q 730 607 761 607 q 679 628 700 607 m 643 359 l 791 359 q 807 374 807 359 q 790 447 807 427 q 742 467 774 467 q 708 460 725 467 q 671 428 692 454 q 643 359 650 402 m 925 179 q 947 143 947 167 q 863 76 917 102 q 754 50 810 50 q 575 113 642 50 q 509 268 509 175 q 584 448 509 378 q 742 518 659 518 q 889 462 839 518 q 939 332 939 406 q 921 314 939 313 l 640 314 q 681 168 640 214 q 775 121 721 121 q 925 179 871 121 m 346 997 q 250 964 283 997 q 216 868 216 930 l 216 -74 q 346 -189 216 -189 l 1140 -189 q 1229 -163 1202 -189 q 1255 -74 1255 -136 l 1255 868 q 1140 997 1255 997 l 346 997 m 1389 -117 q 1352 -253 1389 -212 q 1223 -294 1315 -294 l 346 -294 q 209 -252 252 -294 q 167 -117 167 -210 l 167 868 q 214 1001 167 954 q 346 1047 261 1047 l 1182 1047 q 1334 1003 1279 1047 q 1389 868 1389 958 l 1389 -117 z "},"":{"ha":1527,"x_min":167,"x_max":1389,"o":"m 754 -174 q 686 -150 713 -174 q 659 -85 659 -126 q 686 -9 659 -49 q 758 57 713 31 l 562 57 l 486 53 l 486 57 q 496 265 496 122 l 496 519 q 486 728 496 660 l 488 732 q 562 728 528 728 l 859 728 q 921 732 896 728 l 924 728 q 921 692 921 700 q 924 660 921 676 l 921 656 q 637 668 778 668 q 629 519 629 637 l 629 439 q 861 449 718 439 l 865 446 q 861 412 861 432 q 865 378 861 391 l 861 375 q 629 386 747 386 l 629 265 q 637 122 629 153 q 773 125 700 122 q 890 132 847 127 l 932 135 l 933 131 q 932 113 933 127 q 932 94 932 100 q 932 76 932 89 q 933 57 933 64 l 932 53 q 869 57 907 57 l 834 57 q 752 7 785 47 q 720 -72 720 -33 q 736 -116 720 -98 q 781 -134 753 -134 q 852 -96 819 -134 l 869 -104 q 819 -156 851 -138 q 754 -174 786 -174 m 346 997 q 250 964 283 997 q 216 868 216 930 l 216 -74 q 346 -189 216 -189 l 1140 -189 q 1229 -163 1202 -189 q 1255 -74 1255 -136 l 1255 868 q 1140 997 1255 997 l 346 997 m 1389 -117 q 1352 -253 1389 -212 q 1223 -294 1315 -294 l 346 -294 q 209 -252 252 -294 q 167 -117 167 -210 l 167 868 q 214 1001 167 954 q 346 1047 261 1047 l 1182 1047 q 1334 1003 1279 1047 q 1389 868 1389 958 l 1389 -117 z "},"":{"ha":1527,"x_min":167,"x_max":1389,"o":"m 643 359 l 791 359 q 807 374 807 359 q 790 447 807 427 q 742 467 774 467 q 708 460 725 467 q 671 428 692 454 q 643 359 650 402 m 925 179 q 947 143 947 167 q 882 86 923 110 q 821 -35 821 22 q 832 -66 821 -53 q 864 -79 844 -79 q 920 -49 889 -79 l 922 -50 l 937 -66 q 835 -125 890 -125 q 774 -103 796 -125 q 751 -46 751 -82 q 795 54 751 3 q 754 50 775 50 q 575 113 642 50 q 509 268 509 175 q 584 448 509 378 q 742 518 659 518 q 889 462 839 518 q 939 332 939 406 q 921 314 939 313 l 640 314 q 681 168 640 214 q 775 121 721 121 q 925 179 871 121 m 346 997 q 250 964 283 997 q 216 868 216 930 l 216 -74 q 346 -189 216 -189 l 1140 -189 q 1229 -163 1202 -189 q 1255 -74 1255 -136 l 1255 868 q 1140 997 1255 997 l 346 997 m 1389 -117 q 1352 -253 1389 -212 q 1223 -294 1315 -294 l 346 -294 q 209 -252 252 -294 q 167 -117 167 -210 l 167 868 q 214 1001 167 954 q 346 1047 261 1047 l 1182 1047 q 1334 1003 1279 1047 q 1389 868 1389 958 l 1389 -117 z "},"":{"ha":1527,"x_min":167,"x_max":1389,"o":"m 688 789 q 582 889 648 840 l 599 909 q 710 846 661 882 q 821 909 775 890 l 838 889 q 732 789 786 850 l 688 789 m 629 265 q 637 122 629 153 q 773 125 700 122 q 890 132 847 127 l 932 135 l 933 131 q 932 113 933 127 q 932 94 932 100 q 932 76 932 89 q 933 57 933 64 l 932 53 q 869 57 907 57 l 562 57 l 486 53 l 486 57 q 496 265 496 122 l 496 519 q 486 728 496 660 l 488 732 q 562 728 528 728 l 859 728 q 921 732 896 728 l 924 728 q 921 692 921 700 q 924 660 921 676 l 921 656 q 637 668 778 668 q 629 519 629 637 l 629 439 q 861 449 718 439 l 865 446 q 861 412 861 432 q 865 378 861 391 l 861 375 q 629 386 747 386 l 629 265 m 346 997 q 250 964 283 997 q 216 868 216 930 l 216 -74 q 346 -189 216 -189 l 1140 -189 q 1229 -163 1202 -189 q 1255 -74 1255 -136 l 1255 868 q 1140 997 1255 997 l 346 997 m 1389 -117 q 1352 -253 1389 -212 q 1223 -294 1315 -294 l 346 -294 q 209 -252 252 -294 q 167 -117 167 -210 l 167 868 q 214 1001 167 954 q 346 1047 261 1047 l 1182 1047 q 1334 1003 1279 1047 q 1389 868 1389 958 l 1389 -117 z "},"":{"ha":1527,"x_min":167,"x_max":1389,"o":"m 757 599 l 704 599 q 599 733 675 646 l 624 753 q 729 665 689 705 q 836 753 761 699 l 861 733 q 757 599 789 653 m 643 359 l 791 359 q 807 374 807 359 q 790 447 807 427 q 742 467 774 467 q 708 460 725 467 q 671 428 692 454 q 643 359 650 402 m 925 179 q 947 143 947 167 q 863 76 917 102 q 754 50 810 50 q 575 113 642 50 q 509 268 509 175 q 584 448 509 378 q 742 518 659 518 q 889 462 839 518 q 939 332 939 406 q 921 314 939 313 l 640 314 q 681 168 640 214 q 775 121 721 121 q 925 179 871 121 m 346 997 q 250 964 283 997 q 216 868 216 930 l 216 -74 q 346 -189 216 -189 l 1140 -189 q 1229 -163 1202 -189 q 1255 -74 1255 -136 l 1255 868 q 1140 997 1255 997 l 346 997 m 1389 -117 q 1352 -253 1389 -212 q 1223 -294 1315 -294 l 346 -294 q 209 -252 252 -294 q 167 -117 167 -210 l 167 868 q 214 1001 167 954 q 346 1047 261 1047 l 1182 1047 q 1334 1003 1279 1047 q 1389 868 1389 958 l 1389 -117 z "},"":{"ha":1527,"x_min":167,"x_max":1389,"o":"m 774 921 q 890 812 821 865 l 872 789 q 750 860 800 823 q 628 789 690 817 l 611 812 q 726 921 658 848 l 774 921 m 922 179 q 913 376 922 307 l 914 380 q 989 376 954 376 q 1065 380 989 376 l 1065 376 q 1055 200 1056 314 q 1065 143 1055 159 l 1065 140 q 760 47 954 47 q 498 146 589 47 q 408 390 408 245 q 509 650 408 558 q 779 742 610 742 q 897 731 835 742 q 994 707 960 720 l 1028 696 l 1031 692 q 1010 557 1013 623 l 983 555 q 894 652 951 619 q 764 685 836 685 q 613 609 668 685 q 558 397 558 533 q 783 104 558 104 q 922 143 882 104 l 922 179 m 346 997 q 250 964 283 997 q 216 868 216 930 l 216 -74 q 346 -189 216 -189 l 1140 -189 q 1229 -163 1202 -189 q 1255 -74 1255 -136 l 1255 868 q 1140 997 1255 997 l 346 997 m 1389 -117 q 1352 -253 1389 -212 q 1223 -294 1315 -294 l 346 -294 q 209 -252 252 -294 q 167 -117 167 -210 l 167 868 q 214 1001 167 954 q 346 1047 261 1047 l 1182 1047 q 1334 1003 1279 1047 q 1389 868 1389 958 l 1389 -117 z "},"":{"ha":1527,"x_min":167,"x_max":1389,"o":"m 745 783 q 865 629 786 716 l 836 607 q 714 702 759 655 q 593 607 675 662 l 564 629 q 685 783 652 730 l 745 783 m 907 397 q 857 287 907 331 q 720 243 807 243 q 639 258 664 243 l 631 262 q 614 200 614 235 q 624 168 614 179 q 645 155 635 157 q 673 154 654 154 l 704 157 q 770 163 751 162 q 868 152 824 163 q 947 108 913 140 q 982 25 982 75 q 887 -103 982 -54 q 681 -151 791 -151 q 556 -123 612 -151 q 500 -33 500 -94 q 591 93 500 35 q 550 121 566 100 q 533 174 533 142 q 576 281 533 241 l 571 288 q 528 396 528 321 q 583 508 528 463 q 721 554 637 554 q 782 545 750 554 q 890 555 827 547 q 968 564 953 562 l 972 561 q 968 528 968 547 q 972 497 968 511 l 968 494 q 851 505 966 494 q 891 457 876 486 q 907 397 907 427 m 796 387 q 710 509 796 508 q 640 411 641 509 q 722 288 640 288 q 775 311 754 288 q 796 387 796 334 m 346 997 q 250 964 283 997 q 216 868 216 930 l 216 -74 q 346 -189 216 -189 l 1140 -189 q 1229 -163 1202 -189 q 1255 -74 1255 -136 l 1255 868 q 1140 997 1255 997 l 346 997 m 1389 -117 q 1352 -253 1389 -212 q 1223 -294 1315 -294 l 346 -294 q 209 -252 252 -294 q 167 -117 167 -210 l 167 868 q 214 1001 167 954 q 346 1047 261 1047 l 1182 1047 q 1334 1003 1279 1047 q 1389 868 1389 958 l 1389 -117 m 662 75 q 612 -12 612 36 q 644 -84 612 -60 q 710 -109 675 -109 q 826 -77 778 -109 q 875 1 875 -46 q 733 79 875 79 q 704 77 728 79 q 662 75 679 75 m 663 76 l 664 76 q 663 76 664 77 l 663 76 z "},"":{"ha":1527,"x_min":167,"x_max":1389,"o":"m 903 937 q 762 806 882 805 q 663 840 703 806 q 621 937 624 875 l 656 937 q 691 891 661 908 q 762 873 721 873 q 833 891 802 873 q 869 937 864 908 l 903 937 m 922 179 q 913 376 922 307 l 914 380 q 989 376 954 376 l 1065 380 l 1065 376 q 1055 200 1056 314 q 1065 143 1055 159 l 1065 140 q 760 47 954 47 q 498 146 589 47 q 408 390 408 245 q 509 650 408 558 q 779 742 610 742 q 897 731 835 742 q 994 707 960 720 l 1028 696 l 1031 692 q 1010 557 1013 623 l 983 555 q 894 652 951 619 q 764 685 836 685 q 613 609 668 685 q 558 397 558 533 q 783 104 558 104 q 922 143 882 104 l 922 179 m 346 997 q 250 964 283 997 q 216 868 216 930 l 216 -74 q 346 -189 216 -189 l 1140 -189 q 1229 -163 1202 -189 q 1255 -74 1255 -136 l 1255 868 q 1140 997 1255 997 l 346 997 m 1389 -117 q 1352 -253 1389 -212 q 1223 -294 1315 -294 l 346 -294 q 209 -252 252 -294 q 167 -117 167 -210 l 167 868 q 214 1001 167 954 q 346 1047 261 1047 l 1182 1047 q 1334 1003 1279 1047 q 1389 868 1389 958 l 1389 -117 z "},"":{"ha":1527,"x_min":167,"x_max":1389,"o":"m 593 787 q 625 718 594 746 q 705 690 656 690 q 781 716 747 690 q 817 787 815 742 l 850 758 q 799 646 843 683 q 705 610 754 610 q 603 651 643 610 q 558 758 564 693 l 593 787 m 907 397 q 857 287 907 331 q 720 243 807 243 q 639 258 664 243 l 631 262 q 614 200 614 235 q 624 168 614 179 q 645 155 635 157 q 673 154 654 154 l 704 157 q 770 163 751 162 q 868 152 824 163 q 947 108 913 140 q 982 25 982 75 q 887 -103 982 -54 q 681 -151 791 -151 q 556 -123 612 -151 q 500 -33 500 -94 q 591 93 500 35 q 550 121 566 100 q 533 174 533 142 q 576 281 533 241 l 571 288 q 528 396 528 321 q 583 508 528 463 q 721 554 637 554 q 782 545 750 554 q 890 555 827 547 q 968 564 953 562 l 972 561 q 968 528 968 547 q 972 497 968 511 l 968 494 q 851 505 966 494 q 891 457 876 486 q 907 397 907 427 m 796 387 q 710 509 796 508 q 640 411 641 509 q 722 288 640 288 q 775 311 754 288 q 796 387 796 334 m 346 997 q 250 964 283 997 q 216 868 216 930 l 216 -74 q 346 -189 216 -189 l 1140 -189 q 1229 -163 1202 -189 q 1255 -74 1255 -136 l 1255 868 q 1140 997 1255 997 l 346 997 m 1389 -117 q 1352 -253 1389 -212 q 1223 -294 1315 -294 l 346 -294 q 209 -252 252 -294 q 167 -117 167 -210 l 167 868 q 214 1001 167 954 q 346 1047 261 1047 l 1182 1047 q 1334 1003 1279 1047 q 1389 868 1389 958 l 1389 -117 m 662 75 q 612 -12 612 36 q 644 -84 612 -60 q 710 -109 675 -109 q 826 -77 778 -109 q 875 1 875 -46 q 733 79 875 79 q 704 77 728 79 q 662 75 679 75 m 663 76 l 664 76 q 663 76 664 77 l 663 76 z "},"":{"ha":1527,"x_min":167,"x_max":1389,"o":"m 706 819 q 695 830 706 819 q 685 869 685 840 q 706 920 685 899 q 757 942 726 942 q 808 920 787 942 q 829 869 829 899 q 808 819 829 840 q 757 798 787 798 q 706 819 726 798 m 922 179 q 913 376 922 307 l 914 380 q 989 376 954 376 q 1065 380 989 376 l 1065 376 q 1055 200 1056 314 q 1065 143 1055 159 l 1065 140 q 760 47 954 47 q 498 146 589 47 q 408 390 408 245 q 509 650 408 558 q 779 742 610 742 q 897 731 835 742 q 994 707 960 720 l 1028 696 l 1031 692 q 1010 557 1013 623 l 983 555 q 894 652 951 619 q 764 685 836 685 q 613 609 668 685 q 558 397 558 533 q 783 104 558 104 q 922 143 882 104 l 922 179 m 346 997 q 250 964 283 997 q 216 868 216 930 l 216 -74 q 346 -189 216 -189 l 1140 -189 q 1229 -163 1202 -189 q 1255 -74 1255 -136 l 1255 868 q 1140 997 1255 997 l 346 997 m 1389 -117 q 1352 -253 1389 -212 q 1223 -294 1315 -294 l 346 -294 q 209 -252 252 -294 q 167 -117 167 -210 l 167 868 q 214 1001 167 954 q 346 1047 261 1047 l 1182 1047 q 1334 1003 1279 1047 q 1389 868 1389 958 l 1389 -117 z "},"":{"ha":1527,"x_min":167,"x_max":1389,"o":"m 661 655 q 651 665 661 655 q 640 705 640 676 q 661 756 640 734 q 713 778 682 778 q 764 756 743 778 q 785 705 785 734 q 764 655 785 676 q 713 633 743 633 q 661 655 682 633 m 907 397 q 857 287 907 331 q 720 243 807 243 q 639 258 664 243 l 631 262 q 614 200 614 235 q 624 168 614 179 q 645 155 635 157 q 673 154 654 154 l 704 157 q 770 163 751 162 q 868 152 824 163 q 947 108 913 140 q 982 25 982 75 q 887 -103 982 -54 q 681 -151 791 -151 q 556 -123 612 -151 q 500 -33 500 -94 q 591 93 500 35 q 550 121 566 100 q 533 174 533 142 q 576 281 533 241 l 571 288 q 528 396 528 321 q 583 508 528 463 q 721 554 637 554 q 782 545 750 554 q 890 555 827 547 q 968 564 953 562 l 972 561 q 968 528 968 547 q 972 497 968 511 l 968 494 q 851 505 966 494 q 891 457 876 486 q 907 397 907 427 m 796 387 q 710 509 796 508 q 640 411 641 509 q 722 288 640 288 q 775 311 754 288 q 796 387 796 334 m 346 997 q 250 964 283 997 q 216 868 216 930 l 216 -74 q 346 -189 216 -189 l 1140 -189 q 1229 -163 1202 -189 q 1255 -74 1255 -136 l 1255 868 q 1140 997 1255 997 l 346 997 m 1389 -117 q 1352 -253 1389 -212 q 1223 -294 1315 -294 l 346 -294 q 209 -252 252 -294 q 167 -117 167 -210 l 167 868 q 214 1001 167 954 q 346 1047 261 1047 l 1182 1047 q 1334 1003 1279 1047 q 1389 868 1389 958 l 1389 -117 m 662 75 q 612 -12 612 36 q 644 -84 612 -60 q 710 -109 675 -109 q 826 -77 778 -109 q 875 1 875 -46 q 733 79 875 79 q 704 77 728 79 q 662 75 679 75 m 663 76 l 664 76 q 663 76 664 77 l 663 76 z "},"":{"ha":1527,"x_min":167,"x_max":1389,"o":"m 764 14 q 811 -9 793 14 q 829 -61 829 -32 q 804 -132 829 -94 q 718 -172 779 -170 l 714 -154 q 769 -126 749 -147 q 793 -93 790 -106 q 796 -72 796 -81 q 793 -61 796 -66 q 764 -71 777 -71 q 723 -58 734 -71 q 711 -28 711 -45 q 725 1 711 -12 q 764 14 739 14 m 922 179 q 913 376 922 307 l 914 380 q 989 376 954 376 l 1065 380 l 1065 376 q 1055 200 1056 314 q 1065 143 1055 159 l 1065 140 q 760 47 954 47 q 498 146 589 47 q 408 390 408 245 q 509 650 408 558 q 779 742 610 742 q 897 731 835 742 q 994 707 960 720 l 1028 696 l 1031 692 q 1010 557 1013 623 l 983 555 q 894 652 951 619 q 764 685 836 685 q 613 609 668 685 q 558 397 558 533 q 783 104 558 104 q 922 143 882 104 l 922 179 m 346 997 q 250 964 283 997 q 216 868 216 930 l 216 -74 q 346 -189 216 -189 l 1140 -189 q 1229 -163 1202 -189 q 1255 -74 1255 -136 l 1255 868 q 1140 997 1255 997 l 346 997 m 1389 -117 q 1352 -253 1389 -212 q 1223 -294 1315 -294 l 346 -294 q 209 -252 252 -294 q 167 -117 167 -210 l 167 868 q 214 1001 167 954 q 346 1047 261 1047 l 1182 1047 q 1334 1003 1279 1047 q 1389 868 1389 958 l 1389 -117 z "},"":{"ha":1527,"x_min":167,"x_max":1389,"o":"m 730 614 q 683 637 701 614 q 665 690 665 660 q 690 761 665 724 q 777 802 715 799 l 781 783 q 725 755 746 777 q 701 722 704 734 q 699 701 699 710 q 699 695 699 699 q 700 690 700 692 q 730 700 718 700 q 771 686 758 700 q 783 656 783 672 q 769 627 783 640 q 730 614 755 614 m 907 397 q 857 287 907 331 q 720 243 807 243 q 639 258 664 243 l 631 262 q 614 200 614 235 q 624 168 614 179 q 645 155 635 157 q 673 154 654 154 l 704 157 q 770 163 751 162 q 868 152 824 163 q 947 108 913 140 q 982 25 982 75 q 887 -103 982 -54 q 681 -151 791 -151 q 556 -123 612 -151 q 500 -33 500 -94 q 591 93 500 35 q 550 121 566 100 q 533 174 533 142 q 576 281 533 241 l 571 288 q 528 396 528 321 q 583 508 528 463 q 721 554 637 554 q 782 545 750 554 q 890 555 827 547 q 968 564 953 562 l 972 561 q 968 528 968 547 q 972 497 968 511 l 968 494 q 851 505 966 494 q 891 457 876 486 q 907 397 907 427 m 796 387 q 710 509 796 508 q 640 411 641 509 q 722 288 640 288 q 775 311 754 288 q 796 387 796 334 m 346 997 q 250 964 283 997 q 216 868 216 930 l 216 -74 q 346 -189 216 -189 l 1140 -189 q 1229 -163 1202 -189 q 1255 -74 1255 -136 l 1255 868 q 1140 997 1255 997 l 346 997 m 1389 -117 q 1352 -253 1389 -212 q 1223 -294 1315 -294 l 346 -294 q 209 -252 252 -294 q 167 -117 167 -210 l 167 868 q 214 1001 167 954 q 346 1047 261 1047 l 1182 1047 q 1334 1003 1279 1047 q 1389 868 1389 958 l 1389 -117 m 662 75 q 612 -12 612 36 q 644 -84 612 -60 q 710 -109 675 -109 q 826 -77 778 -109 q 875 1 875 -46 q 733 79 875 79 q 704 77 728 79 q 662 75 679 75 m 663 76 l 664 76 q 663 76 664 77 l 663 76 z "},"":{"ha":1527,"x_min":167,"x_max":1389,"o":"m 880 519 q 869 728 880 650 l 872 732 q 947 728 911 728 q 1023 732 947 728 l 1025 728 q 1014 519 1014 656 l 1014 265 q 1025 57 1014 134 l 1022 53 q 947 57 983 57 q 871 53 947 57 l 869 57 q 880 265 880 131 l 880 380 l 589 380 l 589 265 q 600 57 589 134 l 597 53 q 522 57 559 57 q 446 53 522 57 l 444 57 q 456 265 455 131 l 456 519 q 444 728 456 650 l 447 732 q 522 728 486 728 q 599 732 522 728 l 600 728 q 589 519 589 656 l 589 435 l 880 435 l 880 519 m 346 997 q 250 964 283 997 q 216 868 216 930 l 216 -74 q 346 -189 216 -189 l 1140 -189 q 1229 -163 1202 -189 q 1255 -74 1255 -136 l 1255 868 q 1140 997 1255 997 l 346 997 m 1389 -117 q 1352 -253 1389 -212 q 1223 -294 1315 -294 l 346 -294 q 209 -252 252 -294 q 167 -117 167 -210 l 167 868 q 214 1001 167 954 q 346 1047 261 1047 l 1182 1047 q 1334 1003 1279 1047 q 1389 868 1389 958 l 1389 -117 m 756 906 q 873 798 802 850 l 854 773 q 732 845 782 807 q 610 773 672 802 l 593 798 q 707 906 640 833 l 756 906 z "},"":{"ha":1527,"x_min":167,"x_max":1389,"o":"m 769 978 q 885 869 815 922 l 867 846 q 745 917 794 880 q 623 846 685 874 l 606 869 q 720 978 652 905 l 769 978 m 825 250 l 825 350 q 809 431 825 411 q 747 452 793 452 q 735 450 741 452 q 722 445 729 449 q 709 437 714 440 q 694 425 704 433 q 681 412 685 416 q 663 394 676 407 q 643 375 650 380 l 643 250 q 653 57 643 127 l 652 54 q 582 57 617 57 l 511 54 l 510 57 q 519 250 519 122 l 519 564 q 510 760 519 708 l 511 764 q 644 789 591 769 q 653 779 652 789 q 643 585 644 690 l 643 437 q 794 519 725 519 q 902 476 855 519 q 949 358 949 433 l 949 250 q 958 57 949 127 l 957 54 q 886 57 922 57 l 815 54 l 815 57 q 825 250 825 123 m 346 997 q 250 964 283 997 q 216 868 216 930 l 216 -74 q 346 -189 216 -189 l 1140 -189 q 1229 -163 1202 -189 q 1255 -74 1255 -136 l 1255 868 q 1140 997 1255 997 l 346 997 m 1389 -117 q 1352 -253 1389 -212 q 1223 -294 1315 -294 l 346 -294 q 209 -252 252 -294 q 167 -117 167 -210 l 167 868 q 214 1001 167 954 q 346 1047 261 1047 l 1182 1047 q 1334 1003 1279 1047 q 1389 868 1389 958 l 1389 -117 z "},"":{"ha":1527,"x_min":167,"x_max":1389,"o":"m 346 997 q 250 964 283 997 q 216 868 216 930 l 216 -74 q 346 -189 216 -189 l 1140 -189 q 1229 -163 1202 -189 q 1255 -74 1255 -136 l 1255 868 q 1140 997 1255 997 l 346 997 m 1389 -117 q 1352 -253 1389 -212 q 1223 -294 1315 -294 l 346 -294 q 209 -252 252 -294 q 167 -117 167 -210 l 167 868 q 214 1001 167 954 q 346 1047 261 1047 l 1182 1047 q 1334 1003 1279 1047 q 1389 868 1389 958 l 1389 -117 m 880 380 l 589 380 l 589 265 q 600 57 589 134 l 597 53 q 522 57 559 57 l 446 53 l 444 57 q 456 265 455 131 l 456 519 q 452 646 456 593 l 414 646 l 414 681 l 450 681 q 444 728 448 702 l 447 732 q 522 728 486 728 l 599 732 l 600 728 q 595 681 597 707 l 875 681 q 869 728 873 702 l 872 732 q 947 728 911 728 l 1023 732 l 1025 728 q 1019 681 1022 707 l 1054 681 l 1054 646 l 1017 646 q 1014 519 1014 592 l 1014 265 q 1025 57 1014 134 l 1022 53 q 947 57 983 57 l 871 53 l 869 57 q 880 265 880 131 l 880 380 m 880 435 l 880 519 q 878 646 880 593 l 592 646 q 589 519 589 592 l 589 435 l 880 435 z "},"":{"ha":1527,"x_min":167,"x_max":1389,"o":"m 825 250 l 825 350 q 809 431 825 411 q 747 452 793 452 q 735 450 741 452 q 722 445 729 449 q 709 437 714 440 q 694 425 704 433 q 681 412 685 416 q 663 394 676 407 q 643 375 650 380 l 643 250 q 653 57 643 127 l 652 54 q 582 57 617 57 l 511 54 l 510 57 q 519 250 519 122 l 519 564 q 517 672 519 628 l 443 672 l 443 714 l 515 714 q 510 760 513 742 l 511 764 q 644 789 591 769 q 653 779 652 789 q 647 714 650 749 l 771 714 l 771 672 l 645 672 q 643 585 644 632 l 643 437 q 794 519 725 519 q 902 476 855 519 q 949 358 949 433 l 949 250 q 958 57 949 127 l 957 54 q 886 57 922 57 l 815 54 l 815 57 q 825 250 825 123 m 346 997 q 250 964 283 997 q 216 868 216 930 l 216 -74 q 346 -189 216 -189 l 1140 -189 q 1229 -163 1202 -189 q 1255 -74 1255 -136 l 1255 868 q 1140 997 1255 997 l 346 997 m 1389 -117 q 1352 -253 1389 -212 q 1223 -294 1315 -294 l 346 -294 q 209 -252 252 -294 q 167 -117 167 -210 l 167 868 q 214 1001 167 954 q 346 1047 261 1047 l 1182 1047 q 1334 1003 1279 1047 q 1389 868 1389 958 l 1389 -117 z "},"":{"ha":1527,"x_min":167,"x_max":1389,"o":"m 808 853 q 841 866 829 853 q 865 919 853 878 l 897 908 q 860 816 886 848 q 793 784 833 784 q 718 818 764 784 q 651 848 672 848 q 617 835 629 848 q 596 787 606 821 l 566 796 q 601 887 578 857 q 660 917 623 917 q 746 880 700 917 q 808 853 782 853 m 669 519 q 659 728 669 650 l 661 732 q 736 728 700 728 l 812 732 l 814 728 q 803 519 803 656 l 803 265 q 814 57 803 134 l 811 53 q 736 57 772 57 l 660 53 l 659 57 q 669 265 669 131 l 669 519 m 346 997 q 250 964 283 997 q 216 868 216 930 l 216 -74 q 346 -189 216 -189 l 1140 -189 q 1229 -163 1202 -189 q 1255 -74 1255 -136 l 1255 868 q 1140 997 1255 997 l 346 997 m 1389 -117 q 1352 -253 1389 -212 q 1223 -294 1315 -294 l 346 -294 q 209 -252 252 -294 q 167 -117 167 -210 l 167 868 q 214 1001 167 954 q 346 1047 261 1047 l 1182 1047 q 1334 1003 1279 1047 q 1389 868 1389 958 l 1389 -117 z "},"":{"ha":1555,"x_min":167,"x_max":1389,"o":"m 821 675 q 851 688 840 675 q 872 741 861 701 l 901 730 q 867 638 890 671 q 807 606 844 606 q 740 640 781 606 q 680 671 699 671 q 649 657 659 671 q 630 610 638 644 l 602 618 q 688 739 626 739 q 765 703 724 739 q 821 675 798 675 m 679 297 q 668 481 679 419 l 671 484 q 803 510 753 489 q 812 498 812 510 q 802 314 802 414 l 802 240 q 812 52 802 130 l 810 49 q 741 52 775 52 l 669 49 l 668 52 q 679 240 679 128 l 679 297 m 346 997 q 250 964 283 997 q 216 868 216 930 l 216 -74 q 346 -189 216 -189 l 1140 -189 q 1229 -163 1202 -189 q 1255 -74 1255 -136 l 1255 868 q 1140 997 1255 997 l 346 997 m 1389 -117 q 1352 -253 1389 -212 q 1223 -294 1315 -294 l 346 -294 q 209 -252 252 -294 q 167 -117 167 -210 l 167 868 q 214 1001 167 954 q 346 1047 261 1047 l 1182 1047 q 1334 1003 1279 1047 q 1389 868 1389 958 l 1389 -117 z "},"":{"ha":1527,"x_min":167,"x_max":1389,"o":"m 916 860 l 631 860 q 614 879 614 860 q 622 901 614 888 q 640 913 631 913 l 928 913 q 943 895 943 913 q 935 872 943 884 q 916 860 926 860 m 669 519 q 659 728 669 650 l 661 732 q 736 728 700 728 l 812 732 l 814 728 q 803 519 803 656 l 803 265 q 814 57 803 134 l 811 53 q 736 57 772 57 l 660 53 l 659 57 q 669 265 669 131 l 669 519 m 346 997 q 250 964 283 997 q 216 868 216 930 l 216 -74 q 346 -189 216 -189 l 1140 -189 q 1229 -163 1202 -189 q 1255 -74 1255 -136 l 1255 868 q 1140 997 1255 997 l 346 997 m 1389 -117 q 1352 -253 1389 -212 q 1223 -294 1315 -294 l 346 -294 q 209 -252 252 -294 q 167 -117 167 -210 l 167 868 q 214 1001 167 954 q 346 1047 261 1047 l 1182 1047 q 1334 1003 1279 1047 q 1389 868 1389 958 l 1389 -117 z "},"":{"ha":1555,"x_min":167,"x_max":1389,"o":"m 878 657 l 621 657 q 606 676 606 657 q 614 698 606 686 q 630 710 621 710 l 889 710 q 903 692 903 710 q 895 669 903 680 q 878 657 887 657 m 679 297 q 668 481 679 419 l 671 484 q 803 510 753 489 q 812 498 812 510 q 802 314 802 414 l 802 240 q 812 52 802 130 l 810 49 q 741 52 775 52 l 669 49 l 668 52 q 679 240 679 128 l 679 297 m 346 997 q 250 964 283 997 q 216 868 216 930 l 216 -74 q 346 -189 216 -189 l 1140 -189 q 1229 -163 1202 -189 q 1255 -74 1255 -136 l 1255 868 q 1140 997 1255 997 l 346 997 m 1389 -117 q 1352 -253 1389 -212 q 1223 -294 1315 -294 l 346 -294 q 209 -252 252 -294 q 167 -117 167 -210 l 167 868 q 214 1001 167 954 q 346 1047 261 1047 l 1182 1047 q 1334 1003 1279 1047 q 1389 868 1389 958 l 1389 -117 z "},"":{"ha":1527,"x_min":167,"x_max":1389,"o":"m 892 936 q 751 804 871 804 q 652 839 692 804 q 610 936 612 873 l 644 936 q 680 889 650 907 q 751 872 710 872 q 822 889 791 872 q 859 936 852 907 l 892 936 m 669 519 q 659 728 669 650 l 661 732 q 736 728 700 728 l 812 732 l 814 728 q 803 519 803 656 l 803 265 q 814 57 803 134 l 811 53 q 736 57 772 57 l 660 53 l 659 57 q 669 265 669 131 l 669 519 m 346 997 q 250 964 283 997 q 216 868 216 930 l 216 -74 q 346 -189 216 -189 l 1140 -189 q 1229 -163 1202 -189 q 1255 -74 1255 -136 l 1255 868 q 1140 997 1255 997 l 346 997 m 1389 -117 q 1352 -253 1389 -212 q 1223 -294 1315 -294 l 346 -294 q 209 -252 252 -294 q 167 -117 167 -210 l 167 868 q 214 1001 167 954 q 346 1047 261 1047 l 1182 1047 q 1334 1003 1279 1047 q 1389 868 1389 958 l 1389 -117 z "}}}
